<svg xmlns="http://www.w3.org/2000/svg" width="136" height="33.256" viewBox="0 0 136 33.256"><defs><style>.a{fill:#eee;}</style></defs><g transform="translate(-1167.616 -1631.408)"><path class="a" d="M6.023-4.457a24.8,24.8,0,0,0,.315-2.768q.055-1.17.055-1.941H1.287v-.956H7.5v.7q0,.771-.042,2.026a28.028,28.028,0,0,1-.3,3.054Zm-1.7,1.912q1.013-.043,2.012-.107t1.944-.193L8.35-2q-.958.155-1.958.253T4.408-1.6q-.986.049-1.916.063T.739-1.518L.616-2.474q.589,0,1.246-.007t1.355-.036V-6.455H4.326Zm7.789-2.64H10.157V1.279H9.035v-12.8h1.122V-6.17h1.958Zm8.5-4.038H13.374v-.942h3.053v-1.427h1.122v1.427h3.066ZM15.126-6.248a1.2,1.2,0,0,0,.506,1.015,2.221,2.221,0,0,0,1.355.376A2.222,2.222,0,0,0,18.35-5.24a1.213,1.213,0,0,0,.513-1.022,1.194,1.194,0,0,0-.513-1.015,2.252,2.252,0,0,0-1.362-.376,2.192,2.192,0,0,0-1.355.383A1.218,1.218,0,0,0,15.126-6.248Zm4.8.007a2.079,2.079,0,0,1-.212.949,2.084,2.084,0,0,1-.6.721,2.889,2.889,0,0,1-.931.464,4.113,4.113,0,0,1-1.2.164A4.044,4.044,0,0,1,15.8-4.108a2.9,2.9,0,0,1-.924-.464,2.065,2.065,0,0,1-.6-.728,2.123,2.123,0,0,1-.212-.956,2.123,2.123,0,0,1,.212-.956,2.065,2.065,0,0,1,.6-.728A2.9,2.9,0,0,1,15.8-8.4a4.044,4.044,0,0,1,1.191-.164,4.113,4.113,0,0,1,1.2.164,2.807,2.807,0,0,1,.931.471,2.131,2.131,0,0,1,.6.735A2.123,2.123,0,0,1,19.931-6.241ZM14.894-2.816h7.967v4.11H21.738V-1.86H14.894Zm9.788-4.2H22.861v3.5H21.738v-7.977h1.122v3.525h1.821Zm7.707-3.125a11.155,11.155,0,0,1-.318,2.676,9.056,9.056,0,0,1-1,2.447,9.254,9.254,0,0,1-1.763,2.14A11.936,11.936,0,0,1,26.693-1.1l-.6-.956A9.609,9.609,0,0,0,29.828-5.1a8.153,8.153,0,0,0,1.437-4.1H26.652v-.942ZM36-11.521v12.8H34.88v-12.8ZM48.637-7.026a9.069,9.069,0,0,1-1.424-.314,7.315,7.315,0,0,1-1.3-.535,5.673,5.673,0,0,1-1.081-.742,3.554,3.554,0,0,1-.767-.935,3.617,3.617,0,0,1-.76.935,5.48,5.48,0,0,1-1.075.742,7.316,7.316,0,0,1-1.3.535,9.012,9.012,0,0,1-1.437.314l-.383-.885a7.948,7.948,0,0,0,1.629-.371,6.159,6.159,0,0,0,1.41-.678,3.715,3.715,0,0,0,.986-.92,1.847,1.847,0,0,0,.37-1.1v-.485h1.15v.485a1.847,1.847,0,0,0,.37,1.1,3.754,3.754,0,0,0,.979.92,6.051,6.051,0,0,0,1.4.678,7.817,7.817,0,0,0,1.622.371ZM44.626-5.242v1.256H48.2v2.94H41V.223h7.584v.913H39.89V-1.9h7.2v-1.17H39.849v-.913H43.5V-5.242h-5v-.942H49.623v.942ZM60.067-8.2v-3.311H61.19v7.62H60.067V-7.24H57.644V-8.2Zm-2.3,3.824a5.048,5.048,0,0,1-1.793-1.142,5.1,5.1,0,0,1-1.164-1.741,5.561,5.561,0,0,1-1.2,1.969A5.2,5.2,0,0,1,51.717-4l-.589-.928a4.732,4.732,0,0,0,1.253-.7,5.014,5.014,0,0,0,.979-1.006A4.606,4.606,0,0,0,54-7.853a4.1,4.1,0,0,0,.226-1.341v-.442H51.484v-.942h6.557v.942h-2.7v.442a3.51,3.51,0,0,0,.219,1.213,4.234,4.234,0,0,0,.609,1.113,4.808,4.808,0,0,0,.938.928,4.6,4.6,0,0,0,1.218.656ZM57.151.366a5.054,5.054,0,0,0,2.183-.385A1.19,1.19,0,0,0,60.122-1.1,1.2,1.2,0,0,0,59.335-2.2a6.27,6.27,0,0,0-4.367,0A1.2,1.2,0,0,0,54.181-1.1a1.19,1.19,0,0,0,.787,1.084A5.054,5.054,0,0,0,57.151.366ZM57.145-3.5a8.3,8.3,0,0,1,1.695.157,4.338,4.338,0,0,1,1.285.465,2.288,2.288,0,0,1,.813.751,1.863,1.863,0,0,1,.28,1.016,1.863,1.863,0,0,1-.28,1.016,2.288,2.288,0,0,1-.813.751,4.338,4.338,0,0,1-1.285.465,8.3,8.3,0,0,1-1.695.157,8.4,8.4,0,0,1-1.7-.157A4.247,4.247,0,0,1,54.159.657a2.366,2.366,0,0,1-.813-.751,1.83,1.83,0,0,1-.287-1.016,1.83,1.83,0,0,1,.287-1.016,2.366,2.366,0,0,1,.813-.751,4.247,4.247,0,0,1,1.285-.465A8.4,8.4,0,0,1,57.145-3.5Zm8.932-1.513h6.27V-7.368h-6.27Zm8.692,3.7v.956H63.654v-.956h4.983V-4.072H64.968v-6.535h1.109v2.283h6.27v-2.283h1.109v6.535h-3.7v2.754Zm7,1.7A6.919,6.919,0,0,0,84.05.088q.794-.293.794-.878t-.794-.87a8.87,8.87,0,0,0-4.572,0q-.794.3-.794.87t.794.878A6.919,6.919,0,0,0,81.764.38Zm0-3.211a7.421,7.421,0,0,1,3.107.521,1.643,1.643,0,0,1,1.1,1.52,1.651,1.651,0,0,1-1.1,1.534,7.421,7.421,0,0,1-3.107.521A7.421,7.421,0,0,1,78.657.744a1.651,1.651,0,0,1-1.1-1.534,1.643,1.643,0,0,1,1.1-1.52A7.421,7.421,0,0,1,81.764-2.831Zm5.558-1.912V-3.8H76.207v-.942h5V-6H77.671V-11.15h8.282v.913H78.794v1.184h6.831v.885H78.794v1.256h7.228V-6h-3.7v1.256Zm11.54,2.611H97.739v-9.389h1.122ZM95.59-4.215a5.006,5.006,0,0,1-1.834-1.241,5.669,5.669,0,0,1-1.191-1.926,5.93,5.93,0,0,1-1.191,2.062A5.337,5.337,0,0,1,89.5-3.958l-.589-.956a4.461,4.461,0,0,0,1.266-.749,5.205,5.205,0,0,0,.972-1.077,4.942,4.942,0,0,0,.623-1.306,4.91,4.91,0,0,0,.219-1.463v-1.3h1.122v1.3a4.352,4.352,0,0,0,.226,1.4,4.777,4.777,0,0,0,.63,1.241,5.012,5.012,0,0,0,.965,1.02,4.519,4.519,0,0,0,1.246.706ZM99.231.038V.994H90.963V-3h1.122V.038ZM109.95-8.31h-6.092v1.884h6.092Zm1.123,2.84h-8.323v-5.537h1.109v1.755h6.092v-1.755h1.123Zm1.41,2.483h-5.038V1.293h-1.122V-2.988h-4.983v-.942h11.143ZM118.3-7.611A5.181,5.181,0,0,0,118.56-6a6.418,6.418,0,0,0,.7,1.491,6.181,6.181,0,0,0,1.04,1.234,4.694,4.694,0,0,0,1.28.842l-.63.942a5.057,5.057,0,0,1-1.02-.656,6.836,6.836,0,0,1-.9-.9,6.814,6.814,0,0,1-.746-1.1,7.633,7.633,0,0,1-.548-1.256,7.705,7.705,0,0,1-.534,1.341,8.3,8.3,0,0,1-.739,1.192,6.929,6.929,0,0,1-.89.985,4.764,4.764,0,0,1-1,.706l-.657-.942a4.953,4.953,0,0,0,1.253-.913,6.629,6.629,0,0,0,1.04-1.327,7.2,7.2,0,0,0,.7-1.584,5.633,5.633,0,0,0,.26-1.67V-9.238H114.33v-.956h6.858v.956H118.3Zm5.667-3.9V1.279h-1.122V-11.506Zm11.5,3.311v-3.311h1.123v7.62h-1.123V-7.24h-2.423V-8.2Zm-2.3,3.824a5.048,5.048,0,0,1-1.793-1.142,5.1,5.1,0,0,1-1.164-1.741A5.561,5.561,0,0,1,129-5.285,5.2,5.2,0,0,1,127.116-4l-.589-.928a4.732,4.732,0,0,0,1.253-.7,5.014,5.014,0,0,0,.979-1.006,4.606,4.606,0,0,0,.637-1.22,4.1,4.1,0,0,0,.226-1.341v-.442h-2.738v-.942h6.557v.942h-2.7v.442a3.51,3.51,0,0,0,.219,1.213,4.235,4.235,0,0,0,.609,1.113,4.809,4.809,0,0,0,.938.928,4.6,4.6,0,0,0,1.218.656ZM132.55.366a5.054,5.054,0,0,0,2.183-.385,1.19,1.19,0,0,0,.787-1.084,1.2,1.2,0,0,0-.787-1.092,6.27,6.27,0,0,0-4.367,0A1.2,1.2,0,0,0,129.58-1.1a1.19,1.19,0,0,0,.787,1.084A5.054,5.054,0,0,0,132.55.366ZM132.543-3.5a8.3,8.3,0,0,1,1.695.157,4.338,4.338,0,0,1,1.285.465,2.288,2.288,0,0,1,.813.751,1.863,1.863,0,0,1,.28,1.016,1.863,1.863,0,0,1-.28,1.016,2.288,2.288,0,0,1-.813.751,4.338,4.338,0,0,1-1.285.465,8.3,8.3,0,0,1-1.695.157,8.4,8.4,0,0,1-1.7-.157,4.247,4.247,0,0,1-1.285-.465,2.367,2.367,0,0,1-.813-.751,1.83,1.83,0,0,1-.287-1.016,1.83,1.83,0,0,1,.287-1.016,2.367,2.367,0,0,1,.813-.751,4.247,4.247,0,0,1,1.285-.465A8.4,8.4,0,0,1,132.543-3.5ZM3.162,15.371h6.27V13.017H3.162Zm8.693,3.7v.956H.739v-.956H5.722V16.313H2.053V9.778H3.162v2.283h6.27V9.778h1.109v6.535h-3.7v2.754Zm7.173-6.15a2.305,2.305,0,0,0,.157.863,1.984,1.984,0,0,0,.443.678,2.03,2.03,0,0,0,.669.442,2.285,2.285,0,0,0,1.665,0,2.03,2.03,0,0,0,.669-.442,1.984,1.984,0,0,0,.443-.678,2.454,2.454,0,0,0,0-1.727,1.984,1.984,0,0,0-.443-.678,2.03,2.03,0,0,0-.669-.442,2.285,2.285,0,0,0-1.665,0,2.03,2.03,0,0,0-.669.442,1.984,1.984,0,0,0-.443.678A2.305,2.305,0,0,0,19.028,12.917Zm5.311,0a3.3,3.3,0,0,1-.24,1.277A2.948,2.948,0,0,1,22.4,15.842a3.679,3.679,0,0,1-2.552,0,2.948,2.948,0,0,1-1.694-1.648,3.517,3.517,0,0,1,0-2.554,2.89,2.89,0,0,1,.672-.992A3.145,3.145,0,0,1,19.853,10,3.575,3.575,0,0,1,22.4,10a3.145,3.145,0,0,1,1.022.649,2.89,2.89,0,0,1,.672.992A3.3,3.3,0,0,1,24.339,12.917ZM20.7,20.423h7.064v.956H19.575V17.326H20.7Zm8.337-7.663v.956H27.214v4.552H26.091v-9.4h1.122v3.9ZM39.972,14.2a15.562,15.562,0,0,0,.274-1.941q.055-.828.055-1.441H35.29V9.863h6.119v.671q0,.642-.042,1.584a16.308,16.308,0,0,1-.277,2.212Zm2.355,1.755q-.958.171-1.964.271t-2.005.15q-1,.05-1.937.071t-1.759.021l-.11-.956q.589,0,1.246-.007t1.355-.021V12.717h1.109v2.725q1.013-.043,2.026-.121t1.958-.221Zm-4.777,4.466h7.036v.956H36.426V17.626h1.122Zm8.405-7.377V14H44.188V18.51H43.066V8.879h1.122v4.167Zm9.226-.571a8.019,8.019,0,0,0,.171,1.655,7.315,7.315,0,0,0,.5,1.534,5.792,5.792,0,0,0,.814,1.306,4.163,4.163,0,0,0,1.129.956l-.684.856a4.781,4.781,0,0,1-1.526-1.534,7.573,7.573,0,0,1-.938-2.2,8.153,8.153,0,0,1-.965,2.39A5.153,5.153,0,0,1,52.114,19.1l-.684-.87a4.534,4.534,0,0,0,1.143-1.02,6.179,6.179,0,0,0,.835-1.377,7.962,7.962,0,0,0,.513-1.612,8.532,8.532,0,0,0,.178-1.741V11.319H51.772v-.956h5.6v.956H55.18ZM58.466,9.15h1.068V20.993H58.466V14.415H56.44v-.956h2.026Zm3.545-.3v12.8H60.93V8.85ZM84.926,12.4V8.879h1.122v9.375H84.926V13.359H82.462V12.4Zm-2.313,3.924a5,5,0,0,1-1.793-1.149,5.178,5.178,0,0,1-1.164-1.748,5.377,5.377,0,0,1-1.2,1.934,5.169,5.169,0,0,1-1.889,1.249l-.589-.913a4.847,4.847,0,0,0,1.253-.692,5.039,5.039,0,0,0,.979-.985,4.44,4.44,0,0,0,.637-1.191,3.971,3.971,0,0,0,.226-1.327v-.642H76.33V9.906h6.557v.956h-2.7v.628a3.549,3.549,0,0,0,.219,1.227,4.233,4.233,0,0,0,.609,1.113,4.808,4.808,0,0,0,.938.928,4.6,4.6,0,0,0,1.218.656Zm3.778,4.1v.956H78.205V17.426h1.122v3Zm15.072-10.017H95.426v2.611h6.037Zm1.109,3.553H94.317V9.464h8.254Zm-7.146,6.464h7.365v.956h-8.5V17.726h1.136Zm8.6-5.009v.942H99.094v2.583H97.972V16.356H92.866v-.942ZM116.3,10.248a11.154,11.154,0,0,1-.318,2.676,9.056,9.056,0,0,1-1,2.447,9.254,9.254,0,0,1-1.763,2.14,11.936,11.936,0,0,1-2.615,1.769l-.6-.956a9.609,9.609,0,0,0,3.737-3.039,8.153,8.153,0,0,0,1.437-4.1h-4.613v-.942Zm3.614-1.384v12.8h-1.122V8.864ZM134.929,18.9H129.3v1.655h5.626Zm0-2.526h1.109v5.123h-7.844V16.37H129.3v1.612h5.626Zm-5.64-1.941a2.321,2.321,0,0,0,.842-.15,1.95,1.95,0,0,0,.664-.415,1.928,1.928,0,0,0,.431-.63,2.158,2.158,0,0,0,0-1.618,1.928,1.928,0,0,0-.431-.63,1.865,1.865,0,0,0-.664-.408,2.545,2.545,0,0,0-1.684,0,1.865,1.865,0,0,0-.664.408,1.928,1.928,0,0,0-.431.63,2.158,2.158,0,0,0,0,1.618,1.928,1.928,0,0,0,.431.63,1.95,1.95,0,0,0,.664.415A2.321,2.321,0,0,0,129.289,14.429Zm6.749-5.551v6.864h-1.122V12.874h-2.491a2.955,2.955,0,0,1-.342,1.035,2.685,2.685,0,0,1-.671.792,3.027,3.027,0,0,1-.951.507,3.715,3.715,0,0,1-1.17.178,3.649,3.649,0,0,1-1.266-.213,2.977,2.977,0,0,1-1.006-.605,2.711,2.711,0,0,1-.657-.932,3.032,3.032,0,0,1-.233-1.21,3,3,0,0,1,.233-1.2,2.711,2.711,0,0,1,.657-.932,2.977,2.977,0,0,1,1.006-.605,3.84,3.84,0,0,1,2.416-.036,3.135,3.135,0,0,1,.945.5,2.744,2.744,0,0,1,.678.766,2.7,2.7,0,0,1,.349,1h2.505V8.879Z" transform="translate(1167 1643)"/></g></svg>