<svg xmlns="http://www.w3.org/2000/svg" width="40" height="35" viewBox="0 0 40 35"><defs><style>.a,.b{fill:#fff;}.a{opacity:0;}</style></defs><rect class="a" width="40" height="35"/><g transform="translate(-18.45 -1761)"><path class="b" d="M111.9,118.986H98.536a2.631,2.631,0,0,0-2.577,2.681V141.18a2.631,2.631,0,0,0,2.577,2.681H111.35l.754-1.992a10.783,10.783,0,0,1-7.951-10.7,10.893,10.893,0,0,1,7.065-10.45l.683-1.73" transform="translate(-77.509 1647.014)"/><path class="b" d="M149.262,142.073c5.571,0,10.088-4.788,10.088-10.695s-4.516-10.7-10.088-10.7q-.312,0-.619.02l.55-1.716h15.985a2.631,2.631,0,0,1,2.576,2.681V141.18a2.63,2.63,0,0,1-2.576,2.681H148.643l.619-1.788" transform="translate(-109.304 1647.014)"/><path class="b" d="M145.33,146.469h-1.346l2.529-7.1h1.347l-2.53,7.1m3.382-8.555H144.35l-6.188,17.374h2.681l2.637-7.4h2.68a1.591,1.591,0,0,0,1.651-1.062c.308-.885,1.984-5.522,2.449-6.915S149.614,137.914,148.712,137.914Z" transform="translate(-102.978 1635.591)"/><path class="b" d="M133.533,128.721l-2.641,7.4h-2.655l2.9-8.147h-1.368l-2.905,8.147h-2.681l6.1-17.117h2.681l-2.689,7.538h1.806a1.493,1.493,0,0,1,1.444,2.174" transform="translate(-94.545 1647.001)"/></g></svg>