<svg xmlns="http://www.w3.org/2000/svg" width="84" height="35" viewBox="0 0 84 35"><defs><style>.a,.b{fill:#fff;}.a{opacity:0;}</style></defs><rect class="a" width="84" height="35" transform="translate(0)"/><g transform="translate(-178.916 -387.44)"><g transform="translate(178.916 396.44)"><g transform="translate(26.765 3.647)"><path class="b" d="M263.829,406.952a5.369,5.369,0,0,0-4.213,2.07v0h0v-1.851h-3.547v12.919h3.547v-7.351a2.768,2.768,0,0,1,2.925-2.729,2.846,2.846,0,0,1,2.987,2.729v7.351h3.547v-8.008a4.972,4.972,0,0,0-5.247-5.127" transform="translate(-256.069 -406.952)"/></g><g transform="translate(54.517 3.864)"><path class="b" d="M346.536,407.579l-3.207,8.8-3.207-8.8H336.07l5.316,12.914h3.887l5.316-12.914Z" transform="translate(-336.07 -407.579)"/></g><g transform="translate(11.997 3.646)"><path class="b" d="M217.675,411.06a3.3,3.3,0,0,1,2.729-1.287,2.968,2.968,0,0,1,2.75,1.808l-6.2,2.571a4.155,4.155,0,0,1,.719-3.092m6.815,5.055a5.394,5.394,0,0,1-3.707,1.368,3.931,3.931,0,0,1-2.861-1.048l9.069-3.762a7,7,0,0,0-1.549-3.607,6.481,6.481,0,0,0-5.1-2.116,6.617,6.617,0,0,0-6.842,6.678c0,3.9,2.948,6.678,7.233,6.678a8.509,8.509,0,0,0,6-2.467Z" transform="translate(-213.498 -406.95)"/></g><path class="b" d="M190.574,409.965h-8.063V396.44h-3.6v16.782h11.658Z" transform="translate(-178.916 -396.44)"/><g transform="translate(68.485 3.646)"><path class="b" d="M383.256,409.991a3.4,3.4,0,0,0-3.419,3.637,3.518,3.518,0,0,0,3.467,3.637,3.424,3.424,0,0,0,3.419-3.637,3.517,3.517,0,0,0-3.467-3.637m0,10.314a6.682,6.682,0,1,1,6.966-6.677,6.7,6.7,0,0,1-6.966,6.677" transform="translate(-376.336 -406.951)"/></g><g transform="translate(41.174 3.646)"><path class="b" d="M304.526,409.991a3.4,3.4,0,0,0-3.419,3.637,3.517,3.517,0,0,0,3.467,3.637,3.424,3.424,0,0,0,3.419-3.637,3.518,3.518,0,0,0-3.467-3.637m0,10.314a6.682,6.682,0,1,1,6.967-6.677,6.7,6.7,0,0,1-6.967,6.677" transform="translate(-297.607 -406.951)"/></g></g></g></svg>