<svg xmlns="http://www.w3.org/2000/svg" xmlns:xlink="http://www.w3.org/1999/xlink" width="36" height="36" viewBox="0 0 36 36"><defs><style>.a{fill:url(#a);}.b{fill:url(#b);}.c{fill:url(#c);}.d{fill:url(#d);}.e{fill:url(#e);}.f{fill:url(#f);}.g{mix-blend-mode:soft-light;isolation:isolate;}.h{fill:#ececec;}.i{fill:#656565;}.j{fill:silver;}.k{fill:#8c8c8c;}.l{fill:#303030;}.m{fill:url(#g);}.n{fill:url(#m);}.o{fill:url(#p);}.p{fill:url(#r);}.q{fill:url(#s);}.r{fill:url(#t);}.s{fill:url(#u);}.t{fill:url(#w);}.u{fill:url(#x);}.v{fill:url(#y);}.w{fill-rule:evenodd;fill:url(#z);}</style><linearGradient id="a" x1="0.028" y1="0.5" x2="1" y2="0.5" gradientUnits="objectBoundingBox"><stop offset="0" stop-color="#a1ddf3"/><stop offset="1" stop-color="#187acc"/></linearGradient><linearGradient id="b" x1="-0.002" y1="0.5" x2="1" y2="0.5" gradientUnits="objectBoundingBox"><stop offset="0" stop-color="#eaf8fc"/><stop offset="1" stop-color="#e3f9ff"/></linearGradient><linearGradient id="c" y1="0.5" x2="1.002" y2="0.5" gradientUnits="objectBoundingBox"><stop offset="0" stop-color="#fff"/><stop offset="0.506" stop-color="#fff"/><stop offset="0.762" stop-color="#f1f4f7"/><stop offset="1" stop-color="#ccd5e2"/><stop offset="1" stop-color="#999"/></linearGradient><linearGradient id="d" y1="0.499" x2="1" y2="0.499" gradientUnits="objectBoundingBox"><stop offset="0" stop-color="#f4f6f9"/><stop offset="1" stop-color="#bec9da"/></linearGradient><linearGradient id="e" x1="-0.009" y1="0.51" x2="1.005" y2="0.51" gradientUnits="objectBoundingBox"><stop offset="0" stop-color="#eaf8fc"/><stop offset="1" stop-color="#fff"/></linearGradient><linearGradient id="f" x1="-0.001" y1="0.501" x2="1.001" y2="0.501" gradientUnits="objectBoundingBox"><stop offset="0" stop-color="#bec9da"/><stop offset="1" stop-color="#617bac"/></linearGradient><linearGradient id="g" x1="-0.239" y1="0.5" x2="1.109" y2="0.5" gradientUnits="objectBoundingBox"><stop offset="0" stop-color="#fff"/><stop offset="1" stop-color="#52c1e9"/></linearGradient><linearGradient id="m" x1="-0.239" y1="0.5" x2="1.109" y2="0.5" gradientUnits="objectBoundingBox"><stop offset="0" stop-color="#fff"/><stop offset="1" stop-color="#89d1ef"/></linearGradient><linearGradient id="p" y1="0.499" x2="1" y2="0.499" gradientUnits="objectBoundingBox"><stop offset="0" stop-color="#f4f6f9"/><stop offset="1" stop-color="#78c8eb"/></linearGradient><linearGradient id="r" x1="-0.001" y1="0.501" x2="1.001" y2="0.501" gradientUnits="objectBoundingBox"><stop offset="0" stop-color="#54c1e9"/><stop offset="1" stop-color="#116cc8"/></linearGradient><linearGradient id="s" x1="0.5" x2="0.5" y2="1" gradientUnits="objectBoundingBox"><stop offset="0" stop-color="#fbb03b"/><stop offset="1" stop-color="#f15a24"/></linearGradient><linearGradient id="t" x1="1.099" x2="0" y2="1.065" gradientUnits="objectBoundingBox"><stop offset="0" stop-color="#8cd3f1"/><stop offset="1" stop-color="#085ac2"/></linearGradient><linearGradient id="u" x1="0.287" x2="0.683" y2="1" gradientUnits="objectBoundingBox"><stop offset="0" stop-color="#3ab2e1"/><stop offset="1" stop-color="#94d6f2"/></linearGradient><linearGradient id="w" x1="0.386" y1="0.148" x2="0.861" y2="0.882" gradientUnits="objectBoundingBox"><stop offset="0" stop-color="#43bee8"/><stop offset="1" stop-color="#0d66c5"/></linearGradient><linearGradient id="x" x1="0.306" y1="0.27" x2="0.85" y2="1" gradientUnits="objectBoundingBox"><stop offset="0" stop-color="#40bae6"/><stop offset="1" stop-color="#97d7f2"/></linearGradient><linearGradient id="y" x1="1" y1="0.94" x2="0.056" y2="0.071" gradientUnits="objectBoundingBox"><stop offset="0" stop-color="#1e83d0"/><stop offset="1" stop-color="#8bd5f0"/></linearGradient><linearGradient id="z" x1="0.028" y1="0.093" x2="0.837" y2="1.195" gradientUnits="objectBoundingBox"><stop offset="0" stop-color="#fff"/><stop offset="0.443" stop-color="#f9fcff"/><stop offset="1" stop-color="#c5e7ff"/></linearGradient></defs><g transform="translate(2.049)"><g transform="translate(0 5.64)"><g transform="translate(0 5.6)"><path class="a" d="M22.507,24.075l-3.926-2.232a3.374,3.374,0,0,0-1.633-.343h-.035a1.442,1.442,0,0,0-.382.034h-.1c-.139.034-.243.034-.382.069a.129.129,0,0,0-.1.034c-.1.034-.243.069-.347.1-.035,0-.069.034-.1.034l-.417.206-3.683,2.094H-.007v5.15a1,1,0,0,0,.591.927l.695.378h0l14.036,8a1.7,1.7,0,0,0,.243.1h0c.035,0,.035,0,.069.034.035,0,.035.034.069.034s.069.034.1.034c.069.034.139.034.208.069.035,0,.069.034.1.034h.069c.069,0,.174.034.243.034h.73a.6.6,0,0,0,.243-.034.445.445,0,0,0,.208-.034.65.65,0,0,0,.243-.069c.069,0,.1-.034.174-.034.1-.034.243-.069.347-.1h0c.174-.069.347-.137.486-.206l14.21-8.1c.591-.343.9-.79.869-1.2V24.075Z" transform="translate(0.011 -14.114)"/><path class="b" d="M33.693,11.228a.6.6,0,0,0,.139-.172.034.034,0,0,1,.035-.034l.1-.206h0c.035-.069.035-.137.069-.206h0V10.4h0a1.091,1.091,0,0,0-.591-.79L18.718,1.236a3.963,3.963,0,0,0-3.509.137L1,9.477A2.055,2.055,0,0,0,.3,10.1h0c-.035.069-.069.1-.069.172V10.3c0,.034-.035.1-.035.137v.24a.2.2,0,0,0,.035.137v.034a.259.259,0,0,0,.069.137v.034c.035.034.069.1.1.137l.035.034c-.035.034.035.1.069.137l.035.034c.069.034.1.1.174.137l14.7,8.378a2.8,2.8,0,0,0,1.251.343h.486a4.545,4.545,0,0,0,1.807-.481l14.21-8.1a1.47,1.47,0,0,0,.243-.172l.035-.034a1.506,1.506,0,0,0,.243-.206C33.658,11.262,33.658,11.228,33.693,11.228Z" transform="translate(-0.127 -0.58)"/><path class="c" d="M.347,10.362a.6.6,0,0,1-.139-.172.034.034,0,0,0-.035-.034l-.1-.206h0C.035,9.882.035,9.813,0,9.744H0V9.538H0a1.091,1.091,0,0,1,.591-.79L15.322.336a3.963,3.963,0,0,1,3.509.137l14.21,8.1a2.054,2.054,0,0,1,.695.618h0c.035.069.069.1.069.172V9.4c0,.034.035.1.035.137v.24a.2.2,0,0,1-.035.137V9.95a.259.259,0,0,1-.069.137v.034c-.035.034-.069.1-.1.137l-.035.034-.1.1-.035.034c-.069.034-.1.1-.174.137l-14.7,8.412a2.8,2.8,0,0,1-1.251.343h-.486a4.545,4.545,0,0,1-1.807-.481L.869,10.74a.623.623,0,0,1-.243-.172l-.035-.034a.623.623,0,0,1-.243-.172Z" transform="translate(0.004 0.011)"/><path class="d" d="M33.137,24.08l-6.879-3.914c-.417-.24-.382-.652.1-.927L33,15.461a1.833,1.833,0,0,1,1.633-.069l6.914,3.88c.417.24.382.652-.1.927L34.8,23.977A1.813,1.813,0,0,1,33.137,24.08Z" transform="translate(-16.943 -9.998)"/><path class="e" d="M46.663,29.052l-.938-.549c-.069-.034-.035-.1,0-.137l.9-.515a.3.3,0,0,1,.243,0l.938.549c.069.034.035.1,0,.137l-.9.515A.288.288,0,0,1,46.663,29.052Z" transform="translate(-29.808 -18.267)"/><path class="f" d="M26.264,20.1h0c.035,0,.069-.034.1-.069L33,16.254a1.833,1.833,0,0,1,1.633-.069L41.517,20.1c.382-.275.417-.652.035-.858l-6.879-3.949a1.833,1.833,0,0,0-1.633.069L26.4,19.138C25.882,19.447,25.847,19.859,26.264,20.1Z" transform="translate(-16.949 -9.933)"/><g class="g" transform="translate(1.949 12.845)"><g transform="translate(8.721 5.425)"><path class="h" d="M31.464,53.543l-.591-.343-.174.1.625.343Z" transform="translate(-30.7 -53.2)"/></g><g transform="translate(9.346 5.768)"><path class="i" d="M32.639,55.4V54.2l-.139.1V55.47Z" transform="translate(-32.5 -54.2)"/></g><g transform="translate(8.721 5.528)"><path class="j" d="M30.7,54.667l.625.343V53.843L30.7,53.5Z" transform="translate(-30.7 -53.5)"/></g><g transform="translate(7.678 4.841)"><path class="h" d="M28.464,51.843l-.625-.343-.139.069.591.343Z" transform="translate(-27.7 -51.5)"/></g><g transform="translate(8.269 5.185)"><path class="i" d="M29.574,53.667V52.5l-.174.069v1.167Z" transform="translate(-29.4 -52.5)"/></g><g transform="translate(7.678 4.91)"><path class="j" d="M27.7,52.867l.591.343V52.043L27.7,51.7Z" transform="translate(-27.7 -51.7)"/></g><g transform="translate(6.636 4.223)"><path class="h" d="M25.43,50.043l-.591-.343-.139.1.591.343Z" transform="translate(-24.7 -49.7)"/></g><g transform="translate(7.227 4.567)"><path class="i" d="M26.539,51.867V50.7l-.139.1V51.97Z" transform="translate(-26.4 -50.7)"/></g><g transform="translate(6.636 4.326)"><path class="j" d="M24.7,51.167l.591.343V50.343L24.7,50Z" transform="translate(-24.7 -50)"/></g><g transform="translate(5.559 3.64)"><path class="h" d="M22.364,48.343,21.739,48l-.139.069.625.343Z" transform="translate(-21.6 -48)"/></g><g transform="translate(6.184 3.983)"><path class="i" d="M23.539,50.167V49l-.139.069v1.167Z" transform="translate(-23.4 -49)"/></g><g transform="translate(5.559 3.708)"><path class="j" d="M21.6,49.367l.625.343V48.543L21.6,48.2Z" transform="translate(-21.6 -48.2)"/></g><g transform="translate(4.517 3.022)"><path class="h" d="M19.33,46.543l-.591-.343-.139.1.591.343Z" transform="translate(-18.6 -46.2)"/></g><g transform="translate(5.107 3.365)"><path class="i" d="M20.439,48.367V47.2l-.139.1V48.47Z" transform="translate(-20.3 -47.2)"/></g><g transform="translate(4.517 3.125)"><path class="j" d="M18.6,47.667l.591.343V46.843L18.6,46.5Z" transform="translate(-18.6 -46.5)"/></g><g transform="translate(4.517 3.022)"><path class="k" d="M31.464,53.543v1.2l-.139.069L30.7,54.47V53.3l.174-.1Z" transform="translate(-26.496 -50.797)"/><path class="k" d="M28.464,51.843v1.167l-.174.069-.591-.343V51.569l.139-.069Z" transform="translate(-24.538 -49.68)"/><path class="k" d="M25.43,50.043v1.167l-.139.1L24.7,50.97V49.8l.139-.1Z" transform="translate(-22.581 -48.498)"/><path class="k" d="M22.364,48.343v1.167l-.139.069-.625-.343V48.069L21.739,48Z" transform="translate(-20.558 -47.382)"/><path class="k" d="M18.739,46.2l.591.343v1.167l-.139.1L18.6,47.47V46.3Z" transform="translate(-18.6 -46.2)"/></g><g transform="translate(0 2.369)"><path class="j" d="M5.6,44.4l9.9,5.631-.174-.275L5.774,44.3Z" transform="translate(-5.6 -44.3)"/></g><path class="j" d="M15.5,43.065,5.6,37.4l.174.309.139.069.139.1,2.71,1.545.174.069.139.1,6.254,3.571Z" transform="translate(-5.6 -37.4)"/><path class="j" d="M5.6,37.4v2.472l.174-.1v-2.06Z" transform="translate(-5.6 -37.4)"/><g transform="translate(9.728 5.665)"><path class="j" d="M33.774,56.338V53.9L33.6,54v2.06Z" transform="translate(-33.6 -53.9)"/></g><g transform="translate(0.174 2.3)"><path class="h" d="M6.1,44.169l9.555,5.459v-.172l-6.393-3.64L6.239,44.1Z" transform="translate(-6.1 -44.1)"/></g><g transform="translate(0.174 0.309)"><path class="i" d="M6.1,38.3v2.06l.139-.069V38.369Z" transform="translate(-6.1 -38.3)"/></g><g transform="translate(0.313 2.197)"><path class="j" d="M6.5,43.9,9.523,45.62l-.174-.309L6.674,43.8Z" transform="translate(-6.5 -43.8)"/></g><g transform="translate(3.335 3.914)"><path class="j" d="M15.2,48.9l6.393,3.64v-.172l-.035-.034L15.374,48.8Z" transform="translate(-15.2 -48.8)"/></g><g transform="translate(0.313 0.378)"><path class="j" d="M6.5,40.423l.174-.1V38.637L6.639,38.6,6.5,38.5Z" transform="translate(-6.5 -38.5)"/></g><g transform="translate(0.452 0.481)"><path class="j" d="M6.9,38.8l.035.034.243.137L9.61,40.345h0Z" transform="translate(-6.9 -38.8)"/></g><g transform="translate(3.162 2.026)"><path class="j" d="M14.7,43.3h0v1.682l.174.309V43.369Z" transform="translate(-14.7 -43.3)"/></g><g transform="translate(3.335 2.953)"><path class="j" d="M15.2,46v1.064l.174-.1V46.1Z" transform="translate(-15.2 -46)"/></g><g transform="translate(3.335 2.094)"><path class="j" d="M15.2,43.5v.858l.174.1v-.824l-.035-.034Z" transform="translate(-15.2 -43.5)"/></g><g transform="translate(0.486 2.06)"><path class="h" d="M7,43.537l2.675,1.511v-.275L7.243,43.4Z" transform="translate(-7 -43.4)"/></g><g transform="translate(0.73 0.652)"><path class="l" d="M7.7,40.708l2.432,1.373V40.673L7.7,39.3Z" transform="translate(-7.7 -39.3)"/></g><g transform="translate(0.486 0.515)"><path class="i" d="M7,40.582l.243-.137V39.037L7,38.9Z" transform="translate(-7 -38.9)"/></g><g transform="translate(3.509 3.846)"><path class="h" d="M15.7,48.669l6.184,3.537v-.137L15.8,48.6Z" transform="translate(-15.7 -48.6)"/></g><g transform="translate(3.613 2.3)"><path class="j" d="M16,44.821V44.1l6.08,3.468v1.545L16,45.645Zm5.107,2.507v1.167l.591.343.139-.069V47.6l-.591-.343Zm-1.042-.618v1.167l.591.343.139-.069V46.984l-.591-.343Zm-1.042-.584v1.167l.591.343.139-.069V46.4l-.591-.343Zm-1.077-.618v1.167l.591.343.139-.069V45.782l-.591-.343ZM16.9,44.924v1.167l.591.343.139-.069V45.2l-.591-.343Z" transform="translate(-16 -44.1)"/></g><g transform="translate(3.509 3.022)"><path class="i" d="M15.8,47.024V46.2l-.1.034v.858Z" transform="translate(-15.7 -46.2)"/></g><g transform="translate(3.509 2.232)"><path class="i" d="M15.8,44.69v-.721l-.1-.069v.824Z" transform="translate(-15.7 -43.9)"/></g><g transform="translate(9.694 6.592)"><path class="j" d="M33.5,57.458l.035.034v-.858L33.5,56.6v.858Z" transform="translate(-33.5 -56.6)"/></g><g transform="translate(3.474 2.197)"><path class="j" d="M15.6,43.8l.035.034.1.069,6.08,3.468h.035Z" transform="translate(-15.6 -43.8)"/></g><g transform="translate(9.694 5.768)"><path class="j" d="M33.535,54.2H33.5v.824l.035.034Z" transform="translate(-33.5 -54.2)"/></g></g><g class="g" transform="translate(22.622 12.776)"><g transform="translate(0.382 5.425)"><path class="h" d="M66.2,53.343,66.825,53l.139.069-.625.343Z" transform="translate(-66.2 -53)"/></g><g transform="translate(0.382 5.768)"><path class="i" d="M66.2,55.167V54l.139.069v1.167Z" transform="translate(-66.2 -54)"/></g><g transform="translate(0.521 5.494)"><path class="j" d="M67.225,54.367l-.625.343V53.543l.625-.343Z" transform="translate(-66.6 -53.2)"/></g><g transform="translate(1.459 4.807)"><path class="h" d="M69.3,51.543l.591-.343.139.1-.591.343Z" transform="translate(-69.3 -51.2)"/></g><g transform="translate(1.459 5.15)"><path class="i" d="M69.3,53.367V52.2l.139.1V53.47Z" transform="translate(-69.3 -52.2)"/></g><g transform="translate(1.598 4.91)"><path class="j" d="M70.291,52.667l-.591.343V51.843l.591-.343Z" transform="translate(-69.7 -51.5)"/></g><g transform="translate(2.502 4.223)"><path class="h" d="M72.3,49.843l.591-.343.174.069-.625.343Z" transform="translate(-72.3 -49.5)"/></g><g transform="translate(2.502 4.567)"><path class="i" d="M72.3,51.667V50.5l.139.069v1.167Z" transform="translate(-72.3 -50.5)"/></g><g transform="translate(2.641 4.292)"><path class="j" d="M73.325,50.867l-.625.343V50.043l.625-.343Z" transform="translate(-72.7 -49.7)"/></g><g transform="translate(3.544 3.605)"><path class="h" d="M75.3,48.043l.625-.343.139.1-.591.343Z" transform="translate(-75.3 -47.7)"/></g><g transform="translate(3.544 3.949)"><path class="i" d="M75.3,49.867V48.7l.174.1V49.97Z" transform="translate(-75.3 -48.7)"/></g><g transform="translate(3.718 3.708)"><path class="j" d="M76.391,49.167l-.591.343V48.343L76.391,48Z" transform="translate(-75.8 -48)"/></g><g transform="translate(4.621 3.022)"><path class="h" d="M78.4,46.343,78.991,46l.139.069-.591.343Z" transform="translate(-78.4 -46)"/></g><g transform="translate(4.621 3.365)"><path class="i" d="M78.4,48.167V47l.139.069v1.167Z" transform="translate(-78.4 -47)"/></g><g transform="translate(4.76 3.09)"><path class="j" d="M79.391,47.367l-.591.343V46.543l.591-.343Z" transform="translate(-78.8 -46.2)"/></g><g transform="translate(0.382 3.022)"><path class="k" d="M66.2,53.343v1.167l.139.069.625-.343V53.069L66.825,53Z" transform="translate(-66.2 -50.597)"/><path class="k" d="M69.3,51.543v1.167l.139.1.591-.343V51.3l-.139-.1Z" transform="translate(-68.223 -49.415)"/><path class="k" d="M72.3,49.843v1.167l.139.069.625-.343V49.569l-.174-.069Z" transform="translate(-70.181 -48.298)"/><path class="k" d="M75.3,48.043v1.167l.174.1.591-.343V47.8l-.139-.1Z" transform="translate(-72.138 -47.116)"/><path class="k" d="M78.991,46l-.591.343v1.167l.139.069.591-.343V46.069Z" transform="translate(-74.161 -46)"/></g><g transform="translate(0 2.369)"><path class="j" d="M74.967,44.169,65.1,49.834l.174-.309,9.52-5.425Z" transform="translate(-65.1 -44.1)"/></g><path class="j" d="M65.1,42.831,74.967,37.2l-.174.275-.139.1-.139.069-2.71,1.545-.139.1-.174.069-6.219,3.571Z" transform="translate(-65.1 -37.2)"/><g transform="translate(9.694)"><path class="j" d="M93.174,37.2v2.438L93,39.569V37.475Z" transform="translate(-93 -37.2)"/></g><g transform="translate(0 5.631)"><path class="j" d="M65.1,56.072V53.6l.174.1v2.06Z" transform="translate(-65.1 -53.6)"/></g><g transform="translate(0.174 2.266)"><path class="h" d="M75.12,43.9,65.6,49.328v-.172l6.393-3.64L74.981,43.8Z" transform="translate(-65.6 -43.8)"/></g><g transform="translate(9.555 0.275)"><path class="i" d="M92.739,38v2.094l-.139-.1V38.1Z" transform="translate(-92.6 -38)"/></g><g transform="translate(6.567 2.163)"><path class="j" d="M86.988,43.6,84,45.32l.174-.309L86.814,43.5Z" transform="translate(-84 -43.5)"/></g><g transform="translate(0.174 3.88)"><path class="j" d="M71.993,48.6,65.6,52.243v-.206L71.819,48.5Z" transform="translate(-65.6 -48.5)"/></g><g transform="translate(9.381 0.378)"><path class="j" d="M92.274,40.188l-.174-.1V38.4l.035-.034.139-.069Z" transform="translate(-92.1 -38.3)"/></g><g transform="translate(6.706 0.446)"><path class="j" d="M87.11,38.5l-.035.034-.208.137-2.432,1.408-.035-.034Z" transform="translate(-84.4 -38.5)"/></g><g transform="translate(6.567 1.991)"><path class="j" d="M84.139,43l.035.034v1.648L84,44.991V43.1Z" transform="translate(-84 -43)"/></g><g transform="translate(6.393 2.953)"><path class="j" d="M83.674,45.8v1.03l-.174-.1V45.9Z" transform="translate(-83.5 -45.8)"/></g><g transform="translate(6.393 2.094)"><path class="j" d="M83.674,43.3v.858l-.174.1v-.893Z" transform="translate(-83.5 -43.3)"/></g><g transform="translate(6.74 2.026)"><path class="h" d="M87.141,43.237,84.5,44.748v-.24L86.932,43.1Z" transform="translate(-84.5 -43.1)"/></g><g transform="translate(6.74 0.618)"><path class="l" d="M86.932,40.408,84.5,41.816V40.408L86.932,39Z" transform="translate(-84.5 -39)"/></g><g transform="translate(9.172 0.481)"><path class="i" d="M91.708,40.282l-.208-.137V38.737l.208-.137Z" transform="translate(-91.5 -38.6)"/></g><g transform="translate(0.174 3.811)"><path class="h" d="M71.819,48.369,65.6,51.905v-.1l6.115-3.5Z" transform="translate(-65.6 -48.3)"/></g><g transform="translate(0.174 2.266)"><path class="j" d="M71.715,44.521V43.8L65.6,47.268v1.545l6.08-3.468v-.824Zm-5.142,2.507v1.167l-.591.343-.139-.069V47.3l.591-.343Zm1.042-.584v1.167l-.591.343-.139-.069V46.719l.591-.343Zm1.077-.618v1.167l-.591.343-.139-.069V46.1l.591-.343Zm1.042-.584V46.41l-.591.343L69,46.684V45.517l.591-.343Zm1.042-.618v1.167l-.591.343-.139-.069V44.9l.591-.343Z" transform="translate(-65.6 -43.8)"/></g><g transform="translate(6.289 2.987)"><path class="i" d="M83.2,46.724V45.9l.1.069v.824Z" transform="translate(-83.2 -45.9)"/></g><g transform="translate(6.289 2.197)"><path class="i" d="M83.2,44.39v-.721l.1-.069v.858Z" transform="translate(-83.2 -43.6)"/></g><g transform="translate(0.174 6.592)"><path class="j" d="M65.6,57.224V56.4h0v.824Z" transform="translate(-65.6 -56.4)"/></g><g transform="translate(0.174 2.163)"><path class="j" d="M71.819,43.5v.034l-.1.069L65.6,47.071h0Z" transform="translate(-65.6 -43.5)"/></g><g transform="translate(0.174 5.734)"><path class="j" d="M65.6,53.9h0v.858h0Z" transform="translate(-65.6 -53.9)"/></g></g></g><path class="m" d="M22.507,24.076l-3.926-2.233a3.373,3.373,0,0,0-1.633-.344h-.035a1.441,1.441,0,0,0-.382.034h-.1c-.139.034-.243.034-.382.069a.129.129,0,0,0-.1.034c-.1.034-.243.069-.347.1-.035,0-.069.034-.1.034l-.417.206-3.683,2.1H-.007v5.153a1,1,0,0,0,.591.927l.695.378h0l14.036,8a1.7,1.7,0,0,0,.243.1h0c.035,0,.035,0,.069.034.035,0,.035.034.069.034s.069.034.1.034c.069.034.139.034.208.069.035,0,.069.034.1.034h.069c.069,0,.174.034.243.034h.73a.6.6,0,0,0,.243-.034.445.445,0,0,0,.208-.034.65.65,0,0,0,.243-.069c.069,0,.1-.034.174-.034.1-.034.243-.069.347-.1h0c.174-.069.347-.137.486-.206l14.21-8.107c.591-.344.9-.79.869-1.2V24.076Z" transform="translate(0.011 -14.111)"/><path class="b" d="M33.693,11.233a.6.6,0,0,0,.139-.172.034.034,0,0,1,.035-.034l.1-.206h0c.035-.069.035-.137.069-.206h0v-.206h0a1.092,1.092,0,0,0-.591-.79L18.718,1.237a3.961,3.961,0,0,0-3.509.137L1,9.481A2.055,2.055,0,0,0,.3,10.1h0c-.035.069-.069.1-.069.172v.034c0,.034-.035.1-.035.137v.24a.2.2,0,0,0,.035.137v.034a.259.259,0,0,0,.069.137v.034c.035.034.069.1.1.137l.035.034c-.035.034.035.1.069.137l.035.034c.069.034.1.1.174.137l14.7,8.381a2.8,2.8,0,0,0,1.251.344h.486a4.543,4.543,0,0,0,1.807-.481l14.21-8.107a1.47,1.47,0,0,0,.243-.172l.035-.034a1.506,1.506,0,0,0,.243-.206C33.658,11.267,33.658,11.233,33.693,11.233Z" transform="translate(-0.127 -0.58)"/><path class="c" d="M.347,10.367A.6.6,0,0,1,.208,10.2a.034.034,0,0,0-.035-.034l-.1-.206h0C.035,9.886.035,9.817,0,9.749H0V9.542H0a1.092,1.092,0,0,1,.591-.79L15.322.337a3.961,3.961,0,0,1,3.509.137l14.21,8.107a2.055,2.055,0,0,1,.695.618h0c.035.069.069.1.069.172v.034c0,.034.035.1.035.137v.24a.2.2,0,0,1-.035.137v.034a.259.259,0,0,1-.069.137v.034c-.035.034-.069.1-.1.137L33.6,10.3l-.1.1-.035.034c-.069.034-.1.1-.174.137l-14.7,8.416a2.8,2.8,0,0,1-1.251.344h-.486a4.543,4.543,0,0,1-1.807-.481L.869,10.745a.623.623,0,0,1-.243-.172l-.035-.034a.623.623,0,0,1-.243-.172Z" transform="translate(0.004 0.011)"/><path class="d" d="M33.137,24.083l-6.879-3.916c-.417-.24-.382-.653.1-.927L33,15.461a1.833,1.833,0,0,1,1.633-.069l6.914,3.882c.417.24.382.653-.1.927L34.8,23.98A1.812,1.812,0,0,1,33.137,24.083Z" transform="translate(-16.943 -9.996)"/><path class="e" d="M46.663,29.053l-.938-.55c-.069-.034-.035-.1,0-.137l.9-.515a.3.3,0,0,1,.243,0l.938.55c.069.034.035.1,0,.137l-.9.515A.288.288,0,0,1,46.663,29.053Z" transform="translate(-29.808 -18.263)"/><path class="f" d="M26.264,20.1h0c.035,0,.069-.034.1-.069L33,16.254a1.833,1.833,0,0,1,1.633-.069L41.517,20.1c.382-.275.417-.653.035-.859l-6.879-3.95a1.833,1.833,0,0,0-1.633.069L26.4,19.14C25.882,19.449,25.847,19.861,26.264,20.1Z" transform="translate(-16.949 -9.93)"/><g class="g" transform="translate(1.949 12.851)"><g transform="translate(8.721 5.427)"><path class="h" d="M31.464,53.544l-.591-.344-.174.1.625.344Z" transform="translate(-30.7 -53.2)"/></g><g transform="translate(9.346 5.771)"><path class="i" d="M32.639,55.4V54.2l-.139.1v1.168Z" transform="translate(-32.5 -54.2)"/></g><g transform="translate(8.721 5.53)"><path class="j" d="M30.7,54.668l.625.344V53.844L30.7,53.5Z" transform="translate(-30.7 -53.5)"/></g><g transform="translate(7.678 4.843)"><path class="h" d="M28.464,51.844l-.625-.344-.139.069.591.344Z" transform="translate(-27.7 -51.5)"/></g><g transform="translate(8.269 5.187)"><path class="i" d="M29.574,53.668V52.5l-.174.069v1.168Z" transform="translate(-29.4 -52.5)"/></g><g transform="translate(7.678 4.912)"><path class="j" d="M27.7,52.868l.591.344V52.044L27.7,51.7Z" transform="translate(-27.7 -51.7)"/></g><g transform="translate(6.636 4.225)"><path class="h" d="M25.43,50.043l-.591-.343-.139.1.591.343Z" transform="translate(-24.7 -49.7)"/></g><g transform="translate(7.227 4.569)"><path class="i" d="M26.539,51.868V50.7l-.139.1v1.168Z" transform="translate(-26.4 -50.7)"/></g><g transform="translate(6.636 4.328)"><path class="j" d="M24.7,51.168l.591.344V50.344L24.7,50Z" transform="translate(-24.7 -50)"/></g><g transform="translate(5.559 3.641)"><path class="h" d="M22.364,48.343,21.739,48l-.139.069.625.344Z" transform="translate(-21.6 -48)"/></g><g transform="translate(6.184 3.985)"><path class="i" d="M23.539,50.168V49l-.139.069v1.168Z" transform="translate(-23.4 -49)"/></g><g transform="translate(5.559 3.71)"><path class="j" d="M21.6,49.368l.625.343V48.544L21.6,48.2Z" transform="translate(-21.6 -48.2)"/></g><g transform="translate(4.517 3.023)"><path class="h" d="M19.33,46.544l-.591-.344-.139.1.591.344Z" transform="translate(-18.6 -46.2)"/></g><g transform="translate(5.107 3.366)"><path class="i" d="M20.439,48.368V47.2l-.139.1v1.168Z" transform="translate(-20.3 -47.2)"/></g><g transform="translate(4.517 3.126)"><path class="j" d="M18.6,47.668l.591.344V46.843L18.6,46.5Z" transform="translate(-18.6 -46.5)"/></g><g transform="translate(4.517 3.023)"><path class="k" d="M31.464,53.544v1.2l-.139.069-.625-.344V53.3l.174-.1Z" transform="translate(-26.496 -50.795)"/><path class="k" d="M28.464,51.844v1.168l-.174.069-.591-.344V51.569l.139-.069Z" transform="translate(-24.538 -49.679)"/><path class="k" d="M25.43,50.043v1.168l-.139.1-.591-.343V49.8l.139-.1Z" transform="translate(-22.581 -48.498)"/><path class="k" d="M22.364,48.343v1.168l-.139.069-.625-.343V48.069L21.739,48Z" transform="translate(-20.558 -47.382)"/><path class="k" d="M18.739,46.2l.591.344v1.168l-.139.1-.591-.344V46.3Z" transform="translate(-18.6 -46.2)"/></g><g transform="translate(0 2.37)"><path class="j" d="M5.6,44.4l9.9,5.633-.174-.275L5.774,44.3Z" transform="translate(-5.6 -44.3)"/></g><path class="j" d="M15.5,43.068,5.6,37.4l.174.309.139.069.139.1,2.71,1.546.174.069.139.1,6.254,3.572Z" transform="translate(-5.6 -37.4)"/><path class="j" d="M5.6,37.4v2.473l.174-.1V37.709Z" transform="translate(-5.6 -37.4)"/><g transform="translate(9.728 5.668)"><path class="j" d="M33.774,56.339V53.9L33.6,54v2.061Z" transform="translate(-33.6 -53.9)"/></g><g transform="translate(0.174 2.301)"><path class="h" d="M6.1,44.169l9.555,5.462v-.172L9.262,45.818,6.239,44.1Z" transform="translate(-6.1 -44.1)"/></g><g transform="translate(0.174 0.309)"><path class="i" d="M6.1,38.3v2.061l.139-.069V38.369Z" transform="translate(-6.1 -38.3)"/></g><g transform="translate(0.313 2.198)"><path class="j" d="M6.5,43.9l3.023,1.718-.174-.309L6.674,43.8Z" transform="translate(-6.5 -43.8)"/></g><g transform="translate(3.335 3.916)"><path class="j" d="M15.2,48.9l6.393,3.641v-.172l-.035-.034L15.374,48.8Z" transform="translate(-15.2 -48.8)"/></g><g transform="translate(0.313 0.378)"><path class="j" d="M6.5,40.424l.174-.1V38.637L6.639,38.6,6.5,38.5Z" transform="translate(-6.5 -38.5)"/></g><g transform="translate(0.452 0.481)"><path class="j" d="M6.9,38.8l.035.034.243.137L9.61,40.346h0Z" transform="translate(-6.9 -38.8)"/></g><g transform="translate(3.162 2.027)"><path class="j" d="M14.7,43.3h0v1.683l.174.309V43.369Z" transform="translate(-14.7 -43.3)"/></g><g transform="translate(3.335 2.954)"><path class="j" d="M15.2,46v1.065l.174-.1V46.1Z" transform="translate(-15.2 -46)"/></g><g transform="translate(3.335 2.095)"><path class="j" d="M15.2,43.5v.859l.174.1v-.824l-.035-.034Z" transform="translate(-15.2 -43.5)"/></g><g transform="translate(0.486 2.061)"><path class="h" d="M7,43.537l2.675,1.511v-.275L7.243,43.4Z" transform="translate(-7 -43.4)"/></g><g transform="translate(0.73 0.653)"><path class="l" d="M7.7,40.708l2.432,1.374V40.674L7.7,39.3Z" transform="translate(-7.7 -39.3)"/></g><g transform="translate(0.486 0.515)"><path class="i" d="M7,40.583l.243-.137V39.037L7,38.9Z" transform="translate(-7 -38.9)"/></g><g transform="translate(3.509 3.847)"><path class="h" d="M15.7,48.669l6.184,3.538v-.137L15.8,48.6Z" transform="translate(-15.7 -48.6)"/></g><g transform="translate(3.613 2.301)"><path class="j" d="M16,44.821V44.1l6.08,3.469v1.546L16,45.646Zm5.107,2.508V48.5l.591.344.139-.069V47.6l-.591-.344Zm-1.042-.618v1.168l.591.344.139-.069V46.985l-.591-.344Zm-1.042-.584v1.168l.591.344.139-.069V46.4l-.591-.343Zm-1.077-.618v1.168l.591.344.139-.069V45.783l-.591-.344ZM16.9,44.924v1.168l.591.343.139-.069V45.2l-.591-.344Z" transform="translate(-16 -44.1)"/></g><g transform="translate(3.509 3.023)"><path class="i" d="M15.8,47.024V46.2l-.1.034v.859Z" transform="translate(-15.7 -46.2)"/></g><g transform="translate(3.509 2.233)"><path class="i" d="M15.8,44.69v-.721l-.1-.069v.824Z" transform="translate(-15.7 -43.9)"/></g><g transform="translate(9.694 6.595)"><path class="j" d="M33.5,57.459l.035.034v-.859L33.5,56.6v.859Z" transform="translate(-33.5 -56.6)"/></g><g transform="translate(3.474 2.198)"><path class="j" d="M15.6,43.8l.035.034.1.069,6.08,3.469h.035Z" transform="translate(-15.6 -43.8)"/></g><g transform="translate(9.694 5.771)"><path class="j" d="M33.535,54.2H33.5v.824l.035.034Z" transform="translate(-33.5 -54.2)"/></g></g><g class="g" transform="translate(22.622 12.782)"><g transform="translate(0.382 5.427)"><path class="h" d="M66.2,53.344,66.825,53l.139.069-.625.343Z" transform="translate(-66.2 -53)"/></g><g transform="translate(0.382 5.771)"><path class="i" d="M66.2,55.168V54l.139.069v1.168Z" transform="translate(-66.2 -54)"/></g><g transform="translate(0.521 5.496)"><path class="j" d="M67.225,54.368l-.625.344V53.544l.625-.344Z" transform="translate(-66.6 -53.2)"/></g><g transform="translate(1.459 4.809)"><path class="h" d="M69.3,51.544l.591-.344.139.1-.591.344Z" transform="translate(-69.3 -51.2)"/></g><g transform="translate(1.459 5.153)"><path class="i" d="M69.3,53.368V52.2l.139.1v1.168Z" transform="translate(-69.3 -52.2)"/></g><g transform="translate(1.598 4.912)"><path class="j" d="M70.291,52.668l-.591.344V51.844l.591-.344Z" transform="translate(-69.7 -51.5)"/></g><g transform="translate(2.502 4.225)"><path class="h" d="M72.3,49.844l.591-.344.174.069-.625.344Z" transform="translate(-72.3 -49.5)"/></g><g transform="translate(2.502 4.569)"><path class="i" d="M72.3,51.668V50.5l.139.069v1.168Z" transform="translate(-72.3 -50.5)"/></g><g transform="translate(2.641 4.294)"><path class="j" d="M73.325,50.868l-.625.343V50.043l.625-.343Z" transform="translate(-72.7 -49.7)"/></g><g transform="translate(3.544 3.607)"><path class="h" d="M75.3,48.044l.625-.344.139.1-.591.344Z" transform="translate(-75.3 -47.7)"/></g><g transform="translate(3.544 3.95)"><path class="i" d="M75.3,49.868V48.7l.174.1v1.168Z" transform="translate(-75.3 -48.7)"/></g><g transform="translate(3.718 3.71)"><path class="j" d="M76.391,49.168l-.591.344V48.343L76.391,48Z" transform="translate(-75.8 -48)"/></g><g transform="translate(4.621 3.023)"><path class="h" d="M78.4,46.344,78.991,46l.139.069-.591.344Z" transform="translate(-78.4 -46)"/></g><g transform="translate(4.621 3.366)"><path class="i" d="M78.4,48.168V47l.139.069v1.168Z" transform="translate(-78.4 -47)"/></g><g transform="translate(4.76 3.092)"><path class="j" d="M79.391,47.368l-.591.343V46.544l.591-.344Z" transform="translate(-78.8 -46.2)"/></g><g transform="translate(0.382 3.023)"><path class="k" d="M66.2,53.344v1.168l.139.069.625-.343V53.069L66.825,53Z" transform="translate(-66.2 -50.595)"/><path class="k" d="M69.3,51.544v1.168l.139.1.591-.343V51.3l-.139-.1Z" transform="translate(-68.223 -49.414)"/><path class="k" d="M72.3,49.844v1.168l.139.069.625-.343V49.569l-.174-.069Z" transform="translate(-70.181 -48.298)"/><path class="k" d="M75.3,48.044v1.168l.174.1.591-.344V47.8l-.139-.1Z" transform="translate(-72.138 -47.116)"/><path class="k" d="M78.991,46l-.591.344v1.168l.139.069.591-.343V46.069Z" transform="translate(-74.161 -46)"/></g><g transform="translate(0 2.37)"><path class="j" d="M74.967,44.169,65.1,49.837l.174-.309,9.52-5.427Z" transform="translate(-65.1 -44.1)"/></g><path class="j" d="M65.1,42.833,74.967,37.2l-.174.275-.139.1-.139.069-2.71,1.546-.139.1-.174.069-6.219,3.572Z" transform="translate(-65.1 -37.2)"/><g transform="translate(9.694)"><path class="j" d="M93.174,37.2v2.439L93,39.57v-2.1Z" transform="translate(-93 -37.2)"/></g><g transform="translate(0 5.633)"><path class="j" d="M65.1,56.073V53.6l.174.1v2.061Z" transform="translate(-65.1 -53.6)"/></g><g transform="translate(0.174 2.267)"><path class="h" d="M75.12,43.9,65.6,49.33v-.172l6.393-3.641L74.981,43.8Z" transform="translate(-65.6 -43.8)"/></g><g transform="translate(9.555 0.275)"><path class="i" d="M92.739,38v2.1l-.139-.1V38.1Z" transform="translate(-92.6 -38)"/></g><g transform="translate(6.567 2.164)"><path class="j" d="M86.988,43.6,84,45.321l.174-.309L86.814,43.5Z" transform="translate(-84 -43.5)"/></g><g transform="translate(0.174 3.882)"><path class="j" d="M71.993,48.6,65.6,52.244v-.206L71.819,48.5Z" transform="translate(-65.6 -48.5)"/></g><g transform="translate(9.381 0.378)"><path class="j" d="M92.274,40.189l-.174-.1V38.4l.035-.034.139-.069Z" transform="translate(-92.1 -38.3)"/></g><g transform="translate(6.706 0.447)"><path class="j" d="M87.11,38.5l-.035.034-.208.137L84.435,40.08l-.035-.034Z" transform="translate(-84.4 -38.5)"/></g><g transform="translate(6.567 1.992)"><path class="j" d="M84.139,43l.035.034v1.649L84,44.992V43.1Z" transform="translate(-84 -43)"/></g><g transform="translate(6.393 2.954)"><path class="j" d="M83.674,45.8v1.031l-.174-.1V45.9Z" transform="translate(-83.5 -45.8)"/></g><g transform="translate(6.393 2.095)"><path class="j" d="M83.674,43.3v.859l-.174.1v-.893Z" transform="translate(-83.5 -43.3)"/></g><g transform="translate(6.74 2.027)"><path class="h" d="M87.141,43.237,84.5,44.749v-.24L86.932,43.1Z" transform="translate(-84.5 -43.1)"/></g><g transform="translate(6.74 0.618)"><path class="l" d="M86.932,40.408,84.5,41.817V40.408L86.932,39Z" transform="translate(-84.5 -39)"/></g><g transform="translate(9.172 0.481)"><path class="i" d="M91.708,40.283l-.208-.137V38.737l.208-.137Z" transform="translate(-91.5 -38.6)"/></g><g transform="translate(0.174 3.813)"><path class="h" d="M71.819,48.369,65.6,51.907v-.1l6.115-3.5Z" transform="translate(-65.6 -48.3)"/></g><g transform="translate(0.174 2.267)"><path class="j" d="M71.715,44.521V43.8L65.6,47.269v1.546l6.08-3.469v-.824Zm-5.142,2.508V48.2l-.591.344-.139-.069V47.3l.591-.344Zm1.042-.584v1.168l-.591.344-.139-.069V46.72l.591-.344Zm1.077-.618v1.168l-.591.344-.139-.069V46.1l.591-.344Zm1.042-.584v1.168l-.591.344L69,46.685V45.518l.591-.344Zm1.042-.618v1.168l-.591.344-.139-.069V44.9l.591-.344Z" transform="translate(-65.6 -43.8)"/></g><g transform="translate(6.289 2.988)"><path class="i" d="M83.2,46.724V45.9l.1.069v.824Z" transform="translate(-83.2 -45.9)"/></g><g transform="translate(6.289 2.198)"><path class="i" d="M83.2,44.39v-.721l.1-.069v.859Z" transform="translate(-83.2 -43.6)"/></g><g transform="translate(0.174 6.595)"><path class="j" d="M65.6,57.224V56.4h0v.824Z" transform="translate(-65.6 -56.4)"/></g><g transform="translate(0.174 2.164)"><path class="j" d="M71.819,43.5v.034l-.1.069L65.6,47.072h0Z" transform="translate(-65.6 -43.5)"/></g><g transform="translate(0.174 5.737)"><path class="j" d="M65.6,53.9h0v.859h0Z" transform="translate(-65.6 -53.9)"/></g></g></g><path class="n" d="M22.507,24.076l-3.926-2.233a3.373,3.373,0,0,0-1.633-.344h-.035a1.441,1.441,0,0,0-.382.034h-.1c-.139.034-.243.034-.382.069a.129.129,0,0,0-.1.034c-.1.034-.243.069-.347.1-.035,0-.069.034-.1.034l-.417.206-3.683,2.1H-.007v5.153a1,1,0,0,0,.591.927l.695.378h0l14.036,8a1.7,1.7,0,0,0,.243.1h0c.035,0,.035,0,.069.034.035,0,.035.034.069.034s.069.034.1.034c.069.034.139.034.208.069.035,0,.069.034.1.034h.069c.069,0,.174.034.243.034h.73a.6.6,0,0,0,.243-.034.445.445,0,0,0,.208-.034.65.65,0,0,0,.243-.069c.069,0,.1-.034.174-.034.1-.034.243-.069.347-.1h0c.174-.069.347-.137.486-.206l14.21-8.107c.591-.344.9-.79.869-1.2V24.076Z" transform="translate(0.011 -14.111)"/><path class="b" d="M33.693,11.233a.6.6,0,0,0,.139-.172.034.034,0,0,1,.035-.034l.1-.206h0c.035-.069.035-.137.069-.206h0v-.206h0a1.092,1.092,0,0,0-.591-.79L18.718,1.237a3.961,3.961,0,0,0-3.509.137L1,9.481A2.055,2.055,0,0,0,.3,10.1h0c-.035.069-.069.1-.069.172v.034c0,.034-.035.1-.035.137v.24a.2.2,0,0,0,.035.137v.034a.259.259,0,0,0,.069.137v.034c.035.034.069.1.1.137l.035.034c-.035.034.035.1.069.137l.035.034c.069.034.1.1.174.137l14.7,8.381a2.8,2.8,0,0,0,1.251.344h.486a4.543,4.543,0,0,0,1.807-.481l14.21-8.107a1.47,1.47,0,0,0,.243-.172l.035-.034a1.506,1.506,0,0,0,.243-.206C33.658,11.267,33.658,11.233,33.693,11.233Z" transform="translate(-0.127 -0.58)"/><path class="c" d="M.347,10.367A.6.6,0,0,1,.208,10.2a.034.034,0,0,0-.035-.034l-.1-.206h0C.035,9.886.035,9.817,0,9.749H0V9.542H0a1.092,1.092,0,0,1,.591-.79L15.322.337a3.961,3.961,0,0,1,3.509.137l14.21,8.107a2.055,2.055,0,0,1,.695.618h0c.035.069.069.1.069.172v.034c0,.034.035.1.035.137v.24a.2.2,0,0,1-.035.137v.034a.259.259,0,0,1-.069.137v.034c-.035.034-.069.1-.1.137L33.6,10.3l-.1.1-.035.034c-.069.034-.1.1-.174.137l-14.7,8.416a2.8,2.8,0,0,1-1.251.344h-.486a4.543,4.543,0,0,1-1.807-.481L.869,10.745a.623.623,0,0,1-.243-.172l-.035-.034a.623.623,0,0,1-.243-.172Z" transform="translate(0.004 0.011)"/><path class="o" d="M33.137,24.083l-6.879-3.916c-.417-.24-.382-.653.1-.927L33,15.461a1.833,1.833,0,0,1,1.633-.069l6.914,3.882c.417.24.382.653-.1.927L34.8,23.98A1.812,1.812,0,0,1,33.137,24.083Z" transform="translate(-16.943 -9.996)"/><path class="e" d="M46.663,29.053l-.938-.55c-.069-.034-.035-.1,0-.137l.9-.515a.3.3,0,0,1,.243,0l.938.55c.069.034.035.1,0,.137l-.9.515A.288.288,0,0,1,46.663,29.053Z" transform="translate(-29.808 -18.263)"/><path class="p" d="M26.264,20.1h0c.035,0,.069-.034.1-.069L33,16.254a1.833,1.833,0,0,1,1.633-.069L41.517,20.1c.382-.275.417-.653.035-.859l-6.879-3.95a1.833,1.833,0,0,0-1.633.069L26.4,19.14C25.882,19.449,25.847,19.861,26.264,20.1Z" transform="translate(-16.949 -9.93)"/><g class="g" transform="translate(1.949 12.851)"><g transform="translate(8.721 5.427)"><path class="h" d="M31.464,53.544l-.591-.344-.174.1.625.344Z" transform="translate(-30.7 -53.2)"/></g><g transform="translate(9.346 5.771)"><path class="i" d="M32.639,55.4V54.2l-.139.1v1.168Z" transform="translate(-32.5 -54.2)"/></g><g transform="translate(8.721 5.53)"><path class="j" d="M30.7,54.668l.625.344V53.844L30.7,53.5Z" transform="translate(-30.7 -53.5)"/></g><g transform="translate(7.678 4.843)"><path class="h" d="M28.464,51.844l-.625-.344-.139.069.591.344Z" transform="translate(-27.7 -51.5)"/></g><g transform="translate(8.269 5.187)"><path class="i" d="M29.574,53.668V52.5l-.174.069v1.168Z" transform="translate(-29.4 -52.5)"/></g><g transform="translate(7.678 4.912)"><path class="j" d="M27.7,52.868l.591.344V52.044L27.7,51.7Z" transform="translate(-27.7 -51.7)"/></g><g transform="translate(6.636 4.225)"><path class="h" d="M25.43,50.043l-.591-.343-.139.1.591.343Z" transform="translate(-24.7 -49.7)"/></g><g transform="translate(7.227 4.569)"><path class="i" d="M26.539,51.868V50.7l-.139.1v1.168Z" transform="translate(-26.4 -50.7)"/></g><g transform="translate(6.636 4.328)"><path class="j" d="M24.7,51.168l.591.344V50.344L24.7,50Z" transform="translate(-24.7 -50)"/></g><g transform="translate(5.559 3.641)"><path class="h" d="M22.364,48.343,21.739,48l-.139.069.625.344Z" transform="translate(-21.6 -48)"/></g><g transform="translate(6.184 3.985)"><path class="i" d="M23.539,50.168V49l-.139.069v1.168Z" transform="translate(-23.4 -49)"/></g><g transform="translate(5.559 3.71)"><path class="j" d="M21.6,49.368l.625.343V48.544L21.6,48.2Z" transform="translate(-21.6 -48.2)"/></g><g transform="translate(4.517 3.023)"><path class="h" d="M19.33,46.544l-.591-.344-.139.1.591.344Z" transform="translate(-18.6 -46.2)"/></g><g transform="translate(5.107 3.366)"><path class="i" d="M20.439,48.368V47.2l-.139.1v1.168Z" transform="translate(-20.3 -47.2)"/></g><g transform="translate(4.517 3.126)"><path class="j" d="M18.6,47.668l.591.344V46.843L18.6,46.5Z" transform="translate(-18.6 -46.5)"/></g><g transform="translate(4.517 3.023)"><path class="k" d="M31.464,53.544v1.2l-.139.069-.625-.344V53.3l.174-.1Z" transform="translate(-26.496 -50.795)"/><path class="k" d="M28.464,51.844v1.168l-.174.069-.591-.344V51.569l.139-.069Z" transform="translate(-24.538 -49.679)"/><path class="k" d="M25.43,50.043v1.168l-.139.1-.591-.343V49.8l.139-.1Z" transform="translate(-22.581 -48.498)"/><path class="k" d="M22.364,48.343v1.168l-.139.069-.625-.343V48.069L21.739,48Z" transform="translate(-20.558 -47.382)"/><path class="k" d="M18.739,46.2l.591.344v1.168l-.139.1-.591-.344V46.3Z" transform="translate(-18.6 -46.2)"/></g><g transform="translate(0 2.37)"><path class="j" d="M5.6,44.4l9.9,5.633-.174-.275L5.774,44.3Z" transform="translate(-5.6 -44.3)"/></g><path class="j" d="M15.5,43.068,5.6,37.4l.174.309.139.069.139.1,2.71,1.546.174.069.139.1,6.254,3.572Z" transform="translate(-5.6 -37.4)"/><path class="j" d="M5.6,37.4v2.473l.174-.1V37.709Z" transform="translate(-5.6 -37.4)"/><g transform="translate(9.728 5.668)"><path class="j" d="M33.774,56.339V53.9L33.6,54v2.061Z" transform="translate(-33.6 -53.9)"/></g><g transform="translate(0.174 2.301)"><path class="h" d="M6.1,44.169l9.555,5.462v-.172L9.262,45.818,6.239,44.1Z" transform="translate(-6.1 -44.1)"/></g><g transform="translate(0.174 0.309)"><path class="i" d="M6.1,38.3v2.061l.139-.069V38.369Z" transform="translate(-6.1 -38.3)"/></g><g transform="translate(0.313 2.198)"><path class="j" d="M6.5,43.9l3.023,1.718-.174-.309L6.674,43.8Z" transform="translate(-6.5 -43.8)"/></g><g transform="translate(3.335 3.916)"><path class="j" d="M15.2,48.9l6.393,3.641v-.172l-.035-.034L15.374,48.8Z" transform="translate(-15.2 -48.8)"/></g><g transform="translate(0.313 0.378)"><path class="j" d="M6.5,40.424l.174-.1V38.637L6.639,38.6,6.5,38.5Z" transform="translate(-6.5 -38.5)"/></g><g transform="translate(0.452 0.481)"><path class="j" d="M6.9,38.8l.035.034.243.137L9.61,40.346h0Z" transform="translate(-6.9 -38.8)"/></g><g transform="translate(3.162 2.027)"><path class="j" d="M14.7,43.3h0v1.683l.174.309V43.369Z" transform="translate(-14.7 -43.3)"/></g><g transform="translate(3.335 2.954)"><path class="j" d="M15.2,46v1.065l.174-.1V46.1Z" transform="translate(-15.2 -46)"/></g><g transform="translate(3.335 2.095)"><path class="j" d="M15.2,43.5v.859l.174.1v-.824l-.035-.034Z" transform="translate(-15.2 -43.5)"/></g><g transform="translate(0.486 2.061)"><path class="h" d="M7,43.537l2.675,1.511v-.275L7.243,43.4Z" transform="translate(-7 -43.4)"/></g><g transform="translate(0.73 0.653)"><path class="l" d="M7.7,40.708l2.432,1.374V40.674L7.7,39.3Z" transform="translate(-7.7 -39.3)"/></g><g transform="translate(0.486 0.515)"><path class="i" d="M7,40.583l.243-.137V39.037L7,38.9Z" transform="translate(-7 -38.9)"/></g><g transform="translate(3.509 3.847)"><path class="h" d="M15.7,48.669l6.184,3.538v-.137L15.8,48.6Z" transform="translate(-15.7 -48.6)"/></g><g transform="translate(3.613 2.301)"><path class="j" d="M16,44.821V44.1l6.08,3.469v1.546L16,45.646Zm5.107,2.508V48.5l.591.344.139-.069V47.6l-.591-.344Zm-1.042-.618v1.168l.591.344.139-.069V46.985l-.591-.344Zm-1.042-.584v1.168l.591.344.139-.069V46.4l-.591-.343Zm-1.077-.618v1.168l.591.344.139-.069V45.783l-.591-.344ZM16.9,44.924v1.168l.591.343.139-.069V45.2l-.591-.344Z" transform="translate(-16 -44.1)"/></g><g transform="translate(3.509 3.023)"><path class="i" d="M15.8,47.024V46.2l-.1.034v.859Z" transform="translate(-15.7 -46.2)"/></g><g transform="translate(3.509 2.233)"><path class="i" d="M15.8,44.69v-.721l-.1-.069v.824Z" transform="translate(-15.7 -43.9)"/></g><g transform="translate(9.694 6.595)"><path class="j" d="M33.5,57.459l.035.034v-.859L33.5,56.6v.859Z" transform="translate(-33.5 -56.6)"/></g><g transform="translate(3.474 2.198)"><path class="j" d="M15.6,43.8l.035.034.1.069,6.08,3.469h.035Z" transform="translate(-15.6 -43.8)"/></g><g transform="translate(9.694 5.771)"><path class="j" d="M33.535,54.2H33.5v.824l.035.034Z" transform="translate(-33.5 -54.2)"/></g></g><g class="g" transform="translate(22.622 12.782)"><g transform="translate(0.382 5.427)"><path class="h" d="M66.2,53.344,66.825,53l.139.069-.625.343Z" transform="translate(-66.2 -53)"/></g><g transform="translate(0.382 5.771)"><path class="i" d="M66.2,55.168V54l.139.069v1.168Z" transform="translate(-66.2 -54)"/></g><g transform="translate(0.521 5.496)"><path class="j" d="M67.225,54.368l-.625.344V53.544l.625-.344Z" transform="translate(-66.6 -53.2)"/></g><g transform="translate(1.459 4.809)"><path class="h" d="M69.3,51.544l.591-.344.139.1-.591.344Z" transform="translate(-69.3 -51.2)"/></g><g transform="translate(1.459 5.153)"><path class="i" d="M69.3,53.368V52.2l.139.1v1.168Z" transform="translate(-69.3 -52.2)"/></g><g transform="translate(1.598 4.912)"><path class="j" d="M70.291,52.668l-.591.344V51.844l.591-.344Z" transform="translate(-69.7 -51.5)"/></g><g transform="translate(2.502 4.225)"><path class="h" d="M72.3,49.844l.591-.344.174.069-.625.344Z" transform="translate(-72.3 -49.5)"/></g><g transform="translate(2.502 4.569)"><path class="i" d="M72.3,51.668V50.5l.139.069v1.168Z" transform="translate(-72.3 -50.5)"/></g><g transform="translate(2.641 4.294)"><path class="j" d="M73.325,50.868l-.625.343V50.043l.625-.343Z" transform="translate(-72.7 -49.7)"/></g><g transform="translate(3.544 3.607)"><path class="h" d="M75.3,48.044l.625-.344.139.1-.591.344Z" transform="translate(-75.3 -47.7)"/></g><g transform="translate(3.544 3.95)"><path class="i" d="M75.3,49.868V48.7l.174.1v1.168Z" transform="translate(-75.3 -48.7)"/></g><g transform="translate(3.718 3.71)"><path class="j" d="M76.391,49.168l-.591.344V48.343L76.391,48Z" transform="translate(-75.8 -48)"/></g><g transform="translate(4.621 3.023)"><path class="h" d="M78.4,46.344,78.991,46l.139.069-.591.344Z" transform="translate(-78.4 -46)"/></g><g transform="translate(4.621 3.366)"><path class="i" d="M78.4,48.168V47l.139.069v1.168Z" transform="translate(-78.4 -47)"/></g><g transform="translate(4.76 3.092)"><path class="j" d="M79.391,47.368l-.591.343V46.544l.591-.344Z" transform="translate(-78.8 -46.2)"/></g><g transform="translate(0.382 3.023)"><path class="k" d="M66.2,53.344v1.168l.139.069.625-.343V53.069L66.825,53Z" transform="translate(-66.2 -50.595)"/><path class="k" d="M69.3,51.544v1.168l.139.1.591-.343V51.3l-.139-.1Z" transform="translate(-68.223 -49.414)"/><path class="k" d="M72.3,49.844v1.168l.139.069.625-.343V49.569l-.174-.069Z" transform="translate(-70.181 -48.298)"/><path class="k" d="M75.3,48.044v1.168l.174.1.591-.344V47.8l-.139-.1Z" transform="translate(-72.138 -47.116)"/><path class="k" d="M78.991,46l-.591.344v1.168l.139.069.591-.343V46.069Z" transform="translate(-74.161 -46)"/></g><g transform="translate(0 2.37)"><path class="j" d="M74.967,44.169,65.1,49.837l.174-.309,9.52-5.427Z" transform="translate(-65.1 -44.1)"/></g><path class="j" d="M65.1,42.833,74.967,37.2l-.174.275-.139.1-.139.069-2.71,1.546-.139.1-.174.069-6.219,3.572Z" transform="translate(-65.1 -37.2)"/><g transform="translate(9.694)"><path class="j" d="M93.174,37.2v2.439L93,39.57v-2.1Z" transform="translate(-93 -37.2)"/></g><g transform="translate(0 5.633)"><path class="j" d="M65.1,56.073V53.6l.174.1v2.061Z" transform="translate(-65.1 -53.6)"/></g><g transform="translate(0.174 2.267)"><path class="h" d="M75.12,43.9,65.6,49.33v-.172l6.393-3.641L74.981,43.8Z" transform="translate(-65.6 -43.8)"/></g><g transform="translate(9.555 0.275)"><path class="i" d="M92.739,38v2.1l-.139-.1V38.1Z" transform="translate(-92.6 -38)"/></g><g transform="translate(6.567 2.164)"><path class="j" d="M86.988,43.6,84,45.321l.174-.309L86.814,43.5Z" transform="translate(-84 -43.5)"/></g><g transform="translate(0.174 3.882)"><path class="j" d="M71.993,48.6,65.6,52.244v-.206L71.819,48.5Z" transform="translate(-65.6 -48.5)"/></g><g transform="translate(9.381 0.378)"><path class="j" d="M92.274,40.189l-.174-.1V38.4l.035-.034.139-.069Z" transform="translate(-92.1 -38.3)"/></g><g transform="translate(6.706 0.447)"><path class="j" d="M87.11,38.5l-.035.034-.208.137L84.435,40.08l-.035-.034Z" transform="translate(-84.4 -38.5)"/></g><g transform="translate(6.567 1.992)"><path class="j" d="M84.139,43l.035.034v1.649L84,44.992V43.1Z" transform="translate(-84 -43)"/></g><g transform="translate(6.393 2.954)"><path class="j" d="M83.674,45.8v1.031l-.174-.1V45.9Z" transform="translate(-83.5 -45.8)"/></g><g transform="translate(6.393 2.095)"><path class="j" d="M83.674,43.3v.859l-.174.1v-.893Z" transform="translate(-83.5 -43.3)"/></g><g transform="translate(6.74 2.027)"><path class="h" d="M87.141,43.237,84.5,44.749v-.24L86.932,43.1Z" transform="translate(-84.5 -43.1)"/></g><g transform="translate(6.74 0.618)"><path class="l" d="M86.932,40.408,84.5,41.817V40.408L86.932,39Z" transform="translate(-84.5 -39)"/></g><g transform="translate(9.172 0.481)"><path class="i" d="M91.708,40.283l-.208-.137V38.737l.208-.137Z" transform="translate(-91.5 -38.6)"/></g><g transform="translate(0.174 3.813)"><path class="h" d="M71.819,48.369,65.6,51.907v-.1l6.115-3.5Z" transform="translate(-65.6 -48.3)"/></g><g transform="translate(0.174 2.267)"><path class="j" d="M71.715,44.521V43.8L65.6,47.269v1.546l6.08-3.469v-.824Zm-5.142,2.508V48.2l-.591.344-.139-.069V47.3l.591-.344Zm1.042-.584v1.168l-.591.344-.139-.069V46.72l.591-.344Zm1.077-.618v1.168l-.591.344-.139-.069V46.1l.591-.344Zm1.042-.584v1.168l-.591.344L69,46.685V45.518l.591-.344Zm1.042-.618v1.168l-.591.344-.139-.069V44.9l.591-.344Z" transform="translate(-65.6 -43.8)"/></g><g transform="translate(6.289 2.988)"><path class="i" d="M83.2,46.724V45.9l.1.069v.824Z" transform="translate(-83.2 -45.9)"/></g><g transform="translate(6.289 2.198)"><path class="i" d="M83.2,44.39v-.721l.1-.069v.859Z" transform="translate(-83.2 -43.6)"/></g><g transform="translate(0.174 6.595)"><path class="j" d="M65.6,57.224V56.4h0v.824Z" transform="translate(-65.6 -56.4)"/></g><g transform="translate(0.174 2.164)"><path class="j" d="M71.819,43.5v.034l-.1.069L65.6,47.072h0Z" transform="translate(-65.6 -43.5)"/></g><g transform="translate(0.174 5.737)"><path class="j" d="M65.6,53.9h0v.859h0Z" transform="translate(-65.6 -53.9)"/></g></g></g><g transform="translate(0 18)"><g transform="translate(1.019 8.206)"><path class="q" d="M12.928,0l2.956,1.666L14.1,2.67,11.144,1Z" transform="translate(-9.86 0.002)"/><path class="r" d="M16.983,21.03l1.274-4.5,1.776-.988-1.274,4.5Z" transform="translate(-14.033 -13.863)"/><path class="s" d="M2.955,6.167l1.274-4.5L1.274,0,0,4.5l1.374-.247Z" transform="translate(0 0.995)"/></g><g transform="translate(4.84 10.692)"><path class="q" d="M12.928,0l2.956,1.666L14.1,2.67,11.144,1Z" transform="translate(-11.134 0.002)"/><path class="t" d="M13.257,21.03l-1.274-4.5,1.776-.988,1.274,4.5Z" transform="translate(-9.033 -13.863)"/><path class="u" d="M-.771,6.167l-1.274-4.5L-5,0l1.377,5.146,1.249-.432Z" transform="translate(5 0.995)"/></g><g transform="translate(0 0)"><path class="v" d="M0,2.12,1.631,1.3,3.042.619h.006L4.2.06A.529.529,0,0,1,4.39,0a1.1,1.1,0,0,1,.867.443.582.582,0,0,0,.293.193l.4-.2a.662.662,0,0,1,.634.018,1.8,1.8,0,0,1,.774.856c.128.273.362.453.552.423a1.044,1.044,0,0,1,.867.4,2.115,2.115,0,0,1,.528,1.1.874.874,0,0,0,.443.647,1.747,1.747,0,0,1,.788.827,1.72,1.72,0,0,1,.177,1.124.87.87,0,0,0,.246.743,2.12,2.12,0,0,1,.554,1.087,1.024,1.024,0,0,1-.209.927.612.612,0,0,0,0,.692,1.781,1.781,0,0,1,.209,1.131.605.605,0,0,1-.554.546c-.2.009-.3.223-.246.5a1.079,1.079,0,0,1-.177.951.521.521,0,0,1-.152.112l-1.255.613a.51.51,0,0,0,.046-.025L7.6,13.9Z" transform="translate(1.153)"/><path class="w" d="M31.963,14.434a1.794,1.794,0,0,0-.775-.856.612.612,0,0,0-.775.1h0c-.128.149-.362.1-.552-.115h0a1.1,1.1,0,0,0-.867-.443.622.622,0,0,0-.528.583h0a.279.279,0,0,1-.443.215h0a.63.63,0,0,0-.788.057,1.08,1.08,0,0,0-.177.951h0c.055.281-.049.495-.246.5h0a.605.605,0,0,0-.553.546,1.78,1.78,0,0,0,.209,1.131h0a.611.611,0,0,1,0,.692h0a1.024,1.024,0,0,0-.209.927,2.113,2.113,0,0,0,.553,1.087h0a.871.871,0,0,1,.246.743h0a1.722,1.722,0,0,0,.177,1.124,1.746,1.746,0,0,0,.788.827h0a.874.874,0,0,1,.443.647h0a2.117,2.117,0,0,0,.528,1.1,1.046,1.046,0,0,0,.867.4h0c.19-.03.424.15.552.424h0a1.794,1.794,0,0,0,.775.856.612.612,0,0,0,.775-.1h0c.128-.149.362-.1.552.115h0a1.1,1.1,0,0,0,.867.443.622.622,0,0,0,.528-.583h0a.279.279,0,0,1,.443-.215h0a.63.63,0,0,0,.788-.057,1.08,1.08,0,0,0,.177-.951h0c-.055-.281.049-.495.245-.5h0a.605.605,0,0,0,.553-.546,1.781,1.781,0,0,0-.209-1.131h0a.611.611,0,0,1,0-.692h0a1.025,1.025,0,0,0,.209-.927,2.117,2.117,0,0,0-.553-1.087h0a.869.869,0,0,1-.245-.743h0a1.722,1.722,0,0,0-.177-1.124,1.744,1.744,0,0,0-.788-.827h0a.874.874,0,0,1-.443-.647h0a2.117,2.117,0,0,0-.528-1.1,1.047,1.047,0,0,0-.867-.4h0c-.19.029-.424-.15-.552-.424Z" transform="translate(-26.235 -11.757)"/></g></g></svg>