<svg xmlns="http://www.w3.org/2000/svg" xmlns:xlink="http://www.w3.org/1999/xlink" width="36" height="36" viewBox="0 0 36 36"><defs><style>.a,.i{fill:none;}.a{stroke:#707070;}.b{clip-path:url(#a);}.c{fill:url(#b);}.d{fill:url(#c);}.e{fill:url(#d);}.f{fill:url(#e);}.g{fill:url(#f);}.h{fill:url(#g);}.j{fill:#fff;}.k{fill:url(#h);}.l{opacity:0.3;}.m{fill:#a8b9d1;}.n{fill:#198cff;}.o{fill:url(#l);}</style><clipPath id="a"><rect class="a" width="36" height="36" transform="translate(441 877)"/></clipPath><linearGradient id="b" x1="-313.652" y1="33.827" x2="-313.606" y2="33.827" gradientUnits="objectBoundingBox"><stop offset="0" stop-color="#c2cddd"/><stop offset="1" stop-color="#607aab"/></linearGradient><linearGradient id="c" y1="0.501" x2="1" y2="0.501" gradientUnits="objectBoundingBox"><stop offset="0" stop-color="#fff"/><stop offset="1" stop-color="#b0bcd2"/></linearGradient><linearGradient id="d" x1="-731.033" y1="24.775" x2="-730.92" y2="24.775" xlink:href="#c"/><linearGradient id="e" x1="-1532.441" y1="29.819" x2="-1532.441" y2="29.886" xlink:href="#b"/><linearGradient id="f" x1="-725.441" y1="79.387" x2="-725.33" y2="79.387" xlink:href="#c"/><linearGradient id="g" x1="-723.798" y1="90.252" x2="-723.687" y2="90.252" xlink:href="#c"/><linearGradient id="h" x1="0.5" y1="-0.246" x2="0.5" y2="1.202" gradientUnits="objectBoundingBox"><stop offset="0" stop-color="#ef4424"/><stop offset="1" stop-color="#febe03"/></linearGradient><linearGradient id="l" x1="0.5" x2="0.5" y2="1" gradientUnits="objectBoundingBox"><stop offset="0" stop-color="#5c77ab"/><stop offset="1" stop-color="#eceff5"/></linearGradient></defs><g class="b" transform="translate(-441 -877)"><g transform="translate(436.5 877)"><g transform="translate(15.101 21.387)"><g transform="translate(0 0)"><g transform="translate(0 6.14)"><path class="c" d="M32.121,78.349l-.084-1.277-.218.266a3.5,3.5,0,0,0-1.308-1.264,8.6,8.6,0,0,0-7.85,0,3.5,3.5,0,0,0-1.308,1.264H21v1.012h0a2.8,2.8,0,0,0,1.61,2.276,8.6,8.6,0,0,0,7.85,0A2.762,2.762,0,0,0,32.121,78.349Z" transform="translate(-20.997 -74.101)"/><path class="d" d="M1.613,5.715A2.73,2.73,0,0,1,0,3.338,1.627,1.627,0,0,0,.021,3.5,1.931,1.931,0,0,1,0,3.237C0,1.449,2.481,0,5.539,0s5.535,1.449,5.535,3.237a1.932,1.932,0,0,1-.033.357.964.964,0,0,0,.033-.256A2.729,2.729,0,0,1,9.464,5.715a8.6,8.6,0,0,1-3.925.948A8.6,8.6,0,0,1,1.613,5.715Z"/></g><g transform="translate(4.784)"><g transform="translate(0)"><path class="e" d="M35.079,70.5h0v-6.98L30.6,61.6v5.26h0v1.72h0c0,.1.05.152.151.2l3.372,1.973a.907.907,0,0,0,.805-.051C34.978,70.653,35.079,70.6,35.079,70.5Z" transform="translate(-30.55 -61.277)"/><path class="f" d="M38.9,65.2v6.98h0c0,.1-.05.152-.2.253a.944.944,0,0,1-.4.1V65Z" transform="translate(-34.375 -62.957)"/><path class="g" d="M34.884,63l-3.372-1.973a.907.907,0,0,0-.805.051h0c-.252.152-.252.354-.05.455l3.372,1.973a.907.907,0,0,0,.805-.051h0C35.085,63.358,35.085,63.155,34.884,63Z" transform="translate(-30.506 -60.961)"/><path class="h" d="M34.023,63.975,30.651,62c-.1-.051-.151-.1-.151-.2q0,.076.151.152l3.372,2.023a1.131,1.131,0,0,0,.805-.1h0a.336.336,0,0,0,.2-.253.341.341,0,0,1-.2.3h0A.907.907,0,0,1,34.023,63.975Z" transform="translate(-30.5 -61.375)"/></g></g></g></g><rect class="i" width="35" height="35"/></g><g transform="translate(447.457 877.901)"><g transform="translate(0 0)"><path class="j" d="M465.87,134.224,488.062,146.7V126.724L465.87,114.243Z" transform="translate(-465.87 -113.557)"/><g transform="translate(2.206 7.767)"><path class="k" d="M5.1,17.9l1.333.77v9.56L5.1,27.46Z" transform="translate(-5.1 -15.436)"/><path class="k" d="M9,13.1l1.333.77V26.986L9,26.215Z" transform="translate(-7.074 -13.1)"/><path class="k" d="M13,28.363l1.333.77v7.724L13,36.087Z" transform="translate(-9.099 -21.807)"/><path class="k" d="M13.013,33.091l1.333.77-.013,5.088L13,38.179Z" transform="translate(-7.125 -22.803)"/></g><g class="l" transform="translate(12.349 20.717)"><path class="m" d="M465.87,115.254l7.724,4.444v-1.012l-7.724-4.444Z" transform="translate(-465.87 -114.243)"/><path class="m" d="M465.87,115.254l7.724,4.444v-1.012l-7.724-4.444Z" transform="translate(-465.87 -112.25)"/><path class="m" d="M465.87,115.254l7.724,4.444v-1.012l-7.724-4.444Z" transform="translate(-465.87 -110.257)"/></g><g transform="translate(12.349 12.506)"><g transform="translate(0 0)"><path class="n" d="M22.407,13.275a.229.229,0,0,1-.354.221.893.893,0,0,1-.354-.618.229.229,0,0,1,.354-.221A.76.76,0,0,1,22.407,13.275Z" transform="translate(-21.7 -12.623)"/><path class="n" d="M19.507,14.975a.229.229,0,0,1-.354.221.893.893,0,0,1-.354-.618.229.229,0,0,1,.354-.221A.811.811,0,0,1,19.507,14.975Z" transform="translate(-17.518 -13.573)"/></g><path class="n" d="M30.619,8.306l-2.21-1.279a.688.688,0,0,1-.309-.573h0c0-.221.133-.353.309-.221l2.21,1.279a.688.688,0,0,1,.309.573h0C30.928,8.306,30.8,8.395,30.619,8.306Z" transform="translate(-25.57 -4.605)"/></g><path class="o" d="M0,6.953l1.642-.685L23.654,19.017V38.208l-1.467,1.219-.249-19.414Z" transform="translate(0 -6.267)"/></g></g></g></svg>