<svg xmlns="http://www.w3.org/2000/svg" xmlns:xlink="http://www.w3.org/1999/xlink" width="36" height="36" viewBox="0 0 36 36"><defs><style>.a,.e,.f{fill:none;}.a{stroke:#707070;}.b{clip-path:url(#a);}.c,.d,.e,.f,.h{isolation:isolate;}.d{opacity:0.45;fill:url(#b);}.d,.e,.f{mix-blend-mode:soft-light;}.e,.f,.i{stroke:#fff;stroke-miterlimit:10;}.f,.i{stroke-linecap:round;}.g{opacity:0.699;fill:url(#c);}.h{opacity:0.238;}.i{fill:rgba(255,255,255,0);}.j{opacity:0.996;fill:url(#d);}.k{fill:url(#e);}.l{fill:url(#f);}</style><clipPath id="a"><rect class="a" width="36" height="36"/></clipPath><linearGradient id="b" x1="0.5" y1="0.002" x2="0.5" y2="1.001" gradientUnits="objectBoundingBox"><stop offset="0" stop-color="#f2f2f2"/><stop offset="0.707" stop-color="#fff"/><stop offset="0.97" stop-color="#fff"/><stop offset="1" stop-color="#f36c29"/></linearGradient><linearGradient id="c" x1="0.5" x2="0.5" y2="1" gradientUnits="objectBoundingBox"><stop offset="0" stop-color="#fff"/><stop offset="0.621" stop-color="#ffa83c"/><stop offset="1" stop-color="#f4702a"/></linearGradient><linearGradient id="d" x1="0.5" y1="1.163" x2="0.5" y2="-0.156" gradientUnits="objectBoundingBox"><stop offset="0" stop-color="#fff"/><stop offset="1" stop-color="#fcb45f"/></linearGradient><linearGradient id="e" x1="0.5" x2="0.5" y2="1" gradientUnits="objectBoundingBox"><stop offset="0" stop-color="#fbb03b"/><stop offset="1" stop-color="#f15a24"/></linearGradient><linearGradient id="f" x1="0.5" x2="0.5" y2="1" gradientUnits="objectBoundingBox"><stop offset="0" stop-color="#fefdfb"/><stop offset="0.714" stop-color="#f8a237"/><stop offset="0.847" stop-color="#f78c32"/><stop offset="1" stop-color="#f4702a"/></linearGradient></defs><g transform="translate(-257 -589)"><g class="b" transform="translate(257 589)"><g transform="translate(2.219 1.674)"><g class="c" transform="translate(0 0)"><path class="d" d="M16.369,25.032c9.527,0,15.936,2.635,15.936,5.1s-6.366,5.1-15.936,5.1S.433,32.59.433,30.128s6.409-5.1,15.936-5.1m0-.432C7.318,24.6,0,27.105,0,30.128s7.318,5.528,16.369,5.528,16.369-2.462,16.369-5.528S25.42,24.6,16.369,24.6Z" transform="translate(0 -14.062)"/><line class="e" y2="32.652" transform="translate(16.153)"/><path class="f" d="M23.136,32.92c-5.759,0-10.436-7.213-10.436-16.11S17.377.7,23.136.7" transform="translate(-7.2 -0.484)"/><path class="f" d="M12.7,32.92c5.891,0,10.675-7.213,10.675-16.11S18.591.7,12.7.7" transform="translate(3.669 -0.484)"/></g><path class="g" d="M16.369,0A16.326,16.326,0,1,1,0,16.326,16.348,16.348,0,0,1,16.369,0Z" transform="translate(0 0)"/><g class="h" transform="translate(5.5 0)"><line class="e" y2="32.652" transform="translate(10.653)"/><path class="i" d="M23.136,32.92c-5.759,0-10.436-7.213-10.436-16.11S17.377.7,23.136.7" transform="translate(-12.7 -0.484)"/></g></g><path class="j" d="M16.369,25.032c9.527,0,15.936,2.635,15.936,5.1s-6.366,5.1-15.936,5.1S.433,32.59.433,30.128s6.409-5.1,15.936-5.1m0-.432C7.318,24.6,0,27.105,0,30.128s7.318,5.528,16.369,5.528a47.2,47.2,0,0,0,5.386-.3c6.334-.72,10.983-2.78,10.983-5.224,0-3.067-7.318-5.528-16.369-5.528Z" transform="translate(2.219 -12.387)"/><g transform="translate(26.107 19)"><g transform="translate(0 0)"><g transform="translate(0 0)"><path class="k" d="M2.879,0A2.9,2.9,0,1,1,0,2.9,2.891,2.891,0,0,1,2.879,0Z" transform="translate(0 0)"/></g></g></g><g transform="translate(5.857 11.645)"><g transform="translate(0 0)"><g transform="translate(0 0)"><path class="l" d="M2.287,0A2.306,2.306,0,1,1,0,2.306,2.3,2.3,0,0,1,2.287,0Z" transform="translate(0 0)"/></g></g></g></g></g></svg>