<svg xmlns="http://www.w3.org/2000/svg" xmlns:xlink="http://www.w3.org/1999/xlink" width="36" height="36" viewBox="0 0 36 36"><defs><style>.a{fill:#fff;}.b{clip-path:url(#a);}.c{fill:url(#b);}.d{fill:url(#c);}.e{fill:url(#d);}.f{fill:none;}.g{fill:#f6812f;}.h{fill:url(#e);}</style><clipPath id="a"><rect class="a" width="36" height="36"/></clipPath><linearGradient id="b" x1="0.165" y1="-0.611" x2="0.35" y2="0.988" gradientUnits="objectBoundingBox"><stop offset="0" stop-color="#f2f2f2"/><stop offset="0.561" stop-color="#fbb03b"/><stop offset="1" stop-color="#f36c29"/></linearGradient><linearGradient id="c" x1="0.5" y1="1" x2="0.5" gradientUnits="objectBoundingBox"><stop offset="0" stop-color="#f2f2f2"/><stop offset="0.707" stop-color="#fbb03b"/><stop offset="1" stop-color="#f36c29"/></linearGradient><linearGradient id="d" x1="0.641" y1="0.15" x2="0" y2="0.689" gradientUnits="objectBoundingBox"><stop offset="0" stop-color="#f36f2a"/><stop offset="1" stop-color="#fcd24c"/></linearGradient><linearGradient id="e" x1="0.176" y1="0.211" x2="0.963" y2="1" gradientUnits="objectBoundingBox"><stop offset="0" stop-color="#fa9021"/><stop offset="1" stop-color="#fddb52"/></linearGradient></defs><g class="b"><g transform="translate(7.062)"><path class="c" d="M15.241,13.31,12.053,14.7l5.394,34.365,3.538-1.884.129-10.449,2.667,1.549L27.4,36.53Z" transform="translate(1.537 -13.31)"/><path class="d" d="M8.6,13.07-5.028,22.659l3.884,1.846L-1.4,38.258l15.367,9.2.16-14.273L20.295,36.7Z" transform="translate(5.028 -11.691)"/></g><path class="e" d="M465.977,115.547l7.868,4.748-.01-11.179A6.95,6.95,0,0,0,470,103.551c-3.82-2.169-4.126.965-4.126.965Z" transform="translate(-450.881 -86.302)"/><rect class="f" width="35.966" height="35.966"/><g transform="translate(0 16.516)"><path class="g" d="M28.979,46.963A3.4,3.4,0,0,0,27.717,45.7l-14.968-8.65a1.147,1.147,0,0,0-1.172,0l-.676.407h0a1.147,1.147,0,0,1,1.172,0L27.041,46.1a3.426,3.426,0,0,1,1.713,2.981v5.54a1.446,1.446,0,0,1-.738,1.084l.738-.383a1.077,1.077,0,0,0,.676-1.107v-5.54A3.361,3.361,0,0,0,28.979,46.963Z" transform="translate(-10.314 -36.387)"/><path class="g" d="M28.979,46.963A3.4,3.4,0,0,0,27.717,45.7l-14.968-8.65a1.147,1.147,0,0,0-1.172,0l-.676.407h0a1.147,1.147,0,0,1,1.172,0L27.041,46.1a3.426,3.426,0,0,1,1.713,2.981v6.04a1.446,1.446,0,0,1-.738,1.084l.738-.383a1.077,1.077,0,0,0,.676-1.107v-6.04A3.361,3.361,0,0,0,28.979,46.963Z" transform="translate(-10.314 -36.887)"/><path class="h" d="M25.027,47.421,10.058,38.748a1.147,1.147,0,0,0-1.172,0A1.178,1.178,0,0,0,8.3,39.764V45.8a3.481,3.481,0,0,0,1.713,2.981l14.968,8.65a1.147,1.147,0,0,0,1.172,0,1.178,1.178,0,0,0,.586-1.016v-6.04A3.416,3.416,0,0,0,25.027,47.421Z" transform="translate(-8.3 -38.203)"/><g transform="translate(1.513 2.965)"><path class="a" d="M1345.526,2357.132l-.71,3.373-.673-3.2-.588-.292-.688,2.321-.65-4.073-.684-.442.926,5.855.558.325.734-2.476.736,3.322.518.261,1.157-4.614Z" transform="translate(-1341.532 -2354.816)"/><path class="a" d="M1345.526,2357.132l-.71,3.373-.673-3.2-.588-.292-.688,2.321-.65-4.073-.684-.442.926,5.855.558.325.734-2.476.736,3.322.518.261,1.157-4.614Z" transform="translate(-1336.573 -2351.834)"/><path class="a" d="M1345.526,2357.132l-.71,3.373-.673-3.2-.588-.292-.688,2.321-.65-4.073-.684-.442.926,5.855.558.325.734-2.476.736,3.322.518.261,1.157-4.614Z" transform="translate(-1331.614 -2348.853)"/></g></g></g></svg>