<svg xmlns="http://www.w3.org/2000/svg" xmlns:xlink="http://www.w3.org/1999/xlink" width="36" height="36" viewBox="0 0 36 36"><defs><style>.a{fill:url(#a);}.b{fill:url(#b);}.c{fill:#f6812f;}.d{fill:#1d7acc;}.e{fill:#cbd3e1;}.f{fill:#1d7dcd;}.g{fill:#9eaeca;}.h{fill:none;}.i{fill:#ebeff4;}.j{fill:#d0d8e5;}.k{fill:url(#c);}.l{fill:#a2def3;stroke:rgba(0,0,0,0);stroke-miterlimit:10;}</style><linearGradient id="a" x1="0.397" y1="0.127" x2="1" y2="1" gradientUnits="objectBoundingBox"><stop offset="0" stop-color="#319bda"/><stop offset="1" stop-color="#c3e9f7"/></linearGradient><linearGradient id="b" x1="0.064" y1="0.035" x2="0.91" y2="1" gradientUnits="objectBoundingBox"><stop offset="0" stop-color="#0a5ec2"/><stop offset="0.448" stop-color="#279ed5"/><stop offset="1" stop-color="#8bd2f0"/></linearGradient><linearGradient id="c" x1="0.208" y1="-0.074" x2="1.4" y2="2.359" gradientUnits="objectBoundingBox"><stop offset="0" stop-color="#e1f4fb" stop-opacity="0"/><stop offset="1" stop-color="#e1f4fb"/></linearGradient></defs><g transform="translate(0 0)"><path class="a" d="M33.252,39.333a4.2,4.2,0,0,0-1.561-1.562L13.185,27.086a1.419,1.419,0,0,0-1.449,0l-.836.5h0a1.419,1.419,0,0,1,1.449,0L30.778,38.332a4.259,4.259,0,0,1,2.07,3.726L32.9,61.353a1.542,1.542,0,0,1-.655,1.338h0l.836-.5a1.454,1.454,0,0,0,.725-1.255V41.453A4.148,4.148,0,0,0,33.252,39.333Z" transform="translate(-10.175 -26.887)"/><path class="b" d="M28.98,39.5,10.474,28.786a1.419,1.419,0,0,0-1.449,0A1.454,1.454,0,0,0,8.3,30.041v19.48A4.3,4.3,0,0,0,10.418,53.2L28.924,63.888a1.419,1.419,0,0,0,1.449,0,1.454,1.454,0,0,0,.725-1.255V43.153A4.219,4.219,0,0,0,28.98,39.5Z" transform="translate(-8.3 -28.087)"/></g><g transform="translate(20.965)"><path class="c" d="M26.285,34.958a2.693,2.693,0,0,0-1-1L13.389,27.106c-.3-.179-.842.143-.537.322l11.893,6.851a2.711,2.711,0,0,1,1.361,2.361v8.747c0,.358.537.036.537-.322V36.317A2.655,2.655,0,0,0,26.285,34.958Z" transform="translate(-11.911 -26.676)"/><path class="d" d="M25.119,34.8a2.669,2.669,0,0,0-.993-.994l-11.772-6.8a.9.9,0,0,0-.922,0l-.532.319h0a.9.9,0,0,1,.922,0l11.772,6.8a2.691,2.691,0,0,1,1.347,2.343v8.679a.925.925,0,0,1-.461.8h0l.532-.319a.925.925,0,0,0,.461-.8V36.153A2.639,2.639,0,0,0,25.119,34.8Z" transform="translate(-10.439 -26.887)"/><path class="e" d="M21.455,35.528,9.683,28.714a.9.9,0,0,0-.922,0,.925.925,0,0,0-.461.8v8.679a2.735,2.735,0,0,0,1.347,2.343l11.772,6.8a.9.9,0,0,0,.922,0,.925.925,0,0,0,.461-.8V37.853A2.684,2.684,0,0,0,21.455,35.528Z" transform="translate(-8.3 -28.285)"/><path class="e" d="M-10169.463-13585.367v2.792l2.018-3.6Z" transform="translate(10171.134 13597.511)"/><path class="f" d="M-10164.25-13582.182l-.749,1.266-.827.318,1.054-1.881Z" transform="translate(10167.502 13595.52)"/><g transform="translate(2.496 4.406)"><path class="g" d="M465.87,115.4l8.79,5.071v-1.154l-8.79-5.071Z" transform="translate(-465.87 -114.243)"/><path class="g" d="M465.87,115.4l8.79,5.071v-1.154l-8.79-5.071Z" transform="translate(-465.87 -111.968)"/><path class="g" d="M465.87,115.375l4.757,2.71v-1.093l-4.757-2.75Z" transform="translate(-465.87 -109.694)"/></g></g><rect class="h" width="35.94" height="35.975" transform="translate(0)"/><g transform="translate(20.965 15.5)"><path class="c" d="M26.285,34.958a2.693,2.693,0,0,0-1-1L13.389,27.106c-.3-.179-.842.143-.537.322l11.893,6.851a2.711,2.711,0,0,1,1.361,2.361v8.747c0,.358.537.036.537-.322V36.317A2.655,2.655,0,0,0,26.285,34.958Z" transform="translate(-11.911 -26.676)"/><path class="d" d="M25.119,34.8a2.669,2.669,0,0,0-.993-.994l-11.772-6.8a.9.9,0,0,0-.922,0l-.532.319h0a.9.9,0,0,1,.922,0l11.772,6.8a2.691,2.691,0,0,1,1.347,2.343v8.679a.925.925,0,0,1-.461.8h0l.532-.319a.925.925,0,0,0,.461-.8V36.153A2.639,2.639,0,0,0,25.119,34.8Z" transform="translate(-10.439 -26.887)"/><path class="i" d="M21.455,35.528,9.683,28.714a.9.9,0,0,0-.922,0,.925.925,0,0,0-.461.8v8.679a2.735,2.735,0,0,0,1.347,2.343l11.772,6.8a.9.9,0,0,0,.922,0,.925.925,0,0,0,.461-.8V37.853A2.684,2.684,0,0,0,21.455,35.528Z" transform="translate(-8.3 -28.285)"/><path class="i" d="M-10169.463-13585.367v2.792l2.018-3.6Z" transform="translate(10171.134 13597.511)"/><path class="f" d="M-10164.25-13582.182l-.749,1.266-.827.318,1.054-1.881Z" transform="translate(10167.502 13595.52)"/><g transform="translate(2.496 4.406)"><path class="j" d="M465.87,115.4l8.79,5.071v-1.154l-8.79-5.071Z" transform="translate(-465.87 -114.243)"/><path class="j" d="M465.87,115.4l8.79,5.071v-1.154l-8.79-5.071Z" transform="translate(-465.87 -111.968)"/><path class="j" d="M465.87,115.375l4.757,2.71v-1.093l-4.757-2.75Z" transform="translate(-465.87 -109.694)"/></g></g><path class="k" d="M6.506,5A14.218,14.218,0,0,1,12.97,16.177c-.012,4.107-2.922,5.765-6.507,3.7A14.213,14.213,0,0,1,0,8.7C.011,4.595,2.925,2.936,6.506,5Z" transform="translate(4.5 5.426)"/><g transform="translate(8.042 13.346)"><path class="l" d="M0,6.6A2.675,2.675,0,0,1,.933,4.486a1.583,1.583,0,0,1,.739-.223,4.68,4.68,0,0,1-.618-.874h0A4.233,4.233,0,0,1,.5,1.424,1.428,1.428,0,0,1,1.054.132,1.287,1.287,0,0,1,2.4.272,4,4,0,0,1,3.745,1.761,4.229,4.229,0,0,1,4.3,3.727a1.427,1.427,0,0,1-.558,1.291l-.051.029A5.529,5.529,0,0,1,5.145,6.919a7.577,7.577,0,0,1,.724,3.129Z" transform="translate(0 0)"/></g></svg>