<svg xmlns="http://www.w3.org/2000/svg" xmlns:xlink="http://www.w3.org/1999/xlink" width="36" height="36" viewBox="0 0 36 36"><defs><style>.a{fill:url(#a);}.b{fill:url(#b);}.c{fill:url(#c);}.d{fill:url(#d);}.e{fill:url(#e);}.f{mix-blend-mode:soft-light;isolation:isolate;}.g{fill:#ececec;}.h{fill:#656565;}.i{fill:silver;}.j{fill:#8c8c8c;}.k{fill:#303030;}.l{fill:url(#f);}.m{fill:url(#g);}.n{opacity:0.49;}.o{fill:url(#h);}.p{fill:#fff;}.q{fill:url(#i);}.r{opacity:0.3;}.s{fill:#a8b9d1;}.t{fill:#198cff;}</style><linearGradient id="a" x1="-0.239" y1="0.5" x2="1.109" y2="0.5" gradientUnits="objectBoundingBox"><stop offset="0" stop-color="#fbb03b"/><stop offset="1" stop-color="#f15a24"/></linearGradient><linearGradient id="b" x1="-0.002" y1="0.5" x2="1" y2="0.5" gradientUnits="objectBoundingBox"><stop offset="0" stop-color="#eaf8fc"/><stop offset="1" stop-color="#e3f9ff"/></linearGradient><linearGradient id="c" y1="0.5" x2="1.002" y2="0.5" gradientUnits="objectBoundingBox"><stop offset="0" stop-color="#f2f2f2"/><stop offset="0.155" stop-color="#f2f1ee"/><stop offset="0.303" stop-color="#f3ece3"/><stop offset="0.449" stop-color="#f4e5cf"/><stop offset="0.593" stop-color="#f5dcb4"/><stop offset="0.736" stop-color="#f7cf91"/><stop offset="0.876" stop-color="#f9c067"/><stop offset="1" stop-color="#fbb03b"/><stop offset="1" stop-color="#999"/></linearGradient><linearGradient id="d" y1="0.499" x2="1" y2="0.499" gradientUnits="objectBoundingBox"><stop offset="0" stop-color="#f2f2f2"/><stop offset="1" stop-color="#fbb03b"/></linearGradient><linearGradient id="e" x1="-0.001" y1="0.501" x2="1.001" y2="0.501" xlink:href="#a"/><linearGradient id="f" x1="-0.04" y1="0.714" x2="1" y2="0.319" gradientUnits="objectBoundingBox"><stop offset="0" stop-color="#fff"/><stop offset="1" stop-color="#6980ae"/></linearGradient><linearGradient id="g" x1="0.723" y1="0.372" x2="0" y2="0.689" gradientUnits="objectBoundingBox"><stop offset="0" stop-color="#fff"/><stop offset="1" stop-color="#bec9da"/></linearGradient><linearGradient id="h" x1="0.914" y1="0.383" x2="-0.274" y2="0.756" gradientUnits="objectBoundingBox"><stop offset="0" stop-color="#fff"/><stop offset="0.436" stop-color="#fff" stop-opacity="0.867"/><stop offset="1" stop-color="#fff" stop-opacity="0.102"/></linearGradient><linearGradient id="i" x1="0.5" y1="-0.246" x2="0.5" y2="1.202" gradientUnits="objectBoundingBox"><stop offset="0" stop-color="#ef4424"/><stop offset="1" stop-color="#febe03"/></linearGradient></defs><g transform="translate(0 9.484)"><path class="a" d="M23.866,24.258,19.7,21.868a3.548,3.548,0,0,0-1.732-.368h-.037a1.514,1.514,0,0,0-.405.037h-.111c-.147.037-.258.037-.405.074a.135.135,0,0,0-.111.037c-.111.037-.258.074-.368.11-.037,0-.074.037-.111.037l-.442.221-3.905,2.243H-.007v5.516a1.068,1.068,0,0,0,.626.993l.737.4h0L16.24,39.739a1.8,1.8,0,0,0,.258.11h0c.037,0,.037,0,.074.037.037,0,.037.037.074.037s.074.037.111.037c.074.037.147.037.221.074.037,0,.074.037.111.037h.074c.074,0,.184.037.258.037h.774a.628.628,0,0,0,.258-.037.468.468,0,0,0,.221-.037.684.684,0,0,0,.258-.074c.074,0,.111-.037.184-.037.111-.037.258-.074.368-.11h0c.184-.074.368-.147.516-.221l15.068-8.678c.626-.368.958-.846.921-1.287V24.258Z" transform="translate(0.011 -13.59)"/><path class="b" d="M35.714,11.962a.646.646,0,0,0,.147-.184.036.036,0,0,1,.037-.037l.111-.221h0c.037-.074.037-.147.074-.221h0v-.221h0a1.168,1.168,0,0,0-.626-.846L19.836,1.261a4.165,4.165,0,0,0-3.721.147L1.047,10.086a2.186,2.186,0,0,0-.737.662h0c-.037.074-.074.11-.074.184v.037c0,.037-.037.11-.037.147v.257a.221.221,0,0,0,.037.147v.037a.279.279,0,0,0,.074.147v.037c.037.037.074.11.111.147l.037.037c-.037.037.037.11.074.147l.037.037c.074.037.111.11.184.147l15.584,8.972a2.949,2.949,0,0,0,1.326.368h.516a4.782,4.782,0,0,0,1.916-.515L35.162,12.4a1.559,1.559,0,0,0,.258-.184l.037-.037a1.6,1.6,0,0,0,.258-.221C35.677,12,35.677,11.962,35.714,11.962Z" transform="translate(-0.122 -0.559)"/><path class="c" d="M.368,11.1a.646.646,0,0,1-.147-.184.036.036,0,0,0-.037-.037l-.111-.221h0C.037,10.584.037,10.51,0,10.437H0v-.221H0A1.168,1.168,0,0,1,.626,9.37L16.247.361a4.165,4.165,0,0,1,3.721.147L35.035,9.186a2.186,2.186,0,0,1,.737.662h0c.037.074.074.11.074.184v.037c0,.037.037.11.037.147v.257a.221.221,0,0,1-.037.147v.037a.279.279,0,0,1-.074.147v.037c-.037.037-.074.11-.111.147l-.037.037-.111.11-.037.037c-.074.037-.111.11-.184.147L19.71,20.328a2.949,2.949,0,0,1-1.326.368h-.516a4.782,4.782,0,0,1-1.916-.515L.921,11.5a.661.661,0,0,1-.258-.184l-.037-.037A.661.661,0,0,1,.368,11.1Z" transform="translate(0.004 0.011)"/><g transform="translate(6.102 3.498)"><path class="d" d="M36.537,28.406,26.395,22.578c-.615-.358-.563-.971.154-1.38l9.783-5.624a2.679,2.679,0,0,1,2.407-.1l10.193,5.777c.615.358.563.971-.154,1.38L39,28.253A2.65,2.65,0,0,1,36.537,28.406Z" transform="translate(-25.969 -15.181)"/><path class="e" d="M26.4,22.529h0c.051,0,.1-.051.154-.1L36.336,16.8a2.679,2.679,0,0,1,2.407-.1l10.142,5.828c.563-.409.615-.971.051-1.278L38.8,15.371a2.679,2.679,0,0,0-2.407.1L26.6,21.1C25.836,21.557,25.785,22.171,26.4,22.529Z" transform="translate(-25.974 -15.132)"/></g><g class="f" transform="translate(2.244 13.677)"><g transform="translate(9.247 5.81)"><path class="g" d="M31.51,53.568l-.626-.368-.184.11.663.368Z" transform="translate(-30.7 -53.2)"/></g><g transform="translate(9.91 6.178)"><path class="h" d="M32.647,55.487V54.2l-.147.11v1.25Z" transform="translate(-32.5 -54.2)"/></g><g transform="translate(9.247 5.92)"><path class="i" d="M30.7,54.75l.663.368v-1.25L30.7,53.5Z" transform="translate(-30.7 -53.5)"/></g><g transform="translate(8.142 5.185)"><path class="g" d="M28.51,51.868l-.663-.368-.147.074.626.368Z" transform="translate(-27.7 -51.5)"/></g><g transform="translate(8.768 5.553)"><path class="h" d="M29.584,53.75V52.5l-.184.074v1.25Z" transform="translate(-29.4 -52.5)"/></g><g transform="translate(8.142 5.258)"><path class="i" d="M27.7,52.95l.626.368v-1.25L27.7,51.7Z" transform="translate(-27.7 -51.7)"/></g><g transform="translate(7.037 4.523)"><path class="g" d="M25.474,50.068l-.626-.368-.147.11.626.368Z" transform="translate(-24.7 -49.7)"/></g><g transform="translate(7.663 4.891)"><path class="h" d="M26.547,51.95V50.7l-.147.11v1.25Z" transform="translate(-26.4 -50.7)"/></g><g transform="translate(7.037 4.633)"><path class="i" d="M24.7,51.25l.626.368v-1.25L24.7,50Z" transform="translate(-24.7 -50)"/></g><g transform="translate(5.894 3.898)"><path class="g" d="M22.41,48.368,21.747,48l-.147.074.663.368Z" transform="translate(-21.6 -48)"/></g><g transform="translate(6.558 4.266)"><path class="h" d="M23.547,50.25V49l-.147.074v1.25Z" transform="translate(-23.4 -49)"/></g><g transform="translate(5.894 3.971)"><path class="i" d="M21.6,49.45l.663.368v-1.25L21.6,48.2Z" transform="translate(-21.6 -48.2)"/></g><g transform="translate(4.789 3.236)"><path class="g" d="M19.374,46.568l-.626-.368-.147.11.626.368Z" transform="translate(-18.6 -46.2)"/></g><g transform="translate(5.416 3.604)"><path class="h" d="M20.447,48.45V47.2l-.147.11v1.25Z" transform="translate(-20.3 -47.2)"/></g><g transform="translate(4.789 3.346)"><path class="i" d="M18.6,47.75l.626.368v-1.25L18.6,46.5Z" transform="translate(-18.6 -46.5)"/></g><g transform="translate(4.789 3.236)"><path class="j" d="M31.51,53.568v1.287l-.147.074-.663-.368V53.31l.184-.11Z" transform="translate(-26.242 -50.626)"/><path class="j" d="M28.51,51.868v1.25l-.184.074-.626-.368v-1.25l.147-.074Z" transform="translate(-24.348 -49.551)"/><path class="j" d="M25.474,50.068v1.25l-.147.11-.626-.368V49.81l.147-.11Z" transform="translate(-22.453 -48.413)"/><path class="j" d="M22.41,48.368v1.25l-.147.074-.663-.368v-1.25L21.747,48Z" transform="translate(-20.495 -47.338)"/><path class="j" d="M18.747,46.2l.626.368v1.25l-.147.11-.626-.368V46.31Z" transform="translate(-18.6 -46.2)"/></g><g transform="translate(0 2.537)"><path class="i" d="M5.6,44.41l10.5,6.031-.184-.294L5.784,44.3Z" transform="translate(-5.6 -44.3)"/></g><path class="i" d="M16.1,43.467,5.6,37.4l.184.331.147.074.147.11L8.952,39.57l.184.074.147.11,6.631,3.824Z" transform="translate(-5.6 -37.4)"/><path class="i" d="M5.6,37.4v2.648l.184-.11V37.731Z" transform="translate(-5.6 -37.4)"/><g transform="translate(10.315 6.067)"><path class="i" d="M33.784,56.511V53.9l-.184.11v2.206Z" transform="translate(-33.6 -53.9)"/></g><g transform="translate(0.184 2.464)"><path class="g" d="M6.1,44.174,16.231,50.02v-.184l-6.779-3.9L6.247,44.1Z" transform="translate(-6.1 -44.1)"/></g><g transform="translate(0.184 0.331)"><path class="h" d="M6.1,38.3v2.206l.147-.074V38.374Z" transform="translate(-6.1 -38.3)"/></g><g transform="translate(0.332 2.353)"><path class="i" d="M6.5,43.91l3.205,1.839-.184-.331L6.684,43.8Z" transform="translate(-6.5 -43.8)"/></g><g transform="translate(3.537 4.192)"><path class="i" d="M15.2,48.91l6.779,3.9v-.184l-.037-.037L15.384,48.8Z" transform="translate(-15.2 -48.8)"/></g><g transform="translate(0.332 0.404)"><path class="i" d="M6.5,40.559l.184-.11v-1.8l-.037-.037L6.5,38.5Z" transform="translate(-6.5 -38.5)"/></g><g transform="translate(0.479 0.515)"><path class="i" d="M6.9,38.8l.037.037.258.147,2.579,1.471h0Z" transform="translate(-6.9 -38.8)"/></g><g transform="translate(3.352 2.17)"><path class="i" d="M14.7,43.3h0v1.8l.184.331V43.374Z" transform="translate(-14.7 -43.3)"/></g><g transform="translate(3.537 3.162)"><path class="i" d="M15.2,46v1.14l.184-.11V46.11Z" transform="translate(-15.2 -46)"/></g><g transform="translate(3.537 2.243)"><path class="i" d="M15.2,43.5v.919l.184.11v-.883l-.037-.037Z" transform="translate(-15.2 -43.5)"/></g><g transform="translate(0.516 2.206)"><path class="g" d="M7,43.547l2.837,1.618v-.294L7.258,43.4Z" transform="translate(-7 -43.4)"/></g><g transform="translate(0.774 0.699)"><path class="k" d="M7.7,40.808l2.579,1.471V40.771L7.7,39.3Z" transform="translate(-7.7 -39.3)"/></g><g transform="translate(0.516 0.552)"><path class="h" d="M7,40.7l.258-.147V39.047L7,38.9Z" transform="translate(-7 -38.9)"/></g><g transform="translate(3.721 4.118)"><path class="g" d="M15.7,48.674l6.558,3.788v-.147L15.811,48.6Z" transform="translate(-15.7 -48.6)"/></g><g transform="translate(3.831 2.464)"><path class="i" d="M16,44.872V44.1l6.447,3.714v1.655L16,45.755Zm5.416,2.684v1.25l.626.368.147-.074v-1.25l-.626-.368Zm-1.105-.662v1.25l.626.368.147-.074v-1.25l-.626-.368Zm-1.105-.625v1.25l.626.368.147-.074v-1.25l-.626-.368Zm-1.142-.662v1.25l.626.368.147-.074V45.9l-.626-.368Zm-1.105-.625v1.25l.626.368.147-.074v-1.25l-.626-.368Z" transform="translate(-16 -44.1)"/></g><g transform="translate(3.721 3.236)"><path class="h" d="M15.811,47.083V46.2l-.111.037v.919Z" transform="translate(-15.7 -46.2)"/></g><g transform="translate(3.721 2.39)"><path class="h" d="M15.811,44.746v-.772L15.7,43.9v.883Z" transform="translate(-15.7 -43.9)"/></g><g transform="translate(10.279 7.06)"><path class="i" d="M33.5,57.519l.037.037v-.919L33.5,56.6v.919Z" transform="translate(-33.5 -56.6)"/></g><g transform="translate(3.684 2.353)"><path class="i" d="M15.6,43.8l.037.037.111.074,6.447,3.714h.037Z" transform="translate(-15.6 -43.8)"/></g><g transform="translate(10.279 6.178)"><path class="i" d="M33.537,54.2H33.5v.883l.037.037Z" transform="translate(-33.5 -54.2)"/></g></g><g class="f" transform="translate(24.165 13.603)"><g transform="translate(0.405 5.81)"><path class="g" d="M66.2,53.368,66.863,53l.147.074-.663.368Z" transform="translate(-66.2 -53)"/></g><g transform="translate(0.405 6.178)"><path class="h" d="M66.2,55.25V54l.147.074v1.25Z" transform="translate(-66.2 -54)"/></g><g transform="translate(0.553 5.884)"><path class="i" d="M67.263,54.45l-.663.368v-1.25l.663-.368Z" transform="translate(-66.6 -53.2)"/></g><g transform="translate(1.547 5.148)"><path class="g" d="M69.3,51.568l.626-.368.147.11-.626.368Z" transform="translate(-69.3 -51.2)"/></g><g transform="translate(1.547 5.516)"><path class="h" d="M69.3,53.45V52.2l.147.11v1.25Z" transform="translate(-69.3 -52.2)"/></g><g transform="translate(1.695 5.258)"><path class="i" d="M70.326,52.75l-.626.368v-1.25l.626-.368Z" transform="translate(-69.7 -51.5)"/></g><g transform="translate(2.653 4.523)"><path class="g" d="M72.3,49.868l.626-.368.184.074-.663.368Z" transform="translate(-72.3 -49.5)"/></g><g transform="translate(2.653 4.891)"><path class="h" d="M72.3,51.75V50.5l.147.074v1.25Z" transform="translate(-72.3 -50.5)"/></g><g transform="translate(2.8 4.596)"><path class="i" d="M73.363,50.95l-.663.368v-1.25l.663-.368Z" transform="translate(-72.7 -49.7)"/></g><g transform="translate(3.758 3.861)"><path class="g" d="M75.3,48.068l.663-.368.147.11-.626.368Z" transform="translate(-75.3 -47.7)"/></g><g transform="translate(3.758 4.229)"><path class="h" d="M75.3,49.95V48.7l.184.11v1.25Z" transform="translate(-75.3 -48.7)"/></g><g transform="translate(3.942 3.971)"><path class="i" d="M76.426,49.25l-.626.368v-1.25L76.426,48Z" transform="translate(-75.8 -48)"/></g><g transform="translate(4.9 3.236)"><path class="g" d="M78.4,46.368,79.026,46l.147.074-.626.368Z" transform="translate(-78.4 -46)"/></g><g transform="translate(4.9 3.604)"><path class="h" d="M78.4,48.25V47l.147.074v1.25Z" transform="translate(-78.4 -47)"/></g><g transform="translate(5.047 3.309)"><path class="i" d="M79.426,47.45l-.626.368v-1.25l.626-.368Z" transform="translate(-78.8 -46.2)"/></g><g transform="translate(0.405 3.236)"><path class="j" d="M66.2,53.368v1.25l.147.074.663-.368v-1.25L66.863,53Z" transform="translate(-66.2 -50.426)"/><path class="j" d="M69.3,51.568v1.25l.147.11.626-.368V51.31l-.147-.11Z" transform="translate(-68.158 -49.288)"/><path class="j" d="M72.3,49.868v1.25l.147.074.663-.368v-1.25l-.184-.074Z" transform="translate(-70.053 -48.213)"/><path class="j" d="M75.3,48.068v1.25l.184.11.626-.368V47.81l-.147-.11Z" transform="translate(-71.948 -47.075)"/><path class="j" d="M79.026,46l-.626.368v1.25l.147.074.626-.368v-1.25Z" transform="translate(-73.905 -46)"/></g><g transform="translate(0 2.537)"><path class="i" d="M75.563,44.174,65.1,50.241l.184-.331L75.379,44.1Z" transform="translate(-65.1 -44.1)"/></g><path class="i" d="M65.1,43.231,75.563,37.2l-.184.294-.147.11-.147.074L72.21,39.333l-.147.11-.184.074-6.594,3.824Z" transform="translate(-65.1 -37.2)"/><g transform="translate(10.279)"><path class="i" d="M93.184,37.2v2.611L93,39.737V37.494Z" transform="translate(-93 -37.2)"/></g><g transform="translate(0 6.031)"><path class="i" d="M65.1,56.248V53.6l.184.11v2.206Z" transform="translate(-65.1 -53.6)"/></g><g transform="translate(0.184 2.427)"><path class="g" d="M75.694,43.91,65.6,49.72v-.184l6.779-3.9L75.547,43.8Z" transform="translate(-65.6 -43.8)"/></g><g transform="translate(10.131 0.294)"><path class="h" d="M92.747,38v2.243l-.147-.11V38.11Z" transform="translate(-92.6 -38)"/></g><g transform="translate(6.963 2.317)"><path class="i" d="M87.168,43.61,84,45.449l.184-.331,2.8-1.618Z" transform="translate(-84 -43.5)"/></g><g transform="translate(0.184 4.155)"><path class="i" d="M72.379,48.61l-6.779,3.9v-.221L72.194,48.5Z" transform="translate(-65.6 -48.5)"/></g><g transform="translate(9.947 0.404)"><path class="i" d="M92.284,40.322l-.184-.11v-1.8l.037-.037.147-.074Z" transform="translate(-92.1 -38.3)"/></g><g transform="translate(7.11 0.478)"><path class="i" d="M87.274,38.5l-.037.037-.221.147-2.579,1.508-.037-.037Z" transform="translate(-84.4 -38.5)"/></g><g transform="translate(6.963 2.133)"><path class="i" d="M84.147,43l.037.037V44.8L84,45.133V43.11Z" transform="translate(-84 -43)"/></g><g transform="translate(6.779 3.162)"><path class="i" d="M83.684,45.8v1.1l-.184-.11V45.91Z" transform="translate(-83.5 -45.8)"/></g><g transform="translate(6.779 2.243)"><path class="i" d="M83.684,43.3v.919l-.184.11v-.956Z" transform="translate(-83.5 -43.3)"/></g><g transform="translate(7.147 2.17)"><path class="g" d="M87.3,43.247l-2.8,1.618v-.257L87.079,43.1Z" transform="translate(-84.5 -43.1)"/></g><g transform="translate(7.147 0.662)"><path class="k" d="M87.079,40.508,84.5,42.015V40.508L87.079,39Z" transform="translate(-84.5 -39)"/></g><g transform="translate(9.726 0.515)"><path class="h" d="M91.721,40.4l-.221-.147V38.747l.221-.147Z" transform="translate(-91.5 -38.6)"/></g><g transform="translate(0.184 4.082)"><path class="g" d="M72.194,48.374,65.6,52.161v-.11L72.084,48.3Z" transform="translate(-65.6 -48.3)"/></g><g transform="translate(0.184 2.427)"><path class="i" d="M72.084,44.572V43.8L65.6,47.514v1.655l6.447-3.714v-.883Zm-5.452,2.684v1.25l-.626.368-.147-.074v-1.25l.626-.368Zm1.105-.625v1.25l-.626.368-.147-.074v-1.25l.626-.368Zm1.142-.662v1.25l-.626.368-.147-.074v-1.25l.626-.368Zm1.105-.625v1.25l-.626.368-.147-.074v-1.25l.626-.368Zm1.105-.662v1.25l-.626.368-.147-.074v-1.25l.626-.368Z" transform="translate(-65.6 -43.8)"/></g><g transform="translate(6.668 3.199)"><path class="h" d="M83.2,46.783V45.9l.111.074v.883Z" transform="translate(-83.2 -45.9)"/></g><g transform="translate(6.668 2.353)"><path class="h" d="M83.2,44.446v-.772l.111-.074v.919Z" transform="translate(-83.2 -43.6)"/></g><g transform="translate(0.184 7.06)"><path class="i" d="M65.6,57.283V56.4h0v.883Z" transform="translate(-65.6 -56.4)"/></g><g transform="translate(0.184 2.317)"><path class="i" d="M72.194,43.5v.037l-.111.074L65.6,47.324h0Z" transform="translate(-65.6 -43.5)"/></g><g transform="translate(0.184 6.141)"><path class="i" d="M65.6,53.9h0v.919h0Z" transform="translate(-65.6 -53.9)"/></g></g></g><g transform="translate(7 0)"><g transform="translate(0 0)"><g transform="translate(6.999)"><path class="l" d="M464.444,126.9,475.7,134l.584-.288V121.053l-11.837-6.811-.59.288Z" transform="translate(-463.854 -114.243)"/><path class="m" d="M465.87,126.9l11.837,6.811V121.053l-11.837-6.811Z" transform="translate(-465.865 -113.95)"/></g><g class="n" transform="translate(4.158 2.12)"><path class="o" d="M465.87,126.71l11.787,6.782V121.024l-11.787-6.782Z" transform="translate(-465.87 -114.243)"/></g><path class="p" d="M465.87,126.71l11.787,6.782V121.024l-11.787-6.782Z" transform="translate(-465.87 -110.047)"/><g transform="translate(1.377 8.614)"><path class="q" d="M5.1,17.9l.832.481v2.691L5.1,20.591Z" transform="translate(-5.1 -16.362)"/><path class="q" d="M9,13.1l.832.481v5L9,18.1Z" transform="translate(-7.798 -13.1)"/><path class="q" d="M13,16.7l.832.481V21.73L13,21.249Z" transform="translate(-10.566 -15.547)"/></g><g class="r" transform="translate(5.613 15.489)"><path class="s" d="M465.87,114.874l4.82,2.773v-.631l-4.82-2.773Z" transform="translate(-465.87 -114.243)"/><path class="s" d="M465.87,114.874l4.82,2.773v-.631l-4.82-2.773Z" transform="translate(-465.87 -112.999)"/><path class="s" d="M465.87,114.874l4.82,2.773v-.631l-4.82-2.773Z" transform="translate(-465.87 -111.755)"/></g><g transform="translate(6.475 12.624)"><g transform="translate(0 0)"><path class="t" d="M22.141,13.03a.143.143,0,0,1-.221.138.557.557,0,0,1-.221-.385.143.143,0,0,1,.221-.138A.474.474,0,0,1,22.141,13.03Z" transform="translate(-21.7 -12.623)"/><path class="t" d="M19.241,14.73a.143.143,0,0,1-.221.138.557.557,0,0,1-.221-.385.143.143,0,0,1,.221-.138A.506.506,0,0,1,19.241,14.73Z" transform="translate(-18 -13.855)"/></g><path class="t" d="M29.672,7.507l-1.379-.8a.429.429,0,0,1-.193-.358h0c0-.138.083-.22.193-.138l1.379.8a.429.429,0,0,1,.193.358h0C29.865,7.507,29.782,7.562,29.672,7.507Z" transform="translate(-26.521 -5.197)"/></g></g></g></svg>