<svg xmlns="http://www.w3.org/2000/svg" xmlns:xlink="http://www.w3.org/1999/xlink" width="170" height="150" viewBox="0 0 170 150"><defs><style>.a{fill:url(#a);}.b{fill:#fff;}.c{fill:url(#b);}.d{fill:url(#c);}.e{fill:url(#d);}.f{fill:#2f8fd6;}.g{fill:url(#e);}.h{fill:url(#f);}.i{fill:url(#g);}.j{fill:url(#h);}.k{fill:red;opacity:0;}</style><linearGradient id="a" x1="0.5" x2="0.5" y2="1" gradientUnits="objectBoundingBox"><stop offset="0" stop-color="#0071bc"/><stop offset="0.239" stop-color="#0d80c4"/><stop offset="0.704" stop-color="#32aadc"/><stop offset="1" stop-color="#4cc8ed"/></linearGradient><linearGradient id="b" x1="0.5" x2="0.5" y2="1" gradientUnits="objectBoundingBox"><stop offset="0" stop-color="#e2f9ff"/><stop offset="1" stop-color="#c9f4ff"/></linearGradient><linearGradient id="c" x1="1.323" y1="0.659" x2="-0.222" y2="0.413" gradientUnits="objectBoundingBox"><stop offset="0" stop-color="#399bcf"/><stop offset="1" stop-color="#e8f7ff"/></linearGradient><linearGradient id="d" y1="0.793" x2="1" y2="0.201" gradientUnits="objectBoundingBox"><stop offset="0" stop-color="#3186c2"/><stop offset="1" stop-color="#c9e9ff"/></linearGradient><linearGradient id="e" x1="0.5" x2="0.5" y2="1" gradientUnits="objectBoundingBox"><stop offset="0" stop-color="#eaf8fc"/><stop offset="0.377" stop-color="#def6fc"/><stop offset="1" stop-color="#9be9ff"/></linearGradient><linearGradient id="f" x1="0.5" x2="0.5" y2="1" gradientUnits="objectBoundingBox"><stop offset="0" stop-color="#eaf8fc"/><stop offset="1" stop-color="#e3f9ff"/></linearGradient><linearGradient id="g" x1="0.5" x2="0.5" y2="1" gradientUnits="objectBoundingBox"><stop offset="0" stop-color="#ffc200"/><stop offset="0.029" stop-color="#fec001" stop-opacity="0.961"/><stop offset="0.309" stop-color="#fcb00b" stop-opacity="0.627"/><stop offset="0.555" stop-color="#f9a313" stop-opacity="0.357"/><stop offset="0.759" stop-color="#f89a19" stop-opacity="0.165"/><stop offset="0.913" stop-color="#f7951c" stop-opacity="0.043"/><stop offset="1" stop-color="#f7931e" stop-opacity="0"/></linearGradient><linearGradient id="h" x1="0.5" y1="1" x2="0.5" y2="0" xlink:href="#g"/></defs><g transform="translate(-491 -2023)"><g transform="translate(-311.615 755)"><g transform="translate(-370 -542)"><g transform="translate(1200 1831)"><path class="a" d="M237.406,487.847a24,24,0,0,1-24,24h-69a27.007,27.007,0,0,1-8.962-52.482c-.019-.507-.038-1.013-.038-1.518a30,30,0,0,1,56.006-14.963,17.991,17.991,0,0,1,27.994,14.963,18.105,18.105,0,0,1-1.2,6.486A24,24,0,0,1,237.406,487.847Z" transform="translate(-117.406 -427.847)"/></g><g transform="translate(1244 1854)"><path class="b" d="M34.208,26.767a2.938,2.938,0,0,0,2.178-.906,3,3,0,0,0,.906-2.2,2.924,2.924,0,0,0-.906-2.174,2.981,2.981,0,0,0-2.2-.909,3.042,3.042,0,0,0-1.182.228l2.444.777L32.7,20.962a3.291,3.291,0,0,0-.684.529c-.019.02-.036.041-.054.059l3.368.729-3.576-.493a3.2,3.2,0,0,0-.405.662l3.906.531-4.011-.249a2.927,2.927,0,0,0-.127.7l4.091.252-4.1.044a3.386,3.386,0,0,0,.088.707l4.021-.046-3.932.332a2.819,2.819,0,0,0,.344.682l3.637-.314-3.451.561c.063.073.128.146.2.215a3.081,3.081,0,0,0,.494.405l2.854-.482L32.8,26.44A3.074,3.074,0,0,0,34.208,26.767Z" transform="translate(-5.292 -4.802)"/><path class="b" d="M34.208,26.767a2.938,2.938,0,0,0,2.178-.906,3,3,0,0,0,.906-2.2,2.924,2.924,0,0,0-.906-2.174,2.981,2.981,0,0,0-2.2-.909,3.042,3.042,0,0,0-1.182.228l2.444.777L32.7,20.962a3.291,3.291,0,0,0-.684.529c-.019.02-.036.041-.054.059l3.368.729-3.576-.493a3.2,3.2,0,0,0-.405.662l3.906.531-4.011-.249a2.927,2.927,0,0,0-.127.7l4.091.252-4.1.044a3.386,3.386,0,0,0,.088.707l4.021-.046-3.932.332a2.819,2.819,0,0,0,.344.682l3.637-.314-3.451.561c.063.073.128.146.2.215a3.081,3.081,0,0,0,.494.405l2.854-.482L32.8,26.44A3.074,3.074,0,0,0,34.208,26.767Z" transform="translate(-5.292 -4.802)"/><path class="b" d="M4.893,13.929l2.092,8.144a11.4,11.4,0,0,0,1.007,1.159L5.216,12.425A11.421,11.421,0,0,0,4.893,13.929Zm.4-1.759L9.233,24.3a10.09,10.09,0,0,0,.919.611L5.675,11.135A10.349,10.349,0,0,0,5.292,12.17Zm4.544,4.209L6.581,9.457c-.15.229-.293.463-.425.706l7.576,16.1c.269.052.541.093.813.123l-3.263-6.934A6.017,6.017,0,0,1,9.836,16.379Zm2.9,4.269,3.19,5.8c.257,0,.511-.018.764-.036l-2.9-5.28A5.955,5.955,0,0,1,12.74,20.647Zm3.022.825A5.906,5.906,0,0,1,15,21.42l3.044,4.8c.237-.048.471-.108.7-.173l-2.9-4.573C15.816,21.472,15.79,21.472,15.763,21.472Zm4.222-1.745L23.4,23.365c.163-.158.324-.319.479-.489l-3.433-3.659A6.215,6.215,0,0,1,19.984,19.728Zm6.755-4.537L11.346,5.419c-.248.111-.489.228-.728.353L16.55,9.535a6.009,6.009,0,0,1,4.253,2.7L26.733,16q.012-.26.012-.524C26.745,15.38,26.741,15.284,26.739,15.191ZM9.93,14.11l-2.8-5.09,2.928,4.616a6.007,6.007,0,0,1,.315-.783l-2.665-4.2,2.828,3.893a6.041,6.041,0,0,1,.4-.618L8.265,8.25,11.116,11.7a6.065,6.065,0,0,1,.468-.512L8.793,7.814,11.787,11a6.358,6.358,0,0,1,.538-.424L9.3,7.344l3.268,3.069a6.017,6.017,0,0,1,.629-.349L9.763,6.845l3.73,3.086a5.552,5.552,0,0,1,.768-.256L10.2,6.317l4.492,3.264a5.819,5.819,0,0,1,1.03-.1L10.616,5.772A11.049,11.049,0,0,0,6.584,9.449l3.188,5.8A5.985,5.985,0,0,1,9.93,14.11ZM4.783,15.475A11.008,11.008,0,0,0,5.847,20.2L4.809,14.753C4.8,14.992,4.783,15.231,4.783,15.475Zm.939-4.444,5.764,14.56c.282.12.572.225.865.321L6.132,10.2C5.983,10.471,5.847,10.749,5.722,11.031ZM23.9,8.094,14.891,4.529a10.907,10.907,0,0,0-1.376.193L24.752,9.171A11.08,11.08,0,0,0,23.9,8.094ZM26.44,12.9,12.212,5.083c-.281.1-.563.2-.834.321l15.239,8.38C26.568,13.487,26.511,13.192,26.44,12.9Zm-.868-2.363L13.312,4.77c-.344.078-.681.174-1.01.282L26,11.5C25.871,11.17,25.731,10.853,25.572,10.54Zm-9.81-6.049c-.1,0-.2,0-.3.008l7,2.274A10.921,10.921,0,0,0,15.763,4.491ZM21.64,16.67l4.1,3.4c.1-.219.192-.438.278-.662l-4.271-3.536A6.1,6.1,0,0,1,21.64,16.67Zm-.619,1.689,3.7,3.473c.136-.188.265-.382.387-.579l-3.776-3.547A7.066,7.066,0,0,1,21.021,18.359Zm.685-3.681,4.721,3.428c.06-.241.11-.489.154-.735l-5.1-3.71A6.062,6.062,0,0,1,21.705,14.677Zm-3.1,6.075,3.213,3.882c.19-.127.378-.26.561-.4l-3.186-3.852A6,6,0,0,1,18.607,20.752Zm-1.668.6L20.022,25.6c.216-.09.427-.189.635-.292l-3.01-4.14A6.314,6.314,0,0,1,16.939,21.355Z" transform="translate(-4.783 -4.491)"/><path class="b" d="M21.978,15.328l4.984,10.9V24.577l-4.984-10.9Zm0-4.4,4.984,12.917v-1.9L21.978,9.025Zm4.156-6.439.828,3.633V4.491ZM15.983,37.38a11.12,11.12,0,0,0,2.789-.36l-2.789-.313Zm5.995-11.942,3.887,4.9-3.887-4.325v.38c0,.2-.012.409-.031.608l3.408,3.8-3.461-3.414a5.992,5.992,0,0,1-.184.781l3.163,3.119-3.255-2.843a6.509,6.509,0,0,1-.287.66l3.094,2.7-3.213-2.479a5.809,5.809,0,0,1-.372.579L24,32.34l-3.3-2.247a5.9,5.9,0,0,1-.458.518l3.38,2.3-3.564-2.117a6.374,6.374,0,0,1-.566.461L23.266,33.5,19.24,31.425a6.066,6.066,0,0,1-.721.4l4.432,2.279-4.811-2.117a6.234,6.234,0,0,1-1.032.3l5.569,2.452-6.365-2.354c-.109.007-.22.011-.33.011v.6l6.363,2.353a11.024,11.024,0,0,0,4.045-5.45l-4.413-5.557Zm0-20.947V4.9l4.984,15.683V18.316L22.567,4.491Zm2.135,0,2.849,11.29V12.976l-2.14-8.485Zm-8.13,30.764,4.632,1.1c.316-.148.623-.309.924-.485L15.983,34.55Zm0-1.111,5.607,1.692c.256-.149.506-.314.749-.488l-6.357-1.921Zm0,2.193L19.2,36.9a10.873,10.873,0,0,0,1.262-.475l-4.483-.781ZM21.978,18.7l4.884,9.167a11.26,11.26,0,0,0,.1-1.28l-4.98-9.347Zm0,2.687L26.649,29c.08-.326.144-.657.194-.993l-4.865-7.933Zm0,2.2,4.413,6.308c.093-.278.176-.557.247-.844l-4.66-6.657Z" transform="translate(-5 -4.491)"/></g><g transform="translate(477 468.918)"><path class="c" d="M-1518.244,1611.43l-40.772,21.631,41.039,24.579,40.929-24.595Z" transform="translate(2301.029 -188.348)"/><path class="d" d="M-1559,1669.024l40.992,24.893.106-17.8-41.1-24.607Z" transform="translate(2301 -206.862)"/><path class="e" d="M-1518.252,1668.358l-41.019,25.585.132-17.851,40.887-24.581Z" transform="translate(2342.21 -206.862)"/><path class="f" d="M1.455,0c.805,0,1.46.874,1.461,1.949s-.65,1.946-1.455,1.944S0,3.02,0,1.945.65,0,1.455,0Z" transform="matrix(0.966, -0.259, 0.259, 0.966, 746.876, 1457.052)"/><path class="f" d="M1.178.042,14.485-.005a1.162,1.162,0,0,1,1.17,1.165,1.182,1.182,0,0,1-1.178,1.173L1.17,2.381A1.162,1.162,0,0,1,0,1.215,1.182,1.182,0,0,1,1.178.042Z" transform="translate(753.516 1459.439) rotate(30)"/><path class="g" d="M-1530.009,1611.43l-29.038,15.012,29.229,16.915,29.128-16.915Z" transform="translate(2312.672 -181.902)"/><path class="h" d="M-1530.009,1611.43l-29.038,15.012,29.229,16.915,29.128-16.915Z" transform="translate(2312.672 -183.902)"/></g></g><g transform="translate(-367 -536.604)"><path class="i" d="M7.37,3.071,3.685,0,0,3.071H1.842V17.736H5.834V3.071Z" transform="matrix(0.695, -0.719, 0.719, 0.695, 1204.129, 1828.387)"/><path class="j" d="M7.37,14.666,3.685,17.736,0,14.666H1.842V0H5.834V14.666Z" transform="matrix(-0.695, -0.719, 0.719, -0.695, 1286.009, 1840.708)"/><path class="i" d="M7.37,3.071,3.685,0,0,3.071H1.842V17.736H5.834V3.071Z" transform="translate(1246.513 1809.714) rotate(-2)"/><path class="i" d="M7.37,3.071,3.685,0,0,3.071H1.842V17.736H5.834V3.071Z" transform="translate(1181.615 1869.714) rotate(-75)"/><path class="j" d="M7.37,14.666,3.685,17.736,0,14.666H1.842V0H5.834V14.666Z" transform="translate(1304.149 1874.305) rotate(-105)"/></g></g><rect class="k" width="170" height="150" transform="translate(491 2023)"/></g></svg>