<svg xmlns="http://www.w3.org/2000/svg" xmlns:xlink="http://www.w3.org/1999/xlink" width="36.456" height="36.43" viewBox="0 0 36.456 36.43"><defs><style>.a{fill:url(#a);}.b,.c,.d,.j{fill:none;stroke-miterlimit:10;}.b,.c{stroke:#98abcf;opacity:0.2;}.b,.d,.j{stroke-linecap:round;}.d{stroke:#b2e2f6;}.d,.j{opacity:0.5;}.e,.g{fill-rule:evenodd;}.e,.f{fill:url(#b);}.g{fill:url(#j);}.h{mix-blend-mode:color-burn;}.h,.j{isolation:isolate;}.i{fill:#258fd5;}.j{stroke:#197fcc;mix-blend-mode:screen;}</style><linearGradient id="a" x1="0.5" x2="0.5" y2="1" gradientUnits="objectBoundingBox"><stop offset="0" stop-color="#fff"/><stop offset="0.423" stop-color="#ebeff4"/><stop offset="0.774" stop-color="#66bfe6"/><stop offset="1" stop-color="#0c62c3"/></linearGradient><linearGradient id="b" x1="0.5" x2="0.5" y2="1" gradientUnits="objectBoundingBox"><stop offset="0" stop-color="#42bde7"/><stop offset="1" stop-color="#0f6bc5"/></linearGradient><linearGradient id="j" x1="0.5" x2="0.5" y2="1" gradientUnits="objectBoundingBox"><stop offset="0" stop-color="#fff"/><stop offset="0.657" stop-color="#41bbe7"/><stop offset="1" stop-color="#0f6bc6"/></linearGradient></defs><g transform="translate(0.213 0.168)"><ellipse class="a" cx="18" cy="17.953" rx="18" ry="17.953"/><path class="b" d="M24.176,36.13C17.843,36.13,12.7,28.2,12.7,18.415S17.843.7,24.176.7" transform="translate(-6.652 -0.368)"/><path class="b" d="M38.3,36.13c6.333,0,11.476-7.931,11.476-17.715S44.633.7,38.3.7" transform="translate(-20.062 -0.368)"/><line class="c" y2="35.905" transform="translate(17.762 0.095)"/><path class="d" d="M6.059,35.456C2.715,35.456,0,27.519,0,17.728S2.715,0,6.059,0" transform="translate(35.742 12.41) rotate(90)"/><g transform="translate(8 7)"><g transform="translate(0 0)"><path class="e" d="M9.72,4.9l3.452-2,1.954.411-3.452,2Z" transform="translate(-9.72 1.36)"/><path class="f" d="M1.821,4.128h0L0,2,3.452,0,5.288,2.144l1.028.1L2.864,4.23Z" transform="translate(3.305)"/><g transform="translate(6.787 0.338)"><path class="e" d="M4.63,2.228,8.1.23,8.17.289l.088.044.088.044L8.42.421,8.508.48l.073.044L8.67.568l.088.044.073.059.088.044.088.044L9.081.8l.088.059.073.044L9.331.95l.088.044.073.059L9.58,1.1l.073.044.088.044.088.059.073.044.088.044.088.044.073.059.088.044.073.044.088.044.088.059.073.044.088.044.073.044-3.452,2L7.2,3.711l-.088-.044-.088-.059-.073-.044-.088-.044-.088-.044L6.7,3.418l-.088-.044L6.54,3.33l-.088-.044-.088-.059L6.29,3.183,6.2,3.139l-.073-.044L6.04,3.036l-.088-.044-.073-.044L5.79,2.9,5.7,2.845,5.629,2.8l-.088-.044-.073-.044-.088-.059L5.291,2.61l-.073-.044-.088-.044-.088-.044-.073-.059L4.88,2.375l-.073-.044-.088-.044Z" transform="translate(-4.63 -0.23)"/><path class="f" d="M.632,4.613,4.084,2.63,5.127,3.717l1.821-.03-3.467,2-1.821.03ZM0,2,3.452,0l.631,2.629L.632,4.613Z" transform="translate(2.644 1.528)"/><path class="e" d="M.98,5.778l3.467-2,.059.1.059.1.059.088.059.1.059.1.059.1.059.1.044.1.059.1.059.088.059.1.059.1.059.1.059.1.059.1.059.1.059.1.059.088.059.1.059.1.059.1.059.1.059.1.059.1.059.1.059.088.059.1.059.1.059.1.059.1.059.1.059.1L2.846,8.995l-.059-.088-.059-.1-.059-.1-.059-.1-.044-.1-.059-.1-.059-.1-.059-.1L2.331,8.1,2.273,8l-.059-.1-.059-.1-.059-.1-.059-.1-.059-.1L1.92,7.394l-.059-.1-.059-.1-.059-.1-.059-.1-.059-.1-.059-.1-.059-.1L1.45,6.586l-.059-.1-.059-.1-.059-.1-.059-.1-.059-.1-.059-.1-.059-.1Z" transform="translate(5.146 1.435)"/><path class="f" d="M.441,4.994,3.893,3,5.847,4.847l-3.452,2ZM0,3.555.94,1.983,4.407,0l-.94,1.557L3.893,3l-3.452,2Z" transform="translate(7.051 8.447)"/><path class="e" d="M2.394,11.278l3.452-2v3.055L3.7,13.569l.69,1.954-3.452,2L0,14.877l.426-.955L2.38,12.791C2.394,12.291,2.394,11.792,2.394,11.278Z" transform="translate(7.051 4.014)"/><path class="e" d="M4.832,14.738l3.452-2-.632,1.895-3.452,2Z" transform="translate(-1.556 5.637)"/></g><path class="g" d="M4.73,11.966,4.3,10.526,2.35,8.676V5.62L4.3,6.031l.426-.955L3.79,2.432c.617-.353,1.249-.72,1.866-1.072L7.477,3.49l1.043.1L9.137,1.7c.881.514,1.763,1.014,2.644,1.528l.632,2.615,1.028,1.1,1.822-.029c.632,1.072,1.249,2.145,1.866,3.217l-.94,1.572.441,1.44,1.954,1.851v3.055l-1.954-.411-.426.955.94,2.644c-.617.353-1.249.72-1.866,1.072l-1.822-2.145-1.043-.1L11.8,21.955c-.881-.514-1.763-1.014-2.644-1.528L8.52,17.813l-1.043-1.1-1.822.029c-.617-1.072-1.249-2.159-1.866-3.232l.94-1.542Z" transform="translate(-2.35 0.638)"/></g><g class="h" transform="translate(4.319 7.562)"><g transform="translate(3.979 3.113)"><path class="i" d="M493.635,319.2l-.743-.429-.031,1.912-.678-.391.03-1.913-2.469-1.425.01-.627,2.441-3.113.777.448-.068,4.365.744.429Zm-3.152-2.571,1.742,1.006.036-2.346q.008-.55.042-1.087l-.024-.014c-.17.316-.306.543-.458.782l-1.337,1.638v.022" transform="translate(-489.744 -313.215)"/></g><path class="i" d="M465.554,293.212a3.43,3.43,0,0,1,1.595,2.981c-.021,1.3-.748,1.933-1.891,2.713l-.433.273v.02l2.388,1.379-.013.789-3.392-1.958.01-.584.575-.4c1.383-.923,2.011-1.476,2.035-2.53a2.154,2.154,0,0,0-1.033-1.981,1.14,1.14,0,0,0-1.137-.056l-.219-.8A1.547,1.547,0,0,1,465.554,293.212Z" transform="translate(-463.806 -292.923)"/></g></g><path class="j" d="M0,35.456c3.344,0,6.059-7.937,6.059-17.728S3.344,0,0,0" transform="translate(35.742 18.846) rotate(90)"/></g></svg>