<svg xmlns="http://www.w3.org/2000/svg" xmlns:xlink="http://www.w3.org/1999/xlink" width="170" height="150" viewBox="0 0 170 150"><defs><style>.a{fill:url(#a);}.b{fill:url(#b);}.c{fill:url(#c);}.d{fill:url(#d);}.e{fill:#2f8fd6;}.f{fill:none;stroke:#fff;stroke-linecap:round;opacity:0.1;}.g{fill:#ecb204;opacity:0.936;}.h,.i{fill:#dea805;}.h{opacity:0.2;}.i{opacity:0.3;}.j{fill:red;opacity:0;}</style><linearGradient id="a" x1="0.5" x2="0.5" y2="1" gradientUnits="objectBoundingBox"><stop offset="0" stop-color="#0071bc"/><stop offset="0.239" stop-color="#0d80c4"/><stop offset="0.704" stop-color="#32aadc"/><stop offset="1" stop-color="#4cc8ed"/></linearGradient><linearGradient id="b" x1="0.28" y1="0.853" x2="0.019" y2="-1.144" gradientUnits="objectBoundingBox"><stop offset="0" stop-color="#bee9ff"/><stop offset="1" stop-color="#3ac6ff"/></linearGradient><linearGradient id="c" x1="0.28" y1="0.853" x2="0.019" y2="-1.144" gradientUnits="objectBoundingBox"><stop offset="0" stop-color="#dcf3ff"/><stop offset="1" stop-color="#3ac6ff"/></linearGradient><linearGradient id="d" x1="0.28" y1="0.853" x2="0.019" y2="-1.144" gradientUnits="objectBoundingBox"><stop offset="0" stop-color="#eef9ff"/><stop offset="1" stop-color="#3ac6ff"/></linearGradient></defs><g transform="translate(-104 -2025)"><g transform="translate(-101 755)"><g transform="translate(-370 -542)"><path class="a" d="M237.406,487.847a24,24,0,0,1-24,24h-69a27.007,27.007,0,0,1-8.962-52.482c-.019-.507-.038-1.013-.038-1.518a30,30,0,0,1,56.006-14.963,17.991,17.991,0,0,1,27.994,14.963,18.105,18.105,0,0,1-1.2,6.486A24,24,0,0,1,237.406,487.847Z" transform="translate(482.594 1403.152)"/><g transform="translate(637.199 1872.4)"><rect class="b" width="84.8" height="23.768" rx="2" transform="matrix(-1, 0, 0, -1, 84.8, 77.6)"/><rect class="c" width="84.8" height="23.768" rx="2" transform="matrix(-1, 0, 0, -1, 84.8, 50.684)"/><rect class="d" width="84.8" height="23.768" rx="2" transform="matrix(-1, 0, 0, -1, 84.8, 23.768)"/><circle class="e" cx="2.584" cy="2.584" r="2.584" transform="translate(10.335 9.301)"/><circle class="e" cx="2.584" cy="2.584" r="2.584" transform="translate(10.335 36.217)"/><circle class="e" cx="2.584" cy="2.584" r="2.584" transform="translate(10.335 63.132)"/><rect class="e" width="20.668" height="3.1" rx="1.5" transform="translate(21.378 10.334)"/><rect class="e" width="20.668" height="3.1" rx="1.5" transform="translate(21.378 37.25)"/><rect class="e" width="20.668" height="3.1" rx="1.5" transform="translate(21.378 64.166)"/></g></g><path class="f" d="M-16646.469-18227.143l48.754,35.889" transform="translate(16868 19530)"/><path class="f" d="M-16560.113-18244.934l-38.107,53.416" transform="translate(16878.338 19531.084)"/><path class="f" d="M-16538.445-18221.965l-68.492,27.324" transform="translate(16889.725 19545.211)"/><path class="f" d="M-16618.115-18173.988l30.395-35.082" transform="translate(16859 19557.688)"/><circle class="g" cx="2.5" cy="2.5" r="2.5" transform="translate(317 1282)"/><circle class="g" cx="2" cy="2" r="2" transform="translate(218 1300)"/><circle class="h" cx="1.5" cy="1.5" r="1.5" transform="translate(351 1321)"/><circle class="h" cx="1.5" cy="1.5" r="1.5" transform="translate(239 1383)"/><g transform="translate(-370 -542)"><path class="f" d="M-16628.752-18192.059l47.771-14.152" transform="translate(17226 20089)"/><circle class="g" cx="2" cy="2" r="2" transform="translate(594 1895)"/></g><path class="f" d="M-16628.752-18194.8l43.076-15.268" transform="translate(-17937.063 17920.369) rotate(90)"/><circle class="i" cx="1.612" cy="1.612" r="1.612" transform="translate(259.305 1289) rotate(90)"/></g><rect class="j" width="170" height="150" transform="translate(104 2025)"/></g></svg>