<svg xmlns="http://www.w3.org/2000/svg" xmlns:xlink="http://www.w3.org/1999/xlink" width="36" height="36" viewBox="0 0 36 36"><defs><style>.a,.e{fill:none;}.a{stroke:#707070;}.b{clip-path:url(#a);}.c{fill:url(#b);}.d{fill:#fff;}.e{stroke:#fff;stroke-linecap:round;stroke-width:1.5px;}.f{filter:url(#d);}</style><clipPath id="a"><rect class="a" width="36" height="36" transform="translate(1168 768)"/></clipPath><linearGradient id="b" x1="0.059" y1="0.044" x2="0.816" y2="0.946" gradientUnits="objectBoundingBox"><stop offset="0" stop-color="#fbb03b"/><stop offset="1" stop-color="#f15a24"/></linearGradient><filter id="d" x="2.258" y="5.693" width="27.434" height="33.436" filterUnits="userSpaceOnUse"><feOffset dy="3" input="SourceAlpha"/><feGaussianBlur stdDeviation="2.5" result="e"/><feFlood flood-color="#ff4500" flood-opacity="0.502"/><feComposite operator="in" in2="e"/><feComposite in="SourceGraphic"/></filter></defs><g class="b" transform="translate(-1168 -768)"><g transform="translate(1173.927 769.25)"><g transform="translate(0 0)"><path class="c" d="M7.557.119A20.544,20.544,0,0,1-3.1,0L-5.906,2.392S-2.538,12.9-1.372,16.476a40.784,40.784,0,0,0,3.882,8.386,43.693,43.693,0,0,0,4.959,6.727c1.008.059,1.284,1.734,3.319.687a18.909,18.909,0,0,0,5.62-5.646,18.664,18.664,0,0,0,1.768-8.653l.02-5.689A69.683,69.683,0,0,1,7.557.119Z" transform="translate(5.951 0)"/><path class="d" d="M10.676.119A20.544,20.544,0,0,1,.019,0L0,5.689A34.468,34.468,0,0,0,1.747,16.476a40.784,40.784,0,0,0,3.882,8.386,43.693,43.693,0,0,0,4.959,6.727,10.143,10.143,0,0,0,5.1-1.047,9.075,9.075,0,0,0,3.842-3.912,18.664,18.664,0,0,0,1.768-8.653l.02-5.689A69.683,69.683,0,0,1,10.676.119Z" transform="translate(0.001 2.359)"/><g class="f" transform="matrix(1, 0, 0, 1, -5.93, -1.25)"><path class="c" d="M6.227.069A11.984,11.984,0,0,1,.01,0L0,3.319a20.106,20.106,0,0,0,1.02,6.292A23.791,23.791,0,0,0,3.283,14.5a25.488,25.488,0,0,0,2.892,3.924,5.917,5.917,0,0,0,2.973-.611,5.294,5.294,0,0,0,2.241-2.282,10.887,10.887,0,0,0,1.031-5.047l.012-3.319A40.649,40.649,0,0,1,6.227.069Z" transform="translate(9.76 10.19)"/></g></g><path class="e" d="M1198.965,829.064l2.349,6.243,1.779-3.735" transform="translate(-1191.575 -813.983)"/></g></g></svg>