<svg xmlns="http://www.w3.org/2000/svg" xmlns:xlink="http://www.w3.org/1999/xlink" width="36" height="36" viewBox="0 0 36 36"><defs><style>.a{fill:url(#a);}.b,.d{opacity:0.5;}.b,.d,.j{isolation:isolate;}.b{fill:url(#b);}.c{fill:url(#c);}.d{fill:url(#d);}.e,.g{fill-rule:evenodd;}.e,.f{fill:url(#e);}.g{fill:url(#m);}.h{fill:#f26827;}.i{fill:url(#n);}.j{mix-blend-mode:soft-light;}.k{fill:#ececec;}.l{fill:#656565;}.m{fill:silver;}.n{fill:#8c8c8c;}.o{fill:#303030;}.p{fill:none;}</style><linearGradient id="a" x1="-0.002" y1="0.5" x2="1.003" y2="0.5" gradientUnits="objectBoundingBox"><stop offset="0" stop-color="#fff"/><stop offset="0.506" stop-color="#fff"/><stop offset="0.762" stop-color="#f1f4f7"/><stop offset="1" stop-color="#ccd5e2"/><stop offset="1" stop-color="#999"/></linearGradient><linearGradient id="b" x1="-17.592" y1="70.813" x2="-17.556" y2="70.813" gradientUnits="objectBoundingBox"><stop offset="0" stop-color="#f4f6f9"/><stop offset="1" stop-color="#bec9da"/></linearGradient><linearGradient id="c" x1="-135.733" y1="558.813" x2="-135.468" y2="558.813" gradientUnits="objectBoundingBox"><stop offset="0" stop-color="#eaf8fc"/><stop offset="1" stop-color="#fff"/></linearGradient><linearGradient id="d" x1="-17.619" y1="130.153" x2="-17.583" y2="130.153" gradientUnits="objectBoundingBox"><stop offset="0" stop-color="#bec9da"/><stop offset="1" stop-color="#617bac"/></linearGradient><linearGradient id="e" x1="0.5" x2="0.5" y2="1" gradientUnits="objectBoundingBox"><stop offset="0" stop-color="#fbb03b"/><stop offset="1" stop-color="#f15a24"/></linearGradient><linearGradient id="m" x1="0.5" x2="0.5" y2="1" gradientUnits="objectBoundingBox"><stop offset="0" stop-color="#f2f2f2"/><stop offset="0.707" stop-color="#fbb03b"/><stop offset="1" stop-color="#f36c29"/></linearGradient><linearGradient id="n" x1="-7.941" y1="42.219" x2="-7.918" y2="42.219" gradientUnits="objectBoundingBox"><stop offset="0" stop-color="#fff"/><stop offset="1" stop-color="#b0bcd2"/></linearGradient></defs><g transform="translate(-3570 -796)"><g transform="translate(3573 799.264)"><path class="a" d="M506.044-41.748c0-.406-.246-.568-.8-.867L492.688-49.97a3.42,3.42,0,0,0-3.1-.125l-13.018,7.636a.989.989,0,0,0-.522.717v.187c.031.062.031.124.061.186v.126a.189.189,0,0,0,.031.125v.031a.235.235,0,0,0,.061.125v.031c.031.031.062.093.092.125l.03.031c-.03.031.031.093.062.125l.031.031c.061.031.092.093.154.125l12.988,7.605a2.421,2.421,0,0,0,1.105.312h.43a3.934,3.934,0,0,0,1.6-.436l12.558-7.356a1.277,1.277,0,0,0,.215-.156l.03-.031a1.332,1.332,0,0,0,.215-.187.537.537,0,0,0,.123-.156.03.03,0,0,1,.029-.031h0l.092-.187c.03-.062.03-.125.061-.187v-.062Z" transform="translate(-476.047 60.973)"/><path class="b" d="M498.327-31.766l-6.079-3.552c-.369-.218-.338-.592.092-.841l5.865-3.428a1.582,1.582,0,0,1,1.443-.062l6.112,3.521c.369.218.338.592-.092.841L499.8-31.859A1.565,1.565,0,0,1,498.327-31.766Z" transform="translate(-484.019 55.746)"/><path class="c" d="M504.962-30.95l-.829-.5c-.061-.031-.031-.093,0-.125l.8-.467a.257.257,0,0,1,.215,0l.829.5c.062.031.031.093,0,.125l-.8.467A.246.246,0,0,1,504.962-30.95Z" transform="translate(-490.071 51.938)"/><path class="d" d="M492.25-35.35h0c.03,0,.061-.031.092-.062l5.865-3.428a1.582,1.582,0,0,1,1.443-.062l6.079,3.552c.338-.249.369-.592.031-.779l-6.079-3.584a1.582,1.582,0,0,0-1.443.062l-5.864,3.429C491.912-35.942,491.881-35.568,492.25-35.35Z" transform="translate(-484.021 55.777)"/><g transform="translate(4.794)"><path class="e" d="M9.72,4.8l3.238-1.9,1.833.392-3.238,1.9Z" transform="translate(-9.72 1.155)"/><path class="f" d="M1.71,3.929h0L0,1.9,3.239,0,4.961,2.041l.965.1L2.687,4.027Z" transform="translate(3.1)"/><g transform="translate(6.366 0.322)"><path class="e" d="M4.63,2.132,7.882.23l.069.056.083.042L8.116.37l.069.042.083.056L8.337.51,8.42.552,8.5.594,8.571.65l.083.042.083.042.069.042.083.056.069.042L9.04.915l.083.042.069.056.083.042.069.042.083.042.083.056.069.042.083.042.083.042.069.056.083.042.069.042.083.042.083.056L10.2,1.6l.083.042.069.042L7.11,3.586l-.069-.042L6.959,3.5l-.083-.056L6.807,3.4l-.083-.042-.083-.042-.069-.056L6.49,3.223l-.069-.042-.083-.042-.083-.056-.069-.042L6.1,3l-.069-.042L5.953,2.9,5.87,2.859,5.8,2.817l-.083-.042-.083-.056-.069-.042-.083-.042-.069-.042-.083-.056L5.25,2.5l-.069-.042L5.1,2.412,5.016,2.37l-.069-.056-.083-.042L4.8,2.23l-.083-.042Z" transform="translate(-4.63 -0.23)"/><path class="f" d="M.593,4.391,3.831,2.5,4.81,3.538,6.519,3.51l-3.252,1.9L1.558,5.44ZM0,1.9,3.239,0l.592,2.5L.592,4.391Z" transform="translate(2.48 1.454)"/><path class="e" d="M.98,5.682l3.252-1.9.055.1.055.1L4.4,4.06l.055.1.055.1.055.1.055.1.041.1.055.1.055.084.055.1.055.1.055.1.055.1.055.1.055.1.055.1L5.21,5.5l.055.1.055.1.055.1.055.1.055.1.055.1.055.1.055.084.055.1.055.1.055.1.055.1.055.1.055.1L2.73,8.744l-.055-.084-.055-.1-.055-.1-.055-.1-.041-.1-.055-.1-.055-.1-.055-.1-.055-.084-.055-.1-.055-.1-.055-.1-.055-.1-.055-.1-.055-.1L1.862,7.22l-.055-.1-.055-.1-.055-.1-.055-.1-.055-.1-.055-.1-.055-.1-.055-.084-.055-.1-.055-.1-.055-.1-.055-.1-.055-.1-.055-.1-.055-.1Z" transform="translate(4.766 1.184)"/><path class="f" d="M.414,4.754h0L0,3.384l.882-1.5L4.134,0,3.252,1.482l.4,1.37-1.874,1.1,1.874-1.1L5.484,4.614l-3.238,1.9Z" transform="translate(6.614 8.041)"/><path class="e" d="M2.246,11.182l3.238-1.9v2.909L3.473,13.363l.648,1.86-3.238,1.9L0,14.608.4,13.7l1.833-1.077C2.246,12.147,2.246,11.671,2.246,11.182Z" transform="translate(6.614 3.376)"/><path class="e" d="M4.793,14.642l3.238-1.9-.593,1.8L4.2,16.446Z" transform="translate(-1.72 4.754)"/></g><path class="g" d="M4.582,11.457l-.4-1.37L2.35,8.324V5.415l1.833.392.4-.909L3.7,2.381c.579-.336,1.171-.685,1.75-1.021L7.159,3.388l.978.1.579-1.8c.827.489,1.654.965,2.48,1.454l.593,2.489.965,1.049,1.709-.028c.593,1.021,1.171,2.042,1.75,3.063l-.882,1.5.413,1.37,1.833,1.762v2.909l-1.833-.392-.4.909.882,2.517c-.579.336-1.171.685-1.75,1.021L12.768,19.26l-.978-.1-.579,1.8c-.827-.489-1.654-.965-2.48-1.454l-.593-2.489-.978-1.049L5.451,16c-.579-1.021-1.171-2.056-1.75-3.077l.882-1.468Z" transform="translate(-2.35 0.542)"/><g transform="translate(4.627 8.165)"><path class="h" d="M1.128,3.21c0-1.5,1.037-2.105,2.316-1.356A4.569,4.569,0,0,1,4.873,3.269l-1.01.694,2.259.474L6.45,1.994l-.99.739A6.782,6.782,0,0,0,3.785.957C3.673.878,3.559.8,3.444.737A2.182,2.182,0,0,0,.331,2.989,4.49,4.49,0,0,0,.507,4.2l.805.179A4.131,4.131,0,0,1,1.128,3.21Z" transform="translate(-0.318 -0.519)"/><path class="h" d="M11.834,47.515l-.861-.255a12.631,12.631,0,0,1,.176,1.367c0,1.5-1.147,2.059-2.425,1.31a4.809,4.809,0,0,1-1.385-1.508L8.523,47.7l-2.433-.44L5.812,49.6l.939-.638a6.75,6.75,0,0,0,1.678,1.774c.11.08.319.145.432.211a2.159,2.159,0,0,0,3.11-1.985A5.385,5.385,0,0,0,11.834,47.515Z" transform="translate(-5.64 -43.08)"/></g></g><path class="i" d="M505.248-32.345,492.69-24.99a3.934,3.934,0,0,1-1.6.436h-.43a2.428,2.428,0,0,1-1.105-.312L476.57-32.47a1.256,1.256,0,0,1-.519-.873v4.675a.907.907,0,0,0,.52.842l.614.343,12.4,7.262a2.987,2.987,0,0,0,3.132-.125L505.279-27.7a1.28,1.28,0,0,0,.768-1.091v-4.55A1.453,1.453,0,0,1,505.248-32.345Z" transform="translate(-476.049 52.568)"/><g class="j" transform="translate(1.719 21.844)"><g transform="translate(7.707 4.924)"><path class="k" d="M495.573-18.167l-.522-.312-.154.093.553.313Z" transform="translate(-494.897 18.479)"/></g><g transform="translate(8.259 5.236)"><path class="l" d="M496.125-16.774v-1.091l-.123.093v1.06Z" transform="translate(-496.002 17.865)"/></g><g transform="translate(7.707 5.018)"><path class="m" d="M494.9-17.235l.553.312v-1.06L494.9-18.3Z" transform="translate(-494.897 18.295)"/></g><g transform="translate(6.786 4.395)"><path class="k" d="M493.731-19.211l-.553-.312-.123.062.522.312Z" transform="translate(-493.055 19.523)"/></g><g transform="translate(7.307 4.706)"><path class="l" d="M494.252-17.849v-1.06l-.154.062v1.06Z" transform="translate(-494.098 18.909)"/></g><g transform="translate(6.786 4.457)"><path class="m" d="M493.055-18.34l.522.312v-1.06l-.522-.312Z" transform="translate(-493.055 19.4)"/></g><g transform="translate(5.865 3.834)"><path class="k" d="M491.858-20.316l-.522-.312-.123.093.522.312Z" transform="translate(-491.213 20.628)"/></g><g transform="translate(6.386 4.145)"><path class="l" d="M492.379-18.954v-1.06l-.123.093v1.06Z" transform="translate(-492.256 20.014)"/></g><g transform="translate(5.865 3.927)"><path class="m" d="M491.213-19.384l.522.312v-1.06l-.522-.312Z" transform="translate(-491.213 20.444)"/></g><g transform="translate(4.912 3.304)"><path class="k" d="M489.985-21.361l-.553-.312-.123.062.553.312Z" transform="translate(-489.309 21.673)"/></g><g transform="translate(5.465 3.616)"><path class="l" d="M490.537-20v-1.06l-.123.062v1.06Z" transform="translate(-490.414 21.058)"/></g><g transform="translate(4.912 3.366)"><path class="m" d="M489.309-20.49l.553.312v-1.06l-.553-.312Z" transform="translate(-489.309 21.55)"/></g><g transform="translate(3.991 2.743)"><path class="k" d="M488.112-22.466l-.522-.312-.123.093.522.313Z" transform="translate(-487.467 22.778)"/></g><g transform="translate(4.513 3.054)"><path class="l" d="M488.634-21.1v-1.06l-.123.093v1.06Z" transform="translate(-488.511 22.164)"/></g><g transform="translate(3.991 2.836)"><path class="m" d="M487.467-21.534l.522.312v-1.06l-.522-.312Z" transform="translate(-487.467 22.594)"/></g><g transform="translate(3.991 2.743)"><path class="n" d="M495.573-18.167v1.091l-.123.062-.553-.312v-1.06l.154-.093Z" transform="translate(-491.182 20.661)"/><path class="n" d="M493.73-19.211v1.059l-.154.062-.522-.311v-1.06l.123-.062Z" transform="translate(-490.26 21.175)"/><path class="n" d="M491.857-20.316v1.059l-.123.093-.522-.311v-1.06l.123-.093Z" transform="translate(-489.339 21.719)"/><path class="n" d="M489.985-21.36V-20.3l-.123.062-.553-.311v-1.06l.123-.062Z" transform="translate(-488.388 22.233)"/><path class="n" d="M487.59-22.778l.522.312v1.059l-.123.093-.522-.311v-1.06Z" transform="translate(-487.467 22.778)"/></g><g transform="translate(0 2.151)"><path class="m" d="M479.485-23.852l8.751,5.112-.154-.249-8.444-4.956Z" transform="translate(-479.485 23.945)"/></g><g transform="translate(0 0)"><path class="m" d="M488.236-23.04l-8.751-5.143.154.281.123.062.123.093,2.395,1.4.154.062.123.093,5.527,3.242Z" transform="translate(-479.485 28.183)"/></g><g transform="translate(0 0)"><path class="m" d="M479.485-28.183v2.244l.154-.093V-27.9Z" transform="translate(-479.485 28.183)"/></g><g transform="translate(8.597 5.143)"><path class="m" d="M496.831-15.836v-2.213l-.154.093v1.87Z" transform="translate(-496.677 18.049)"/></g><g transform="translate(0.154 2.088)"><path class="k" d="M479.792-24.006l8.443,4.956v-.156l-5.651-3.3-2.67-1.559Z" transform="translate(-479.792 24.068)"/></g><g transform="translate(0.154 0.281)"><path class="l" d="M479.792-27.63v1.87l.123-.062v-1.745Z" transform="translate(-479.792 27.63)"/></g><g transform="translate(0.277 1.995)"><path class="m" d="M480.038-24.159l2.671,1.558-.154-.281-2.364-1.371Z" transform="translate(-480.038 24.252)"/></g><g transform="translate(2.947 3.553)"><path class="m" d="M485.379-21.088l5.651,3.3v-.156l-.03-.031-5.467-3.21Z" transform="translate(-485.379 21.181)"/></g><g transform="translate(0.277 0.343)"><path class="m" d="M480.038-25.762l.154-.093v-1.527l-.031-.031-.123-.093Z" transform="translate(-480.038 27.507)"/></g><g transform="translate(0.399 0.436)"><path class="m" d="M480.283-27.323l.03.031.215.125,2.15,1.247h0Z" transform="translate(-480.283 27.323)"/></g><g transform="translate(2.794 1.839)"><path class="m" d="M485.072-24.559h0v1.527l.154.281V-24.5Z" transform="translate(-485.072 24.559)"/></g><g transform="translate(2.947 2.68)"><path class="m" d="M485.379-22.9v.964l.154-.093v-.777Z" transform="translate(-485.379 22.901)"/></g><g transform="translate(2.947 1.901)"><path class="m" d="M485.379-24.436v.779l.154.093v-.747l-.031-.031Z" transform="translate(-485.379 24.436)"/></g><g transform="translate(0.43 1.87)"><path class="k" d="M480.345-24.373,482.709-23v-.249L480.56-24.5Z" transform="translate(-480.345 24.498)"/></g><g transform="translate(0.645 0.592)"><path class="o" d="M480.774-25.738l2.15,1.247v-1.278l-2.15-1.247Z" transform="translate(-480.774 27.016)"/></g><g transform="translate(0.43 0.467)"><path class="l" d="M480.345-25.735l.215-.125v-1.278l-.215-.125Z" transform="translate(-480.345 27.262)"/></g><g transform="translate(3.101 3.491)"><path class="k" d="M485.687-21.242l5.465,3.21v-.126L485.779-21.3Z" transform="translate(-485.687 21.304)"/></g><g transform="translate(3.193 2.088)"><path class="m" d="M485.871-23.413v-.655l5.373,3.146v1.4l-5.373-3.146Zm4.513,2.275v1.06l.522.312.123-.062v-1.06l-.522-.312Zm-.921-.561v1.06l.522.312.123-.062v-1.06l-.522-.312Zm-.921-.53v1.06l.522.312.123-.062v-1.06l-.523-.312Zm-.95-.561v1.06l.522.312.123-.062v-1.059l-.524-.31Zm-.921-.53v1.06l.522.312.123-.062v-1.06l-.522-.312Z" transform="translate(-485.871 24.068)"/></g><g transform="translate(3.101 2.743)"><path class="l" d="M485.779-22.03v-.748l-.092.031v.781Z" transform="translate(-485.687 22.778)"/></g><g transform="translate(3.101 2.026)"><path class="l" d="M485.779-23.474v-.655l-.092-.062v.748Z" transform="translate(-485.687 24.191)"/></g><g transform="translate(8.566 5.984)"><path class="m" d="M496.616-15.612l.03.031v-.779l-.03-.031Z" transform="translate(-496.616 16.391)"/></g><g transform="translate(3.07 1.995)"><path class="m" d="M485.625-24.252l.031.031.092.062,5.373,3.146h.03Z" transform="translate(-485.625 24.252)"/></g><g transform="translate(8.566 5.236)"><path class="m" d="M496.646-17.865h-.03v.748l.03.031Z" transform="translate(-496.616 17.865)"/></g></g><g class="j" transform="translate(19.988 21.781)"><g transform="translate(0.338 4.924)"><path class="k" d="M516.694-18.29l.553-.312.123.062-.552.312Z" transform="translate(-516.694 18.602)"/></g><g transform="translate(0.338 5.236)"><path class="l" d="M516.694-16.928v-1.06l.123.062v1.06Z" transform="translate(-516.694 17.988)"/></g><g transform="translate(0.461 4.987)"><path class="m" d="M517.493-17.419l-.553.311v-1.059l.553-.312Z" transform="translate(-516.94 18.479)"/></g><g transform="translate(1.29 4.364)"><path class="k" d="M518.6-19.4l.522-.312.123.093-.522.313Z" transform="translate(-518.598 19.707)"/></g><g transform="translate(1.29 4.675)"><path class="l" d="M518.6-18.033v-1.06l.123.093v1.06Z" transform="translate(-518.598 19.093)"/></g><g transform="translate(1.412 4.457)"><path class="m" d="M519.365-18.463l-.522.311v-1.059l.522-.312Z" transform="translate(-518.843 19.523)"/></g><g transform="translate(2.211 3.834)"><path class="k" d="M520.44-20.439l.522-.312.154.062-.553.312Z" transform="translate(-520.44 20.751)"/></g><g transform="translate(2.211 4.145)"><path class="l" d="M520.44-19.077v-1.06l.123.062v1.06Z" transform="translate(-520.44 20.137)"/></g><g transform="translate(2.333 3.896)"><path class="m" d="M521.238-19.569l-.553.311v-1.059l.553-.312Z" transform="translate(-520.685 20.629)"/></g><g transform="translate(3.132 3.273)"><path class="k" d="M522.282-21.545l.553-.312.123.093-.522.312Z" transform="translate(-522.282 21.857)"/></g><g transform="translate(3.132 3.584)"><path class="l" d="M522.282-20.183v-1.06l.154.093v1.06Z" transform="translate(-522.282 21.243)"/></g><g transform="translate(3.285 3.366)"><path class="m" d="M523.111-20.613l-.522.311v-1.059l.522-.312Z" transform="translate(-522.589 21.673)"/></g><g transform="translate(4.083 2.743)"><path class="k" d="M524.185-22.589l.522-.312.123.062-.522.312Z" transform="translate(-524.185 22.901)"/></g><g transform="translate(4.083 3.054)"><path class="l" d="M524.185-21.227v-1.06l.123.062v1.06Z" transform="translate(-524.185 22.287)"/></g><g transform="translate(4.206 2.805)"><path class="m" d="M524.953-21.718l-.522.311v-1.059l.522-.312Z" transform="translate(-524.431 22.778)"/></g><g transform="translate(0.338 2.743)"><path class="n" d="M516.694-18.29v1.059l.123.062.552-.312V-18.54l-.123-.062Z" transform="translate(-516.694 20.784)"/><path class="n" d="M518.6-19.4v1.059l.123.093.522-.312v-1.059l-.123-.093Z" transform="translate(-517.645 21.328)"/><path class="n" d="M520.439-20.439v1.059l.123.062.552-.312v-1.059l-.154-.062Z" transform="translate(-518.566 21.842)"/><path class="n" d="M522.281-21.545v1.059l.154.093.522-.312v-1.059l-.123-.093Z" transform="translate(-519.487 22.387)"/><path class="n" d="M524.707-22.9l-.522.312v1.059l.123.062.522-.312v-1.059Z" transform="translate(-520.439 22.901)"/></g><g transform="translate(0 2.153)"><path class="m" d="M524.739-24l-8.72,5.143.154-.281,8.413-4.922Z" transform="translate(-516.019 24.064)"/></g><path class="m" d="M516.019-23.194l8.72-5.112-.153.249-.123.093-.123.063-2.4,1.4-.123.093-.154.062-5.5,3.242Z" transform="translate(-516.019 28.306)"/><g transform="translate(8.566)"><path class="m" d="M533.3-28.306v2.213l-.153-.062v-1.9Z" transform="translate(-533.15 28.306)"/></g><g transform="translate(0 5.112)"><path class="m" d="M516.019-15.989v-2.244l.154.093v1.87Z" transform="translate(-516.019 18.233)"/></g><g transform="translate(0.154 2.057)"><path class="k" d="M524.739-24.159l-8.413,4.924v-.156l5.651-3.3,2.64-1.558Z" transform="translate(-516.326 24.252)"/></g><g transform="translate(8.443 0.249)"><path class="l" d="M533.027-27.815v1.9l-.123-.093v-1.715Z" transform="translate(-532.904 27.815)"/></g><g transform="translate(5.803 1.964)"><path class="m" d="M530.264-24.343l-2.64,1.558.154-.281,2.333-1.37Z" transform="translate(-527.624 24.435)"/></g><g transform="translate(0.154 3.522)"><path class="m" d="M521.977-21.273l-5.651,3.3v-.187l5.5-3.21Z" transform="translate(-516.326 21.366)"/></g><g transform="translate(8.29 0.343)"><path class="m" d="M532.75-25.916l-.154-.093v-1.527l.031-.031.123-.062Z" transform="translate(-532.597 27.63)"/></g><g transform="translate(5.925 0.405)"><path class="m" d="M530.263-27.508l-.031.031-.184.125-2.15,1.278-.031-.031Z" transform="translate(-527.868 27.508)"/></g><g transform="translate(5.803 1.808)"><path class="m" d="M527.747-24.744l.031.031v1.5l-.154.28v-1.714Z" transform="translate(-527.624 24.744)"/></g><g transform="translate(5.65 2.68)"><path class="m" d="M527.471-23.024v.935l-.154-.093v-.749Z" transform="translate(-527.317 23.024)"/></g><g transform="translate(5.65 1.901)"><path class="m" d="M527.471-24.559v.779l-.154.093V-24.5Z" transform="translate(-527.317 24.559)"/></g><g transform="translate(5.957 1.839)"><path class="k" d="M530.264-24.557l-2.333,1.37v-.218l2.15-1.277Z" transform="translate(-527.931 24.682)"/></g><g transform="translate(5.957 0.561)"><path class="o" d="M530.081-25.922l-2.15,1.278v-1.278l2.15-1.278Z" transform="translate(-527.931 27.2)"/></g><g transform="translate(8.106 0.436)"><path class="l" d="M532.413-25.919l-.184-.125v-1.278l.184-.125Z" transform="translate(-532.229 27.446)"/></g><g transform="translate(0.154 3.459)"><path class="k" d="M521.822-21.427l-5.5,3.21v-.093l5.4-3.179Z" transform="translate(-516.326 21.489)"/></g><g transform="translate(0.154 2.057)"><path class="m" d="M521.73-23.6v-.655l-5.4,3.146v1.4l5.373-3.146V-23.6Zm-4.544,2.275v1.06l-.522.312-.123-.062v-1.06l.522-.312Zm.921-.53v1.06l-.522.312-.123-.062V-21.6l.522-.312Zm.95-.561v1.06l-.522.312-.122-.064v-1.058l.522-.312Zm.921-.53v1.06l-.522.312-.123-.062v-1.06l.522-.312Zm.921-.561v1.06l-.522.312-.123-.062v-1.06l.522-.312Z" transform="translate(-516.326 24.252)"/></g><g transform="translate(5.558 2.711)"><path class="l" d="M527.133-22.215v-.748l.092.062v.75Z" transform="translate(-527.133 22.963)"/></g><g transform="translate(5.558 1.995)"><path class="l" d="M527.133-23.658v-.655l.092-.062v.779Z" transform="translate(-527.133 24.375)"/></g><g transform="translate(0.154 5.984)"><path class="m" d="M516.326-15.766v-.748h0Z" transform="translate(-516.326 16.514)"/></g><g transform="translate(0.154 1.963)"><path class="m" d="M521.822-24.437v.031l-.092.062-5.4,3.148h0Z" transform="translate(-516.326 24.437)"/></g><g transform="translate(0.154 5.205)"><path class="m" d="M516.326-18.049h0v.779h0Z" transform="translate(-516.326 18.049)"/></g></g></g><rect class="p" width="36" height="36" transform="translate(3570 796)"/></g></svg>