<svg xmlns="http://www.w3.org/2000/svg" xmlns:xlink="http://www.w3.org/1999/xlink" width="489.5" height="264" viewBox="0 0 489.5 264"><defs><style>.a,.e,.i{fill:none;}.b{clip-path:url(#a);}.c{clip-path:url(#b);}.d,.e{opacity:0.39;}.d{fill:url(#c);}.f,.j{fill:#89d7ff;}.g{fill:#fff;font-size:16px;font-family:SpoqaHanSans-Light, SpoqaHanSans;font-weight:300;letter-spacing:-0.002em;}.h{fill:url(#d);}.i{stroke:#4cc8ed;stroke-miterlimit:10;stroke-width:2px;opacity:0.5;}.j{font-size:20px;font-family:SpoqaHanSans-Regular, SpoqaHanSans;letter-spacing:-0.05em;}.k,.l{stroke:none;}.l{fill:#ffc200;}</style><clipPath id="a"><rect class="a" width="489.499" height="264"/></clipPath><clipPath id="b"><path class="a" d="M-348.5,264.5h-445V203.71A79.2,79.2,0,0,0-758,212a80.09,80.09,0,0,0,80-80,80.09,80.09,0,0,0-80-80,79.2,79.2,0,0,0-35.5,8.288V.5h445v264Zm-277-257v39h116V7.5h-116Z" transform="translate(1211 2770)"/></clipPath><linearGradient id="c" x1="0.5" x2="0.5" y2="1" gradientUnits="objectBoundingBox"><stop offset="0" stop-color="#cfe8ff" stop-opacity="0"/><stop offset="1" stop-color="#fcee21"/></linearGradient><linearGradient id="d" x1="0.5" y1="0.151" x2="0.5" y2="1.389" gradientUnits="objectBoundingBox"><stop offset="0" stop-color="#cfe8ff" stop-opacity="0.102"/><stop offset="1" stop-color="#00b9ff" stop-opacity="0.569"/></linearGradient></defs><g class="b" transform="translate(0 0)"><g class="c" transform="translate(-373 -2770.5)"><path class="d" d="M6,0H374a6,6,0,0,1,6,6V212a6,6,0,0,1-6,6H6a6,6,0,0,1-6-6V6A6,6,0,0,1,6,0Z" transform="translate(453 2796)"/><g class="e" transform="translate(453 2796)"><path class="k" d="M6,0H374a6,6,0,0,1,6,6V212a6,6,0,0,1-6,6H6a6,6,0,0,1-6-6V6A6,6,0,0,1,6,0Z"/><path class="l" d="M 6 1 C 3.243011474609375 1 1 3.242996215820313 1 6 L 1 212 C 1 214.7570037841797 3.243011474609375 217 6 217 L 374 217 C 376.7569885253906 217 379 214.7570037841797 379 212 L 379 6 C 379 3.242996215820313 376.7569885253906 1 374 1 L 6 1 M 6 0 L 374 0 C 377.3136901855469 0 380 2.686294555664063 380 6 L 380 212 C 380 215.3137054443359 377.3136901855469 218 374 218 L 6 218 C 2.686248779296875 218 0 215.3137054443359 0 212 L 0 6 C 0 2.686294555664063 2.686248779296875 0 6 0 Z"/></g></g><g transform="translate(-889 -2746.5)"><rect class="f" width="98.715" height="1" transform="translate(1049 2877)"/><g transform="translate(1149 2877.642) rotate(135)"><rect class="f" width="20" height="1" transform="translate(0 0)"/><rect class="f" width="20" height="1" transform="translate(1 0) rotate(90)"/></g></g><text class="g" transform="translate(199 112.5)"><tspan x="-31.152" y="0">일반 통신</tspan></text><text class="g" transform="translate(302 124.5)"><tspan x="0" y="0">독립적 네트워크</tspan><tspan x="0" y="24">초고속 전송 속도</tspan><tspan x="0" y="48">최적화 시스템</tspan></text><text class="g" transform="translate(223 33.5)"><tspan x="0" y="0">서버 단독 사용</tspan></text><g transform="translate(-249.901 -1375.401)"><path class="h" d="M80,0A80,80,0,1,1,0,80,80,80,0,0,1,80,0Z" transform="translate(249.901 1426.901)"/><g class="i" transform="translate(249.901 1426.901)"><ellipse class="k" cx="79.999" cy="79.999" rx="79.999" ry="79.999"/><ellipse class="a" cx="79.999" cy="79.999" rx="78.999" ry="78.999"/></g></g><g transform="translate(51 114.5)"><text class="j" transform="translate(29 26)"><tspan x="-44" y="0">서버호스팅</tspan></text></g></g></svg>