<svg xmlns="http://www.w3.org/2000/svg" xmlns:xlink="http://www.w3.org/1999/xlink" width="182" height="27.816" viewBox="0 0 182 27.816"><defs><style>.a{fill:#fff;}.b{fill:url(#a);}.c{fill:url(#b);}.d{fill:url(#c);}.e{fill:url(#d);}.f{fill:url(#e);}.g{fill:#003c8c;}</style><linearGradient id="a" x1="0.228" y1="1.181" x2="0.775" y2="0.245" gradientUnits="objectBoundingBox"><stop offset="0" stop-color="#00bdff"/><stop offset="0.127" stop-color="#00a7ee"/><stop offset="0.385" stop-color="#0080d2"/><stop offset="0.52" stop-color="#0072c7"/><stop offset="0.753" stop-color="#0057ac"/><stop offset="1" stop-color="#00368d"/></linearGradient><linearGradient id="b" x1="0.14" y1="0.5" x2="1.14" y2="0.5" gradientUnits="objectBoundingBox"><stop offset="0" stop-color="#00befa"/><stop offset="0.159" stop-color="#00a6ee"/><stop offset="0.52" stop-color="#0076d5"/><stop offset="0.715" stop-color="#0060b9"/><stop offset="1" stop-color="#003c8c"/></linearGradient><linearGradient id="c" y1="0.5" x2="1" y2="0.5" gradientUnits="objectBoundingBox"><stop offset="0" stop-color="#0076d5"/><stop offset="1" stop-color="#003c8c"/></linearGradient><linearGradient id="d" x1="0.693" y1="-0.048" x2="0.357" y2="0.915" gradientUnits="objectBoundingBox"><stop offset="0" stop-color="#00befa"/><stop offset="0.214" stop-color="#00a3ec"/><stop offset="0.52" stop-color="#0076d5"/><stop offset="0.715" stop-color="#0060b9"/><stop offset="1" stop-color="#003c8c"/></linearGradient><linearGradient id="e" x1="0.465" y1="1.205" x2="0.556" y2="-0.163" gradientUnits="objectBoundingBox"><stop offset="0" stop-color="#0072c7"/><stop offset="1" stop-color="#003c8c"/></linearGradient></defs><g transform="translate(-364.336 -171.763)"><g transform="translate(405.015 171.763)"><g transform="translate(0)"><path class="a" d="M177.193,378.02V370.8h-2.981v1.374l-.284-.188a7.086,7.086,0,0,0-3.918-1.183,7.285,7.285,0,0,0,0,14.57,7.094,7.094,0,0,0,3.921-1.183l.284-.188v1.512a4.267,4.267,0,0,1-3.895,4.247l-.13.01V392.8l.148-.007a7.336,7.336,0,0,0,6.859-7.207v-7.361h.008Zm-2.981.006v.121a4.259,4.259,0,1,1,0-.121Z" transform="translate(-162.817 -364.984)"/><path class="a" d="M198.455,372.186l-.29-.192a7.092,7.092,0,0,0-3.915-1.182,7.281,7.281,0,0,0,0,14.562,7.088,7.088,0,0,0,3.918-1.182l.29-.192v1.333h2.974V370.809h-2.974Zm0,5.9a4.211,4.211,0,1,1-4.209-4.261A4.241,4.241,0,0,1,198.455,378.086Z" transform="translate(-171.669 -364.987)"/><path class="a" d="M219.964,367.461a7.086,7.086,0,0,0-3.928,1.189l-.291.192v-7.2h-2.968V382h2.968v-1.355l.291.192a7.1,7.1,0,0,0,9-.942,7.348,7.348,0,0,0,.006-10.3A7.094,7.094,0,0,0,219.964,367.461Zm0,11.547a4.264,4.264,0,1,1,4.212-4.266A4.243,4.243,0,0,1,219.964,379.008Z" transform="translate(-181.059 -361.638)"/><rect class="a" width="2.974" height="14.525" transform="translate(47.498 5.822)"/><path class="a" d="M256.274,370.809v1.413l-.292-.2a7.081,7.081,0,0,0-3.969-1.213h-.094a7.282,7.282,0,0,0,.1,14.562h.094a7.091,7.091,0,0,0,3.871-1.218l.292-.2v1.373h2.973V370.809Zm-.051,7.221a4.244,4.244,0,0,1-4.15,4.322h-.061a4.158,4.158,0,0,1-2.935-1.208,4.274,4.274,0,0,1,2.87-7.317,4.31,4.31,0,0,1,3,1.207A4.263,4.263,0,0,1,256.223,378.029Z" transform="translate(-192.761 -364.987)"/><g transform="translate(69.029 16.592)"><circle class="a" cx="1.954" cy="1.954" r="1.954" transform="translate(0.142 0.142)"/><path class="a" d="M273.641,391.964a2.1,2.1,0,1,1,2.1-2.1A2.1,2.1,0,0,1,273.641,391.964Zm0-3.908a1.813,1.813,0,1,0,1.813,1.813A1.814,1.814,0,0,0,273.641,388.056Z" transform="translate(-271.545 -387.773)"/></g></g><g transform="translate(76.231)"><path class="a" d="M321.95,370.813a7.233,7.233,0,1,0,5.082,2.134A7.1,7.1,0,0,0,321.95,370.813Zm4.208,7.276a4.255,4.255,0,0,1-1.233,3.012,4.156,4.156,0,0,1-2.978,1.251,4.263,4.263,0,1,1,4.211-4.263Z" transform="translate(-294.527 -364.988)"/><rect class="a" width="2.974" height="20.912" transform="translate(15.821 0.086)"/><path class="a" d="M374.184,361.638v7.2l-.291-.192a7.1,7.1,0,0,0-9.006.945,7.349,7.349,0,0,0,.006,10.3,7.1,7.1,0,0,0,9,.942l.291-.193V382h2.967V361.638Zm-.007,13.106a4.212,4.212,0,1,1-4.212-4.264A4.243,4.243,0,0,1,374.177,374.744Z" transform="translate(-312.061 -361.638)"/><path class="a" d="M290.073,373.747a4.2,4.2,0,0,1,3.46,1.84l.042.062h3.3l-.07-.19a7.215,7.215,0,0,0-6.726-4.726A7.1,7.1,0,0,0,285,372.862a7.231,7.231,0,1,0,11.807,7.705l.07-.19h-3.3l-.042.062a4.173,4.173,0,0,1-6.432.584,4.273,4.273,0,0,1,2.978-7.276Z" transform="translate(-282.889 -364.959)"/><path class="a" d="M353.033,371.132h-2.959v.142c0,1.418,0,6.919,0,6.981a4.067,4.067,0,0,1-2.708,3.949,4.587,4.587,0,0,1-1.615.1,2.756,2.756,0,0,1-1.388-.551,4.254,4.254,0,0,1-.929-.883,4.307,4.307,0,0,1-.9-2.4c0-.071-.006-.143-.006-.215s0-5.565,0-6.984v-.142h-2.957v.142c0,1.411-.005,6.926-.005,6.984a7.36,7.36,0,0,0,1.886,4.864,7.213,7.213,0,0,0,2.087,1.606,5.884,5.884,0,0,0,2.724.668,6.2,6.2,0,0,0,2.974-.763,7.327,7.327,0,0,0,3.788-6.368c0-.06,0-5.579-.005-6.99Z" transform="translate(-303.588 -365.104)"/></g></g><g transform="translate(364.336 172.993)"><path class="b" d="M128.4,365.993a8.257,8.257,0,0,0-13.875,3.944l-.008.034.035,0A8.93,8.93,0,0,1,121.044,374l.01.015h9.469l.006-.023A8.285,8.285,0,0,0,128.4,365.993Z" transform="translate(-104.502 -363.575)"/><path class="c" d="M131.5,379.921h-1.436l-.006.024a8.188,8.188,0,0,1-7.9,6.048H122l0,.027a8.941,8.941,0,0,1-7.8,7.721l-.027,0-.79.126H131.5v-.012a6.981,6.981,0,0,0,0-13.937Z" transform="translate(-104.087 -369.543)"/><path class="d" d="M124.748,379.921l.032.048a8.929,8.929,0,0,1,1.444,4.876,9.164,9.164,0,0,1-.079,1.173l0,.035h.159a8.252,8.252,0,0,0,7.965-6.095l.01-.039Z" transform="translate(-108.238 -369.543)"/><path class="e" d="M116.682,383.634a8.187,8.187,0,0,1-7.789-6.047,8.248,8.248,0,0,1-.068-4.025l.008-.034-.035,0a9.182,9.182,0,0,0-1.032-.06,9.024,9.024,0,1,0,1.058,17.983h0l.035,0,.027,0h0a9,9,0,0,0,7.825-7.771l0-.035Z" transform="translate(-98.743 -367.186)"/><path class="f" d="M120.975,377.611a8.992,8.992,0,0,0-6.538-4.054l-.028,0-.006.027a8.316,8.316,0,0,0,.068,4.054l.006.023h6.53Z" transform="translate(-104.381 -367.219)"/><path class="g" d="M121.133,379.936l-.009-.015h-6.506l.01.039a8.25,8.25,0,0,0,7.848,6.094h.028l0-.028a9.17,9.17,0,0,0,.079-1.182A8.988,8.988,0,0,0,121.133,379.936Z" transform="translate(-104.54 -369.543)"/></g></g></svg>